<svg width="21" height="19" viewBox="0 0 21 19" fill="none" xmlns="http://www.w3.org/2000/svg">
<path d="M7.20496 14.8675L9.07746 14.0351C9.35963 13.9068 9.7481 13.9883 9.93477 14.2151L11.1834 15.7029C11.5021 15.9387 11.9871 15.8717 12.2134 15.5565L12.7198 14.8312C12.8444 14.6573 12.8455 14.3636 12.7229 14.1878L11.5654 12.519C11.477 12.4004 11.4409 12.1927 11.4775 12.0566L11.9311 10.3697C11.9979 10.1211 12.2374 10.0463 12.4731 10.1958L15.4243 12.1412C15.8875 12.4448 16.3747 12.2908 16.5084 11.7936L16.7137 11.03C16.8203 10.6335 16.608 10.1074 16.2341 9.86628L12.8736 7.65361C12.7776 7.58967 12.7172 7.44568 12.7459 7.33914L13.2233 5.56345C13.3729 5.00706 13.0874 4.25301 12.5933 3.88036C12.4162 3.74938 12.1818 3.70015 11.957 3.74675C11.3259 3.88312 10.6856 4.449 10.536 5.00539L10.0585 6.78108C10.0299 6.88762 9.90267 6.99223 9.78437 7.01116L5.66348 7.65284C5.20844 7.71362 4.75101 8.09905 4.64438 8.49563L4.43908 9.25917C4.30539 9.75637 4.6621 10.0877 5.23034 10.0006L8.85633 9.43636C9.1379 9.38918 9.3188 9.55848 9.25196 9.80708L8.79839 11.494C8.76178 11.6301 8.62379 11.8012 8.49116 11.8734L6.60791 12.9037C6.40897 13.012 6.26209 13.2688 6.28325 13.4796L6.36628 14.3287C6.39453 14.6973 6.79202 14.9559 7.20496 14.8675Z" stroke="#777777" stroke-width="0.912566" stroke-linecap="round" stroke-linejoin="round"/>
</svg>
