<svg width="23" height="22" viewBox="0 0 23 22" fill="none" xmlns="http://www.w3.org/2000/svg">
<path d="M18.8795 9.74516L14.5987 7.90266L13.6453 7.49932C13.4987 7.42599 13.3703 7.23349 13.3703 7.06849V4.26349C13.3703 3.38349 12.7195 2.33849 11.9312 1.93516C11.6562 1.79766 11.3262 1.79766 11.0512 1.93516C10.272 2.33849 9.62117 3.39266 9.62117 4.27266V7.07766C9.62117 7.24266 9.49284 7.43516 9.34617 7.50849L4.12117 9.75432C3.54367 9.99266 3.07617 10.7168 3.07617 11.3402V12.5502C3.07617 13.3293 3.66284 13.7143 4.38701 13.4027L8.97951 11.4227C9.33701 11.2668 9.63034 11.4593 9.63034 11.8535V12.871V14.521C9.63034 14.7318 9.51117 15.0343 9.36451 15.181L7.23784 17.3168C7.01784 17.5368 6.91701 17.9677 7.01784 18.2793L7.43034 19.526C7.59534 20.0668 8.20951 20.3235 8.71367 20.0668L10.8953 18.2335C11.2253 17.9493 11.7662 17.9493 12.0962 18.2335L14.2778 20.0668C14.782 20.3143 15.3962 20.0668 15.5795 19.526L15.992 18.2793C16.0928 17.9768 15.992 17.5368 15.772 17.3168L13.6453 15.181C13.4895 15.0343 13.3703 14.7318 13.3703 14.521V11.8535C13.3703 11.4593 13.6545 11.276 14.0212 11.4227L18.6137 13.4027C19.3378 13.7143 19.9245 13.3293 19.9245 12.5502V11.3402C19.9245 10.7168 19.457 9.99266 18.8795 9.74516Z" fill="#FDB813"/>
</svg>
