<?xml version="1.0" encoding="UTF-8"?>
<!DOCTYPE svg PUBLIC "-//W3C//DTD SVG 1.1//EN" "http://www.w3.org/Graphics/SVG/1.1/DTD/svg11.dtd">
<svg xmlns="http://www.w3.org/2000/svg" version="1.1" width="512px" height="512px" style="shape-rendering:geometricPrecision; text-rendering:geometricPrecision; image-rendering:optimizeQuality; fill-rule:evenodd; clip-rule:evenodd" xmlns:xlink="http://www.w3.org/1999/xlink">
<g><path style="opacity:0.021" fill="#43443f" d="M -0.5,-0.5 C 0.166667,-0.5 0.833333,-0.5 1.5,-0.5C 1.16667,0.5 0.5,1.16667 -0.5,1.5C -0.5,0.833333 -0.5,0.166667 -0.5,-0.5 Z"/></g>
<g><path style="opacity:0.022" fill="#43443f" d="M 16.5,-0.5 C 18.1667,-0.5 19.8333,-0.5 21.5,-0.5C 14.5,7.16667 7.16667,14.5 -0.5,21.5C -0.5,19.8333 -0.5,18.1667 -0.5,16.5C 5.5,11.1667 11.1667,5.5 16.5,-0.5 Z"/></g>
<g><path style="opacity:0.022" fill="#43443f" d="M 36.5,-0.5 C 38.1667,-0.5 39.8333,-0.5 41.5,-0.5C 27.8333,13.8333 13.8333,27.8333 -0.5,41.5C -0.5,39.8333 -0.5,38.1667 -0.5,36.5C 12.1667,24.5 24.5,12.1667 36.5,-0.5 Z"/></g>
<g><path style="opacity:0.022" fill="#43443f" d="M 56.5,-0.5 C 58.1667,-0.5 59.8333,-0.5 61.5,-0.5C 41.1667,20.5 20.5,41.1667 -0.5,61.5C -0.5,59.8333 -0.5,58.1667 -0.5,56.5C 18.8333,37.8333 37.8333,18.8333 56.5,-0.5 Z"/></g>
<g><path style="opacity:0.022" fill="#43443f" d="M 76.5,-0.5 C 78.1667,-0.5 79.8333,-0.5 81.5,-0.5C 54.5,27.1667 27.1667,54.5 -0.5,81.5C -0.5,79.8333 -0.5,78.1667 -0.5,76.5C 25.5,51.1667 51.1667,25.5 76.5,-0.5 Z"/></g>
<g><path style="opacity:0.022" fill="#43443f" d="M 96.5,-0.5 C 98.1667,-0.5 99.8333,-0.5 101.5,-0.5C 67.8333,33.8333 33.8333,67.8333 -0.5,101.5C -0.5,99.8333 -0.5,98.1667 -0.5,96.5C 32.1667,64.5 64.5,32.1667 96.5,-0.5 Z"/></g>
<g><path style="opacity:0.022" fill="#43443f" d="M 116.5,-0.5 C 118.167,-0.5 119.833,-0.5 121.5,-0.5C 81.1667,40.5 40.5,81.1667 -0.5,121.5C -0.5,119.833 -0.5,118.167 -0.5,116.5C 38.8333,77.8333 77.8333,38.8333 116.5,-0.5 Z"/></g>
<g><path style="opacity:0.022" fill="#43443f" d="M 136.5,-0.5 C 138.167,-0.5 139.833,-0.5 141.5,-0.5C 94.5,47.1667 47.1667,94.5 -0.5,141.5C -0.5,139.833 -0.5,138.167 -0.5,136.5C 45.5,91.1667 91.1667,45.5 136.5,-0.5 Z"/></g>
<g><path style="opacity:0.022" fill="#43443f" d="M 156.5,-0.5 C 158.167,-0.5 159.833,-0.5 161.5,-0.5C 107.833,53.8333 53.8333,107.833 -0.5,161.5C -0.5,159.833 -0.5,158.167 -0.5,156.5C 52.1667,104.5 104.5,52.1667 156.5,-0.5 Z"/></g>
<g><path style="opacity:0.022" fill="#43443f" d="M 176.5,-0.5 C 178.167,-0.5 179.833,-0.5 181.5,-0.5C 121.167,60.5 60.5,121.167 -0.5,181.5C -0.5,179.833 -0.5,178.167 -0.5,176.5C 58.8333,117.833 117.833,58.8333 176.5,-0.5 Z"/></g>
<g><path style="opacity:0.022" fill="#43443f" d="M 196.5,-0.5 C 198.167,-0.5 199.833,-0.5 201.5,-0.5C 134.5,67.1667 67.1667,134.5 -0.5,201.5C -0.5,199.833 -0.5,198.167 -0.5,196.5C 65.5,131.167 131.167,65.5 196.5,-0.5 Z"/></g>
<g><path style="opacity:0.022" fill="#43443f" d="M 216.5,-0.5 C 218.167,-0.5 219.833,-0.5 221.5,-0.5C 147.833,73.8333 73.8333,147.833 -0.5,221.5C -0.5,219.833 -0.5,218.167 -0.5,216.5C 72.1667,144.5 144.5,72.1667 216.5,-0.5 Z"/></g>
<g><path style="opacity:0.022" fill="#43443f" d="M 236.5,-0.5 C 238.167,-0.5 239.833,-0.5 241.5,-0.5C 161.167,80.5 80.5,161.167 -0.5,241.5C -0.5,239.833 -0.5,238.167 -0.5,236.5C 78.8333,157.833 157.833,78.8333 236.5,-0.5 Z"/></g>
<g><path style="opacity:0.022" fill="#43443f" d="M 256.5,-0.5 C 258.167,-0.5 259.833,-0.5 261.5,-0.5C 174.5,87.1667 87.1667,174.5 -0.5,261.5C -0.5,259.833 -0.5,258.167 -0.5,256.5C 85.5,171.167 171.167,85.5 256.5,-0.5 Z"/></g>
<g><path style="opacity:0.022" fill="#43443f" d="M 276.5,-0.5 C 278.167,-0.5 279.833,-0.5 281.5,-0.5C 187.833,93.8333 93.8333,187.833 -0.5,281.5C -0.5,279.833 -0.5,278.167 -0.5,276.5C 92.1667,184.5 184.5,92.1667 276.5,-0.5 Z"/></g>
<g><path style="opacity:0.022" fill="#43443f" d="M 296.5,-0.5 C 298.167,-0.5 299.833,-0.5 301.5,-0.5C 238.167,63.5 174.5,127.167 110.5,190.5C 109.391,190.443 108.391,190.11 107.5,189.5C 170.5,126.167 233.5,62.8333 296.5,-0.5 Z"/></g>
<g><path style="opacity:0.022" fill="#43443f" d="M 316.5,-0.5 C 318.167,-0.5 319.833,-0.5 321.5,-0.5C 266.5,54.8333 211.5,110.167 156.5,165.5C 154.299,166.566 151.965,167.233 149.5,167.5C 205.167,111.5 260.833,55.5 316.5,-0.5 Z"/></g>
<g><path style="opacity:0.022" fill="#43443f" d="M 336.5,-0.5 C 338.167,-0.5 339.833,-0.5 341.5,-0.5C 288.833,52.5 236.167,105.5 183.5,158.5C 181.5,158.833 179.5,159.167 177.5,159.5C 230.5,106.167 283.5,52.8333 336.5,-0.5 Z"/></g>
<g><path style="opacity:0.022" fill="#43443f" d="M 356.5,-0.5 C 358.167,-0.5 359.833,-0.5 361.5,-0.5C 310.167,51.1667 258.833,102.833 207.5,154.5C 205.833,154.5 204.167,154.5 202.5,154.5C 253.833,102.833 305.167,51.1667 356.5,-0.5 Z"/></g>
<g><path style="opacity:0.022" fill="#43443f" d="M 376.5,-0.5 C 378.167,-0.5 379.833,-0.5 381.5,-0.5C 331.167,50.1667 280.833,100.833 230.5,151.5C 229.833,151.5 229.5,151.833 229.5,152.5C 227.833,152.5 226.167,152.5 224.5,152.5C 275.167,101.5 325.833,50.5 376.5,-0.5 Z"/></g>
<g><path style="opacity:0.022" fill="#43443f" d="M 396.5,-0.5 C 398.167,-0.5 399.833,-0.5 401.5,-0.5C 346.167,55.1667 290.833,110.833 235.5,166.5C 234.549,165.081 234.216,163.415 234.5,161.5C 288.833,107.833 342.833,53.8333 396.5,-0.5 Z"/></g>
<g><path style="opacity:0.022" fill="#43443f" d="M 416.5,-0.5 C 418.167,-0.5 419.833,-0.5 421.5,-0.5C 366.167,55.1667 310.833,110.833 255.5,166.5C 253.833,166.5 252.167,166.5 250.5,166.5C 305.833,110.833 361.167,55.1667 416.5,-0.5 Z"/></g>
<g><path style="opacity:0.022" fill="#43443f" d="M 436.5,-0.5 C 438.167,-0.5 439.833,-0.5 441.5,-0.5C 390.833,50.5 340.167,101.5 289.5,152.5C 287.833,152.5 286.167,152.5 284.5,152.5C 335.167,101.5 385.833,50.5 436.5,-0.5 Z"/></g>
<g><path style="opacity:0.022" fill="#43443f" d="M 456.5,-0.5 C 458.167,-0.5 459.833,-0.5 461.5,-0.5C 410.167,51.1667 358.833,102.833 307.5,154.5C 305.833,154.5 304.167,154.5 302.5,154.5C 353.833,102.833 405.167,51.1667 456.5,-0.5 Z"/></g>
<g><path style="opacity:0.022" fill="#43443f" d="M 476.5,-0.5 C 478.167,-0.5 479.833,-0.5 481.5,-0.5C 429.167,52.1667 376.833,104.833 324.5,157.5C 322.901,157.768 321.568,157.434 320.5,156.5C 372.5,104.167 424.5,51.8333 476.5,-0.5 Z"/></g>
<g><path style="opacity:0.022" fill="#43443f" d="M 496.5,-0.5 C 498.167,-0.5 499.833,-0.5 501.5,-0.5C 447.833,53.5 394.167,107.5 340.5,161.5C 339.167,161.167 337.833,160.833 336.5,160.5C 389.833,106.833 443.167,53.1667 496.5,-0.5 Z"/></g>
<g><path style="opacity:0.022" fill="#43443f" d="M 511.5,5.5 C 511.5,7.16667 511.5,8.83333 511.5,10.5C 459.5,62.1667 407.5,113.833 355.5,165.5C 354.209,165.737 353.209,165.404 352.5,164.5C 405.167,111.167 458.167,58.1667 511.5,5.5 Z"/></g>
<g><path style="opacity:0.022" fill="#43433f" d="M 511.5,25.5 C 511.5,27.1667 511.5,28.8333 511.5,30.5C 464.167,77.1667 417.167,124.167 370.5,171.5C 369.005,171.011 367.671,170.345 366.5,169.5C 414.833,121.5 463.167,73.5 511.5,25.5 Z"/></g>
<g><path style="opacity:0.022" fill="#43443f" d="M 511.5,45.5 C 511.5,47.1667 511.5,48.8333 511.5,50.5C 462.5,98.8333 413.833,147.5 365.5,196.5C 364.5,195.833 363.5,195.167 362.5,194.5C 411.833,144.5 461.5,94.8333 511.5,45.5 Z"/></g>
<g><path style="opacity:0.022" fill="#43433f" d="M 511.5,65.5 C 511.5,67.1667 511.5,68.8333 511.5,70.5C 466.5,115.167 421.5,159.833 376.5,204.5C 375.29,204.068 374.29,203.401 373.5,202.5C 419.5,156.833 465.5,111.167 511.5,65.5 Z"/></g>
<g><path style="opacity:0.022" fill="#43433f" d="M 511.5,85.5 C 511.5,87.1667 511.5,88.8333 511.5,90.5C 476.833,124.5 442.5,158.833 408.5,193.5C 407.167,192.833 406.167,191.833 405.5,190.5C 440.833,155.5 476.167,120.5 511.5,85.5 Z"/></g>
<g><path style="opacity:0.022" fill="#43443f" d="M 511.5,105.5 C 511.5,107.167 511.5,108.833 511.5,110.5C 480.5,141.167 449.5,171.833 418.5,202.5C 417.5,202.167 416.833,201.5 416.5,200.5C 447.833,168.5 479.5,136.833 511.5,105.5 Z"/></g>
<g><path style="opacity:0.022" fill="#43443f" d="M 511.5,125.5 C 511.5,127.167 511.5,128.833 511.5,130.5C 483.167,158.5 454.833,186.5 426.5,214.5C 425.89,213.609 425.557,212.609 425.5,211.5C 453.833,182.5 482.5,153.833 511.5,125.5 Z"/></g>
<g><path style="opacity:0.022" fill="#43443f" d="M 511.5,145.5 C 511.5,147.167 511.5,148.833 511.5,150.5C 484.833,176.833 458.167,203.167 431.5,229.5C 431.567,228.041 431.234,226.708 430.5,225.5C 457.5,198.833 484.5,172.167 511.5,145.5 Z"/></g>
<g><path style="opacity:0.971" fill="#000000" d="M 230.5,151.5 C 231.833,151.5 233.167,151.5 234.5,151.5C 234.5,154.833 234.5,158.167 234.5,161.5C 234.216,163.415 234.549,165.081 235.5,166.5C 240.5,166.5 245.5,166.5 250.5,166.5C 252.167,166.5 253.833,166.5 255.5,166.5C 260.5,166.5 265.5,166.5 270.5,166.5C 272.167,166.5 273.833,166.5 275.5,166.5C 276.833,166.5 277.5,165.833 277.5,164.5C 277.5,162.833 277.5,161.167 277.5,159.5C 277.5,156.833 277.5,154.167 277.5,151.5C 279.861,151.674 282.194,152.007 284.5,152.5C 286.167,152.5 287.833,152.5 289.5,152.5C 293.908,152.925 298.242,153.592 302.5,154.5C 304.167,154.5 305.833,154.5 307.5,154.5C 311.739,155.535 316.072,156.201 320.5,156.5C 321.568,157.434 322.901,157.768 324.5,157.5C 328.479,158.497 332.479,159.497 336.5,160.5C 337.833,160.833 339.167,161.167 340.5,161.5C 344.501,162.5 348.501,163.5 352.5,164.5C 353.209,165.404 354.209,165.737 355.5,165.5C 358.939,167.204 362.605,168.538 366.5,169.5C 367.671,170.345 369.005,171.011 370.5,171.5C 372.512,172.228 374.512,173.062 376.5,174C 369.952,179.389 363.285,184.555 356.5,189.5C 358.491,191.164 360.491,192.831 362.5,194.5C 363.5,195.167 364.5,195.833 365.5,196.5C 368.167,198.5 370.833,200.5 373.5,202.5C 374.29,203.401 375.29,204.068 376.5,204.5C 377.261,205.391 378.261,206.058 379.5,206.5C 387.579,200.71 395.746,195.043 404,189.5C 404.383,190.056 404.883,190.389 405.5,190.5C 406.167,191.833 407.167,192.833 408.5,193.5C 411.167,195.833 413.833,198.167 416.5,200.5C 416.833,201.5 417.5,202.167 418.5,202.5C 420.603,205.72 422.936,208.72 425.5,211.5C 425.557,212.609 425.89,213.609 426.5,214.5C 428.623,217.867 429.956,221.534 430.5,225.5C 431.234,226.708 431.567,228.041 431.5,229.5C 431.5,234.5 431.5,239.5 431.5,244.5C 431.5,246.167 431.5,247.833 431.5,249.5C 431.5,254.5 431.5,259.5 431.5,264.5C 431.5,266.167 431.5,267.833 431.5,269.5C 431.5,274.5 431.5,279.5 431.5,284.5C 430.833,284.5 430.5,284.833 430.5,285.5C 429.833,287.833 429.167,290.167 428.5,292.5C 422.739,304.103 414.573,313.769 404,321.5C 403.517,320.552 403.351,319.552 403.5,318.5C 403.5,316.833 403.5,315.167 403.5,313.5C 403.5,308.5 403.5,303.5 403.5,298.5C 403.5,296.833 403.5,295.167 403.5,293.5C 403.666,289.486 403.499,285.486 403,281.5C 402.617,280.944 402.117,280.611 401.5,280.5C 400.71,279.599 399.71,278.932 398.5,278.5C 395.68,276.255 392.68,274.255 389.5,272.5C 388.833,271.167 387.833,270.167 386.5,269.5C 383.943,267.968 381.443,266.301 379,264.5C 374.712,267.722 370.545,271.055 366.5,274.5C 362.544,276.485 358.878,278.985 355.5,282C 356.527,282.513 357.527,283.013 358.5,283.5C 360.86,285.853 363.527,287.853 366.5,289.5C 366.973,290.906 367.973,291.573 369.5,291.5C 370.976,293.5 372.809,295.167 375,296.5C 375.49,297.793 375.657,299.127 375.5,300.5C 375.5,302.167 375.5,303.833 375.5,305.5C 375.5,310.5 375.5,315.5 375.5,320.5C 375.5,322.167 375.5,323.833 375.5,325.5C 375.666,329.514 375.499,333.514 375,337.5C 368.609,340.463 362.109,343.13 355.5,345.5C 353.035,345.767 350.701,346.434 348.5,347.5C 341.833,349.167 335.167,350.833 328.5,352.5C 326.5,352.833 324.5,353.167 322.5,353.5C 316.572,354.871 310.572,355.871 304.5,356.5C 302.5,356.833 300.5,357.167 298.5,357.5C 293.195,358.194 287.862,358.528 282.5,358.5C 280.883,359.038 279.216,359.371 277.5,359.5C 277.5,354.5 277.5,349.5 277.5,344.5C 277.5,342.833 277.5,341.167 277.5,339.5C 277.5,334.5 277.5,329.5 277.5,324.5C 277.5,322.833 277.5,321.167 277.5,319.5C 277.5,314.5 277.5,309.5 277.5,304.5C 276.817,302.824 275.483,302.157 273.5,302.5C 268.5,302.5 263.5,302.5 258.5,302.5C 256.833,302.5 255.167,302.5 253.5,302.5C 248.5,302.5 243.5,302.5 238.5,302.5C 237.167,302.5 235.833,302.5 234.5,302.5C 234.5,303.833 234.5,305.167 234.5,306.5C 234.5,311.5 234.5,316.5 234.5,321.5C 234.5,323.167 234.5,324.833 234.5,326.5C 234.5,331.5 234.5,336.5 234.5,341.5C 234.5,343.167 234.5,344.833 234.5,346.5C 234.5,350.833 234.5,355.167 234.5,359.5C 230.534,358.838 226.534,358.505 222.5,358.5C 221.167,358.5 219.833,358.5 218.5,358.5C 214.02,357.479 209.353,356.813 204.5,356.5C 203.167,356.167 201.833,355.833 200.5,355.5C 196.147,354.941 191.814,354.275 187.5,353.5C 186.167,353.167 184.833,352.833 183.5,352.5C 179.4,351.808 175.4,350.808 171.5,349.5C 170.041,349.567 168.708,349.234 167.5,348.5C 163.499,347.5 159.499,346.5 155.5,345.5C 154.791,344.596 153.791,344.263 152.5,344.5C 149.061,342.796 145.395,341.462 141.5,340.5C 140.486,339.326 139.153,338.66 137.5,338.5C 136.883,338.389 136.383,338.056 136,337.5C 135.501,333.848 135.335,330.182 135.5,326.5C 135.5,324.833 135.5,323.167 135.5,321.5C 135.5,316.5 135.5,311.5 135.5,306.5C 135.5,304.833 135.5,303.167 135.5,301.5C 135.34,299.801 135.506,298.134 136,296.5C 142.336,291.659 148.503,286.659 154.5,281.5C 152.098,279.091 149.431,277.091 146.5,275.5C 145.71,274.599 144.71,273.932 143.5,273.5C 140.72,270.936 137.72,268.603 134.5,266.5C 133.295,264.862 131.962,264.529 130.5,265.5C 129.833,265.5 129.5,265.833 129.5,266.5C 128.833,266.5 128.5,266.833 128.5,267.5C 127.833,267.5 127.5,267.833 127.5,268.5C 121.067,272.418 114.733,276.585 108.5,281C 107.565,283.381 107.232,285.881 107.5,288.5C 107.5,290.167 107.5,291.833 107.5,293.5C 107.5,298.5 107.5,303.5 107.5,308.5C 107.5,310.167 107.5,311.833 107.5,313.5C 107.664,316.187 107.497,318.854 107,321.5C 105.961,320.29 104.794,319.29 103.5,318.5C 102.71,317.599 101.71,316.932 100.5,316.5C 98.1667,313.5 95.5,310.833 92.5,308.5C 92.1667,307.5 91.5,306.833 90.5,306.5C 88.7451,303.32 86.7451,300.32 84.5,297.5C 84.3404,295.847 83.6737,294.514 82.5,293.5C 81.3443,289.877 80.3443,286.211 79.5,282.5C 79.5,280.833 79.5,279.167 79.5,277.5C 79.5,272.5 79.5,267.5 79.5,262.5C 79.5,260.833 79.5,259.167 79.5,257.5C 79.5,252.5 79.5,247.5 79.5,242.5C 79.5,240.833 79.5,239.167 79.5,237.5C 79.2087,231.697 79.8754,226.031 81.5,220.5C 83.1799,217.14 84.8466,213.807 86.5,210.5C 92.5,202.5 99.5,195.5 107.5,189.5C 108.391,190.11 109.391,190.443 110.5,190.5C 113.19,193.185 116.19,195.518 119.5,197.5C 120.29,198.401 121.29,199.068 122.5,199.5C 124.86,201.853 127.527,203.853 130.5,205.5C 131.251,206.573 132.251,206.74 133.5,206C 137.043,202.951 140.709,200.118 144.5,197.5C 145.167,197.5 145.5,197.167 145.5,196.5C 146.167,196.5 146.5,196.167 146.5,195.5C 147.167,195.5 147.5,195.167 147.5,194.5C 149.595,193.588 151.595,192.421 153.5,191C 154.774,190.023 154.774,189.189 153.5,188.5C 153.027,187.094 152.027,186.427 150.5,186.5C 147.81,183.815 144.81,181.482 141.5,179.5C 141.027,178.094 140.027,177.427 138.5,177.5C 137.71,176.206 136.71,175.039 135.5,174C 140.042,171.562 144.709,169.396 149.5,167.5C 151.965,167.233 154.299,166.566 156.5,165.5C 163.471,163.341 170.471,161.341 177.5,159.5C 179.5,159.167 181.5,158.833 183.5,158.5C 189.879,157.271 196.212,155.938 202.5,154.5C 204.167,154.5 205.833,154.5 207.5,154.5C 213.116,153.543 218.783,152.876 224.5,152.5C 226.167,152.5 227.833,152.5 229.5,152.5C 230.167,152.5 230.5,152.167 230.5,151.5 Z M 277.5,164.5 C 277.5,165.833 276.833,166.5 275.5,166.5C 275.833,165.5 276.5,164.833 277.5,164.5 Z M 257.5,178.5 C 254.833,181.5 252.167,184.5 249.5,187.5C 244.5,187.5 239.5,187.5 234.5,187.5C 237.167,184.5 239.833,181.5 242.5,178.5C 247.651,178.308 252.651,178.308 257.5,178.5 Z M 237.5,178.5 C 234.5,181.833 231.5,185.167 228.5,188.5C 222.546,189.715 216.546,190.715 210.5,191.5C 213.833,187.833 217.167,184.167 220.5,180.5C 226.167,179.833 231.833,179.167 237.5,178.5 Z M 262.5,178.5 C 267.695,178.179 272.695,178.513 277.5,179.5C 274.5,181.833 271.833,184.5 269.5,187.5C 264.737,187.774 260.07,187.441 255.5,186.5C 257.833,183.833 260.167,181.167 262.5,178.5 Z M 281.5,179.5 C 285.928,179.799 290.261,180.465 294.5,181.5C 292.167,184.167 289.833,186.833 287.5,189.5C 283.146,188.914 278.812,188.248 274.5,187.5C 276.833,184.833 279.167,182.167 281.5,179.5 Z M 214.5,181.5 C 210.833,185.5 207.167,189.5 203.5,193.5C 194.819,196.058 186.486,199.392 178.5,203.5C 183.833,197.833 189.167,192.167 194.5,186.5C 200.987,184.212 207.654,182.545 214.5,181.5 Z M 299.5,182.5 C 303.557,182.848 307.557,183.514 311.5,184.5C 309.167,187.167 306.833,189.833 304.5,192.5C 300.193,191.673 295.86,191.007 291.5,190.5C 293.833,187.5 296.5,184.833 299.5,182.5 Z M 315.5,185.5 C 319.379,186.458 323.045,187.791 326.5,189.5C 324.167,192.167 321.833,194.833 319.5,197.5C 315.605,196.538 311.939,195.204 308.5,193.5C 310.833,190.833 313.167,188.167 315.5,185.5 Z M 187.5,188.5 C 170.167,206.167 152.833,223.833 135.5,241.5C 133.849,235.347 134.515,229.347 137.5,223.5C 145.5,216.167 153.167,208.5 160.5,200.5C 168.856,195.158 177.856,191.158 187.5,188.5 Z M 330.5,190.5 C 334.35,191.928 338.017,193.594 341.5,195.5C 338.5,198.167 335.5,200.833 332.5,203.5C 329.123,201.825 325.789,200.158 322.5,198.5C 325.5,196.167 328.167,193.5 330.5,190.5 Z M 344.5,196.5 C 347.709,198.265 350.709,200.265 353.5,202.5C 350.833,205.833 347.833,208.833 344.5,211.5C 341.527,209.853 338.86,207.853 336.5,205.5C 339.167,202.5 341.833,199.5 344.5,196.5 Z M 356.5,204.5 C 359.784,206.117 362.451,208.45 364.5,211.5C 361.167,215.5 357.5,219.167 353.5,222.5C 351.885,219.55 349.885,216.884 347.5,214.5C 350.5,211.167 353.5,207.833 356.5,204.5 Z M 367.5,214.5 C 370.241,216.975 372.241,219.975 373.5,223.5C 367.833,228.833 362.167,234.167 356.5,239.5C 356.706,235.102 356.373,230.768 355.5,226.5C 359.167,222.167 363.167,218.167 367.5,214.5 Z M 155.5,226.5 C 154.6,231.772 154.267,237.105 154.5,242.5C 150.167,246.5 145.833,250.5 141.5,254.5C 139.076,251.992 137.41,248.992 136.5,245.5C 142.5,238.833 148.833,232.5 155.5,226.5 Z M 374.5,226.5 C 375.268,227.263 375.768,228.263 376,229.5C 376.499,233.152 376.665,236.818 376.5,240.5C 364.167,252.167 352.167,264.167 340.5,276.5C 332.815,280.285 324.815,283.285 316.5,285.5C 322.167,279.5 327.833,273.5 333.5,267.5C 342.64,261.938 349.973,254.605 355.5,245.5C 362.167,239.5 368.5,233.167 374.5,226.5 Z M 155.5,245.5 C 157.239,248.635 159.239,251.635 161.5,254.5C 158.5,258.167 155.167,261.5 151.5,264.5C 148.216,262.883 145.549,260.55 143.5,257.5C 147.833,253.833 151.833,249.833 155.5,245.5 Z M 372.5,249.5 C 368.167,258.5 361.5,265.167 352.5,269.5C 358.833,262.5 365.5,255.833 372.5,249.5 Z M 164.5,257.5 C 167.192,259.862 169.859,262.196 172.5,264.5C 169.5,267.167 166.5,269.833 163.5,272.5C 160.262,271.262 157.262,269.596 154.5,267.5C 157.5,263.833 160.833,260.5 164.5,257.5 Z M 386.5,269.5 C 380.167,276.5 373.5,283.167 366.5,289.5C 363.527,287.853 360.86,285.853 358.5,283.5C 361.167,280.5 363.833,277.5 366.5,274.5C 370.545,271.055 374.712,267.722 379,264.5C 381.443,266.301 383.943,267.968 386.5,269.5 Z M 134.5,266.5 C 137.72,268.603 140.72,270.936 143.5,273.5C 131.5,285.167 119.5,296.833 107.5,308.5C 107.5,303.5 107.5,298.5 107.5,293.5C 116.833,284.833 125.833,275.833 134.5,266.5 Z M 175.5,266.5 C 179.151,267.659 182.485,269.326 185.5,271.5C 182.5,273.833 179.833,276.5 177.5,279.5C 173.849,278.341 170.515,276.674 167.5,274.5C 169.833,271.5 172.5,268.833 175.5,266.5 Z M 127.5,268.5 C 121.167,275.5 114.5,282.167 107.5,288.5C 107.232,285.881 107.565,283.381 108.5,281C 114.733,276.585 121.067,272.418 127.5,268.5 Z M 188.5,272.5 C 192.167,273.833 195.833,275.167 199.5,276.5C 197.167,279.167 194.833,281.833 192.5,284.5C 188.216,283.739 184.216,282.405 180.5,280.5C 183.5,278.167 186.167,275.5 188.5,272.5 Z M 323.5,272.5 C 318.833,277.5 314.167,282.5 309.5,287.5C 303.545,288.758 297.545,289.758 291.5,290.5C 294.833,286.833 298.167,283.167 301.5,279.5C 308.818,277.172 316.151,274.839 323.5,272.5 Z M 389.5,272.5 C 392.68,274.255 395.68,276.255 398.5,278.5C 390.833,285.833 383.167,293.167 375.5,300.5C 375.657,299.127 375.49,297.793 375,296.5C 372.809,295.167 370.976,293.5 369.5,291.5C 376.167,285.167 382.833,278.833 389.5,272.5 Z M 203.5,277.5 C 207.4,278.808 211.4,279.808 215.5,280.5C 213.167,283.167 210.833,285.833 208.5,288.5C 204.239,288.102 200.239,287.102 196.5,285.5C 198.833,282.833 201.167,280.167 203.5,277.5 Z M 295.5,280.5 C 292.167,284.167 288.833,287.833 285.5,291.5C 280.213,292.342 274.88,292.676 269.5,292.5C 272.167,289.5 274.833,286.5 277.5,283.5C 283.526,282.663 289.526,281.663 295.5,280.5 Z M 401.5,280.5 C 402.117,280.611 402.617,280.944 403,281.5C 403.499,285.486 403.666,289.486 403.5,293.5C 394.167,302.5 384.833,311.5 375.5,320.5C 375.5,315.5 375.5,310.5 375.5,305.5C 384.167,297.167 392.833,288.833 401.5,280.5 Z M 219.5,281.5 C 223.873,281.982 228.206,282.648 232.5,283.5C 230.167,286.167 227.833,288.833 225.5,291.5C 221.124,291.091 216.79,290.425 212.5,289.5C 214.833,286.833 217.167,284.167 219.5,281.5 Z M 237.5,283.5 C 242.141,284.127 246.807,284.46 251.5,284.5C 248.833,287.5 246.167,290.5 243.5,293.5C 238.897,292.617 234.23,292.283 229.5,292.5C 232.167,289.5 234.833,286.5 237.5,283.5 Z M 272.5,283.5 C 269.5,286.833 266.5,290.167 263.5,293.5C 258.5,293.5 253.5,293.5 248.5,293.5C 251.167,290.5 253.833,287.5 256.5,284.5C 261.87,284.608 267.203,284.275 272.5,283.5 Z M 238.5,302.5 C 243.5,302.5 248.5,302.5 253.5,302.5C 247.5,309.167 241.167,315.5 234.5,321.5C 234.5,316.5 234.5,311.5 234.5,306.5C 236.167,305.5 237.5,304.167 238.5,302.5 Z M 258.5,302.5 C 263.5,302.5 268.5,302.5 273.5,302.5C 260.833,315.833 247.833,328.833 234.5,341.5C 234.5,336.5 234.5,331.5 234.5,326.5C 242.833,318.833 250.833,310.833 258.5,302.5 Z"/></g>
<g><path style="opacity:0.022" fill="#43443f" d="M 277.5,159.5 C 277.5,161.167 277.5,162.833 277.5,164.5C 276.5,164.833 275.833,165.5 275.5,166.5C 273.833,166.5 272.167,166.5 270.5,166.5C 272.5,163.833 274.833,161.5 277.5,159.5 Z"/></g>
<g><path style="opacity:0.022" fill="#43443f" d="M 511.5,165.5 C 511.5,167.167 511.5,168.833 511.5,170.5C 484.833,196.833 458.167,223.167 431.5,249.5C 431.5,247.833 431.5,246.167 431.5,244.5C 458.167,218.167 484.833,191.833 511.5,165.5 Z"/></g>
<g><path style="opacity:0.022" fill="#43443f" d="M 138.5,177.5 C 140.027,177.427 141.027,178.094 141.5,179.5C 135.167,186.167 128.833,192.833 122.5,199.5C 121.29,199.068 120.29,198.401 119.5,197.5C 125.833,190.833 132.167,184.167 138.5,177.5 Z"/></g>
<g><path style="opacity:0.022" fill="#43443f" d="M 237.5,178.5 C 239.167,178.5 240.833,178.5 242.5,178.5C 239.833,181.5 237.167,184.5 234.5,187.5C 233.833,187.5 233.5,187.833 233.5,188.5C 231.833,188.5 230.167,188.5 228.5,188.5C 231.5,185.167 234.5,181.833 237.5,178.5 Z"/></g>
<g><path style="opacity:0.022" fill="#43443f" d="M 257.5,178.5 C 259.167,178.5 260.833,178.5 262.5,178.5C 260.167,181.167 257.833,183.833 255.5,186.5C 253.621,187.341 251.621,187.675 249.5,187.5C 252.167,184.5 254.833,181.5 257.5,178.5 Z"/></g>
<g><path style="opacity:0.022" fill="#43443f" d="M 277.5,179.5 C 278.833,179.5 280.167,179.5 281.5,179.5C 279.167,182.167 276.833,184.833 274.5,187.5C 272.833,187.5 271.167,187.5 269.5,187.5C 271.833,184.5 274.5,181.833 277.5,179.5 Z"/></g>
<g><path style="opacity:0.022" fill="#43433f" d="M 220.5,180.5 C 217.167,184.167 213.833,187.833 210.5,191.5C 209.833,191.5 209.5,191.833 209.5,192.5C 207.5,192.833 205.5,193.167 203.5,193.5C 207.167,189.5 210.833,185.5 214.5,181.5C 216.435,180.85 218.435,180.517 220.5,180.5 Z"/></g>
<g><path style="opacity:0.022" fill="#43443f" d="M 294.5,181.5 C 296.415,181.216 298.081,181.549 299.5,182.5C 296.5,184.833 293.833,187.5 291.5,190.5C 290.292,189.766 288.959,189.433 287.5,189.5C 289.833,186.833 292.167,184.167 294.5,181.5 Z"/></g>
<g><path style="opacity:0.022" fill="#43443f" d="M 311.5,184.5 C 312.833,184.833 314.167,185.167 315.5,185.5C 313.167,188.167 310.833,190.833 308.5,193.5C 306.901,193.768 305.568,193.434 304.5,192.5C 306.833,189.833 309.167,187.167 311.5,184.5 Z"/></g>
<g><path style="opacity:0.022" fill="#43443f" d="M 511.5,185.5 C 511.5,187.167 511.5,188.833 511.5,190.5C 484.833,216.833 458.167,243.167 431.5,269.5C 431.5,267.833 431.5,266.167 431.5,264.5C 458.167,238.167 484.833,211.833 511.5,185.5 Z"/></g>
<g><path style="opacity:0.022" fill="#43433f" d="M 150.5,186.5 C 152.027,186.427 153.027,187.094 153.5,188.5C 151.167,190.167 149.167,192.167 147.5,194.5C 146.833,194.5 146.5,194.833 146.5,195.5C 145.833,195.5 145.5,195.833 145.5,196.5C 144.833,196.5 144.5,196.833 144.5,197.5C 140.709,200.118 137.043,202.951 133.5,206C 132.251,206.74 131.251,206.573 130.5,205.5C 137.167,199.167 143.833,192.833 150.5,186.5 Z"/></g>
<g><path style="opacity:0.022" fill="#43433f" d="M 194.5,186.5 C 189.167,192.167 183.833,197.833 178.5,203.5C 177.833,203.5 177.5,203.833 177.5,204.5C 167.833,209.5 160.5,216.833 155.5,226.5C 148.833,232.5 142.5,238.833 136.5,245.5C 135.566,244.432 135.232,243.099 135.5,241.5C 152.833,223.833 170.167,206.167 187.5,188.5C 188.167,188.5 188.5,188.167 188.5,187.5C 190.435,186.85 192.435,186.517 194.5,186.5 Z"/></g>
<g><path style="opacity:0.985" fill="#000000" d="M 255.5,186.5 C 260.07,187.441 264.737,187.774 269.5,187.5C 271.167,187.5 272.833,187.5 274.5,187.5C 278.812,188.248 283.146,188.914 287.5,189.5C 288.959,189.433 290.292,189.766 291.5,190.5C 295.86,191.007 300.193,191.673 304.5,192.5C 305.568,193.434 306.901,193.768 308.5,193.5C 311.939,195.204 315.605,196.538 319.5,197.5C 320.209,198.404 321.209,198.737 322.5,198.5C 325.789,200.158 329.123,201.825 332.5,203.5C 333.514,204.674 334.847,205.34 336.5,205.5C 338.86,207.853 341.527,209.853 344.5,211.5C 345.167,212.833 346.167,213.833 347.5,214.5C 349.885,216.884 351.885,219.55 353.5,222.5C 353.989,223.995 354.655,225.329 355.5,226.5C 356.373,230.768 356.706,235.102 356.5,239.5C 356.167,241.5 355.833,243.5 355.5,245.5C 349.973,254.605 342.64,261.938 333.5,267.5C 330.378,268.561 327.378,269.895 324.5,271.5C 323.833,271.5 323.5,271.833 323.5,272.5C 316.151,274.839 308.818,277.172 301.5,279.5C 299.435,279.517 297.435,279.85 295.5,280.5C 289.526,281.663 283.526,282.663 277.5,283.5C 275.833,283.5 274.167,283.5 272.5,283.5C 267.203,284.275 261.87,284.608 256.5,284.5C 254.833,284.5 253.167,284.5 251.5,284.5C 246.807,284.46 242.141,284.127 237.5,283.5C 235.833,283.5 234.167,283.5 232.5,283.5C 228.206,282.648 223.873,281.982 219.5,281.5C 218.292,280.766 216.959,280.433 215.5,280.5C 211.4,279.808 207.4,278.808 203.5,277.5C 202.167,277.167 200.833,276.833 199.5,276.5C 195.833,275.167 192.167,273.833 188.5,272.5C 187.609,271.89 186.609,271.557 185.5,271.5C 182.485,269.326 179.151,267.659 175.5,266.5C 175.027,265.094 174.027,264.427 172.5,264.5C 169.859,262.196 167.192,259.862 164.5,257.5C 163.833,256.167 162.833,255.167 161.5,254.5C 159.239,251.635 157.239,248.635 155.5,245.5C 155.737,244.209 155.404,243.209 154.5,242.5C 154.267,237.105 154.6,231.772 155.5,226.5C 160.5,216.833 167.833,209.5 177.5,204.5C 178.167,204.5 178.5,204.167 178.5,203.5C 186.486,199.392 194.819,196.058 203.5,193.5C 205.5,193.167 207.5,192.833 209.5,192.5C 210.167,192.5 210.5,192.167 210.5,191.5C 216.546,190.715 222.546,189.715 228.5,188.5C 230.167,188.5 231.833,188.5 233.5,188.5C 234.167,188.5 234.5,188.167 234.5,187.5C 239.5,187.5 244.5,187.5 249.5,187.5C 251.621,187.675 253.621,187.341 255.5,186.5 Z"/></g>
<g><path style="opacity:0.022" fill="#43433f" d="M 326.5,189.5 C 327.959,189.433 329.292,189.766 330.5,190.5C 328.167,193.5 325.5,196.167 322.5,198.5C 321.209,198.737 320.209,198.404 319.5,197.5C 321.833,194.833 324.167,192.167 326.5,189.5 Z"/></g>
<g><path style="opacity:0.022" fill="#43443f" d="M 341.5,195.5 C 342.609,195.557 343.609,195.89 344.5,196.5C 341.833,199.5 339.167,202.5 336.5,205.5C 334.847,205.34 333.514,204.674 332.5,203.5C 335.5,200.833 338.5,198.167 341.5,195.5 Z"/></g>
<g><path style="opacity:0.022" fill="#43433f" d="M 160.5,200.5 C 153.167,208.5 145.5,216.167 137.5,223.5C 142.833,213.5 150.5,205.833 160.5,200.5 Z"/></g>
<g><path style="opacity:0.022" fill="#43443f" d="M 353.5,202.5 C 355.027,202.427 356.027,203.094 356.5,204.5C 353.5,207.833 350.5,211.167 347.5,214.5C 346.167,213.833 345.167,212.833 344.5,211.5C 347.833,208.833 350.833,205.833 353.5,202.5 Z"/></g>
<g><path style="opacity:0.022" fill="#43433f" d="M 511.5,205.5 C 511.5,207.167 511.5,208.833 511.5,210.5C 483.833,237.833 456.167,265.167 428.5,292.5C 429.167,290.167 429.833,287.833 430.5,285.5C 431.167,285.5 431.5,285.167 431.5,284.5C 458.167,258.167 484.833,231.833 511.5,205.5 Z"/></g>
<g><path style="opacity:0.022" fill="#43433f" d="M 86.5,210.5 C 84.8466,213.807 83.1799,217.14 81.5,220.5C 54.1667,247.5 26.8333,274.5 -0.5,301.5C -0.5,299.833 -0.5,298.167 -0.5,296.5C 28.5,267.833 57.5,239.167 86.5,210.5 Z"/></g>
<g><path style="opacity:0.022" fill="#43433f" d="M 364.5,211.5 C 365.833,212.167 366.833,213.167 367.5,214.5C 363.167,218.167 359.167,222.167 355.5,226.5C 354.655,225.329 353.989,223.995 353.5,222.5C 357.5,219.167 361.167,215.5 364.5,211.5 Z"/></g>
<g><path style="opacity:0.022" fill="#43443f" d="M 373.5,223.5 C 374.404,224.209 374.737,225.209 374.5,226.5C 368.5,233.167 362.167,239.5 355.5,245.5C 355.833,243.5 356.167,241.5 356.5,239.5C 362.167,234.167 367.833,228.833 373.5,223.5 Z"/></g>
<g><path style="opacity:0.022" fill="#43443f" d="M 511.5,225.5 C 511.5,227.167 511.5,228.833 511.5,230.5C 417.5,323.833 323.833,417.5 230.5,511.5C 228.833,511.5 227.167,511.5 225.5,511.5C 320.5,415.833 415.833,320.5 511.5,225.5 Z"/></g>
<g><path style="opacity:0.022" fill="#43443f" d="M 79.5,237.5 C 79.5,239.167 79.5,240.833 79.5,242.5C 52.8333,268.833 26.1667,295.167 -0.5,321.5C -0.5,319.833 -0.5,318.167 -0.5,316.5C 26.1667,290.167 52.8333,263.833 79.5,237.5 Z"/></g>
<g><path style="opacity:0.022" fill="#43433f" d="M 376.5,240.5 C 375.892,243.327 374.892,245.993 373.5,248.5C 372.833,248.5 372.5,248.833 372.5,249.5C 365.5,255.833 358.833,262.5 352.5,269.5C 351.833,269.5 351.5,269.833 351.5,270.5C 350.833,270.5 350.5,270.833 350.5,271.5C 347.45,273.692 344.117,275.358 340.5,276.5C 352.167,264.167 364.167,252.167 376.5,240.5 Z"/></g>
<g><path style="opacity:0.022" fill="#43433f" d="M 154.5,242.5 C 155.404,243.209 155.737,244.209 155.5,245.5C 151.833,249.833 147.833,253.833 143.5,257.5C 142.599,256.71 141.932,255.71 141.5,254.5C 145.833,250.5 150.167,246.5 154.5,242.5 Z"/></g>
<g><path style="opacity:0.022" fill="#43443f" d="M 511.5,245.5 C 511.5,247.167 511.5,248.833 511.5,250.5C 424.167,337.167 337.167,424.167 250.5,511.5C 248.833,511.5 247.167,511.5 245.5,511.5C 333.833,422.5 422.5,333.833 511.5,245.5 Z"/></g>
<g><path style="opacity:0.022" fill="#43433f" d="M 161.5,254.5 C 162.833,255.167 163.833,256.167 164.5,257.5C 160.833,260.5 157.5,263.833 154.5,267.5C 153.167,266.833 152.167,265.833 151.5,264.5C 155.167,261.5 158.5,258.167 161.5,254.5 Z"/></g>
<g><path style="opacity:0.022" fill="#43443f" d="M 79.5,257.5 C 79.5,259.167 79.5,260.833 79.5,262.5C 52.8333,288.833 26.1667,315.167 -0.5,341.5C -0.5,339.833 -0.5,338.167 -0.5,336.5C 26.1667,310.167 52.8333,283.833 79.5,257.5 Z"/></g>
<g><path style="opacity:0.022" fill="#43443f" d="M 134.5,266.5 C 125.833,275.833 116.833,284.833 107.5,293.5C 107.5,291.833 107.5,290.167 107.5,288.5C 114.5,282.167 121.167,275.5 127.5,268.5C 128.167,268.5 128.5,268.167 128.5,267.5C 129.167,267.5 129.5,267.167 129.5,266.5C 130.167,266.5 130.5,266.167 130.5,265.5C 131.962,264.529 133.295,264.862 134.5,266.5 Z"/></g>
<g><path style="opacity:0.022" fill="#43443f" d="M 172.5,264.5 C 174.027,264.427 175.027,265.094 175.5,266.5C 172.5,268.833 169.833,271.5 167.5,274.5C 165.847,274.34 164.514,273.674 163.5,272.5C 166.5,269.833 169.5,267.167 172.5,264.5 Z"/></g>
<g><path style="opacity:0.022" fill="#43443f" d="M 511.5,265.5 C 511.5,267.167 511.5,268.833 511.5,270.5C 430.833,350.5 350.5,430.833 270.5,511.5C 268.833,511.5 267.167,511.5 265.5,511.5C 347.167,429.167 429.167,347.167 511.5,265.5 Z"/></g>
<g><path style="opacity:0.022" fill="#43433f" d="M 333.5,267.5 C 327.833,273.5 322.167,279.5 316.5,285.5C 314.167,286.167 311.833,286.833 309.5,287.5C 314.167,282.5 318.833,277.5 323.5,272.5C 324.167,272.5 324.5,272.167 324.5,271.5C 327.378,269.895 330.378,268.561 333.5,267.5 Z"/></g>
<g><path style="opacity:0.022" fill="#43433f" d="M 386.5,269.5 C 387.833,270.167 388.833,271.167 389.5,272.5C 382.833,278.833 376.167,285.167 369.5,291.5C 367.973,291.573 366.973,290.906 366.5,289.5C 373.5,283.167 380.167,276.5 386.5,269.5 Z"/></g>
<g><path style="opacity:0.022" fill="#43433f" d="M 185.5,271.5 C 186.609,271.557 187.609,271.89 188.5,272.5C 186.167,275.5 183.5,278.167 180.5,280.5C 179.209,280.737 178.209,280.404 177.5,279.5C 179.833,276.5 182.5,273.833 185.5,271.5 Z"/></g>
<g><path style="opacity:0.022" fill="#43443f" d="M 143.5,273.5 C 144.71,273.932 145.71,274.599 146.5,275.5C 133.5,288.167 120.5,300.833 107.5,313.5C 107.5,311.833 107.5,310.167 107.5,308.5C 119.5,296.833 131.5,285.167 143.5,273.5 Z"/></g>
<g><path style="opacity:0.022" fill="#41413d" d="M 366.5,274.5 C 363.833,277.5 361.167,280.5 358.5,283.5C 357.527,283.013 356.527,282.513 355.5,282C 358.878,278.985 362.544,276.485 366.5,274.5 Z"/></g>
<g><path style="opacity:0.022" fill="#43443f" d="M 199.5,276.5 C 200.833,276.833 202.167,277.167 203.5,277.5C 201.167,280.167 198.833,282.833 196.5,285.5C 194.901,285.768 193.568,285.434 192.5,284.5C 194.833,281.833 197.167,279.167 199.5,276.5 Z"/></g>
<g><path style="opacity:0.022" fill="#43443f" d="M 79.5,277.5 C 79.5,279.167 79.5,280.833 79.5,282.5C 52.8333,308.833 26.1667,335.167 -0.5,361.5C -0.5,359.833 -0.5,358.167 -0.5,356.5C 26.1667,330.167 52.8333,303.833 79.5,277.5 Z"/></g>
<g><path style="opacity:0.022" fill="#43433f" d="M 398.5,278.5 C 399.71,278.932 400.71,279.599 401.5,280.5C 392.833,288.833 384.167,297.167 375.5,305.5C 375.5,303.833 375.5,302.167 375.5,300.5C 383.167,293.167 390.833,285.833 398.5,278.5 Z"/></g>
<g><path style="opacity:0.022" fill="#43433f" d="M 301.5,279.5 C 298.167,283.167 294.833,286.833 291.5,290.5C 289.621,291.341 287.621,291.675 285.5,291.5C 288.833,287.833 292.167,284.167 295.5,280.5C 297.435,279.85 299.435,279.517 301.5,279.5 Z"/></g>
<g><path style="opacity:0.022" fill="#42423e" d="M 215.5,280.5 C 216.959,280.433 218.292,280.766 219.5,281.5C 217.167,284.167 214.833,286.833 212.5,289.5C 210.901,289.768 209.568,289.434 208.5,288.5C 210.833,285.833 213.167,283.167 215.5,280.5 Z"/></g>
<g><path style="opacity:0.022" fill="#43443f" d="M 232.5,283.5 C 234.167,283.5 235.833,283.5 237.5,283.5C 234.833,286.5 232.167,289.5 229.5,292.5C 228.292,291.766 226.959,291.433 225.5,291.5C 227.833,288.833 230.167,286.167 232.5,283.5 Z"/></g>
<g><path style="opacity:0.022" fill="#43443f" d="M 272.5,283.5 C 274.167,283.5 275.833,283.5 277.5,283.5C 274.833,286.5 272.167,289.5 269.5,292.5C 268.833,292.5 268.5,292.833 268.5,293.5C 266.833,293.5 265.167,293.5 263.5,293.5C 266.5,290.167 269.5,286.833 272.5,283.5 Z"/></g>
<g><path style="opacity:0.022" fill="#43443f" d="M 251.5,284.5 C 253.167,284.5 254.833,284.5 256.5,284.5C 253.833,287.5 251.167,290.5 248.5,293.5C 246.833,293.5 245.167,293.5 243.5,293.5C 246.167,290.5 248.833,287.5 251.5,284.5 Z"/></g>
<g><path style="opacity:0.022" fill="#43443f" d="M 511.5,285.5 C 511.5,287.167 511.5,288.833 511.5,290.5C 437.5,363.833 363.833,437.5 290.5,511.5C 288.833,511.5 287.167,511.5 285.5,511.5C 360.5,435.833 435.833,360.5 511.5,285.5 Z"/></g>
<g><path style="opacity:0.022" fill="#43443f" d="M 82.5,293.5 C 83.6737,294.514 84.3404,295.847 84.5,297.5C 56.1667,325.5 27.8333,353.5 -0.5,381.5C -0.5,379.833 -0.5,378.167 -0.5,376.5C 27.5,349.167 55.1667,321.5 82.5,293.5 Z"/></g>
<g><path style="opacity:0.022" fill="#43443f" d="M 403.5,293.5 C 403.5,295.167 403.5,296.833 403.5,298.5C 394.167,307.5 384.833,316.5 375.5,325.5C 375.5,323.833 375.5,322.167 375.5,320.5C 384.833,311.5 394.167,302.5 403.5,293.5 Z"/></g>
<g><path style="opacity:0.022" fill="#43443f" d="M 135.5,301.5 C 135.5,303.167 135.5,304.833 135.5,306.5C 90.1667,351.5 44.8333,396.5 -0.5,441.5C -0.5,439.833 -0.5,438.167 -0.5,436.5C 44.8333,391.5 90.1667,346.5 135.5,301.5 Z"/></g>
<g><path style="opacity:0.022" fill="#43443f" d="M 238.5,302.5 C 237.5,304.167 236.167,305.5 234.5,306.5C 234.5,305.167 234.5,303.833 234.5,302.5C 235.833,302.5 237.167,302.5 238.5,302.5 Z"/></g>
<g><path style="opacity:0.022" fill="#43443f" d="M 253.5,302.5 C 255.167,302.5 256.833,302.5 258.5,302.5C 250.833,310.833 242.833,318.833 234.5,326.5C 234.5,324.833 234.5,323.167 234.5,321.5C 241.167,315.5 247.5,309.167 253.5,302.5 Z"/></g>
<g><path style="opacity:0.022" fill="#43443f" d="M 273.5,302.5 C 275.483,302.157 276.817,302.824 277.5,304.5C 263.167,318.5 248.833,332.5 234.5,346.5C 234.5,344.833 234.5,343.167 234.5,341.5C 247.833,328.833 260.833,315.833 273.5,302.5 Z"/></g>
<g><path style="opacity:0.022" fill="#43443f" d="M 511.5,305.5 C 511.5,307.167 511.5,308.833 511.5,310.5C 444.167,377.167 377.167,444.167 310.5,511.5C 308.833,511.5 307.167,511.5 305.5,511.5C 373.833,442.5 442.5,373.833 511.5,305.5 Z"/></g>
<g><path style="opacity:0.022" fill="#43443f" d="M 90.5,306.5 C 91.5,306.833 92.1667,307.5 92.5,308.5C 61.8333,339.833 30.8333,370.833 -0.5,401.5C -0.5,399.833 -0.5,398.167 -0.5,396.5C 29.8333,366.5 60.1667,336.5 90.5,306.5 Z"/></g>
<g><path style="opacity:0.022" fill="#43443f" d="M 403.5,313.5 C 403.5,315.167 403.5,316.833 403.5,318.5C 338.833,382.5 274.5,446.833 210.5,511.5C 208.833,511.5 207.167,511.5 205.5,511.5C 271.167,445.167 337.167,379.167 403.5,313.5 Z"/></g>
<g><path style="opacity:0.022" fill="#43433f" d="M 100.5,316.5 C 101.71,316.932 102.71,317.599 103.5,318.5C 68.8333,352.833 34.1667,387.167 -0.5,421.5C -0.5,419.833 -0.5,418.167 -0.5,416.5C 33.1667,383.167 66.8333,349.833 100.5,316.5 Z"/></g>
<g><path style="opacity:0.022" fill="#43443f" d="M 277.5,319.5 C 277.5,321.167 277.5,322.833 277.5,324.5C 214.833,386.5 152.5,448.833 90.5,511.5C 88.8333,511.5 87.1667,511.5 85.5,511.5C 149.167,447.167 213.167,383.167 277.5,319.5 Z"/></g>
<g><path style="opacity:0.022" fill="#43443f" d="M 135.5,321.5 C 135.5,323.167 135.5,324.833 135.5,326.5C 90.1667,371.5 44.8333,416.5 -0.5,461.5C -0.5,459.833 -0.5,458.167 -0.5,456.5C 44.8333,411.5 90.1667,366.5 135.5,321.5 Z"/></g>
<g><path style="opacity:0.022" fill="#43443f" d="M 511.5,325.5 C 511.5,327.167 511.5,328.833 511.5,330.5C 450.833,390.5 390.5,450.833 330.5,511.5C 328.833,511.5 327.167,511.5 325.5,511.5C 387.167,449.167 449.167,387.167 511.5,325.5 Z"/></g>
<g><path style="opacity:0.022" fill="#43443f" d="M 137.5,338.5 C 139.153,338.66 140.486,339.326 141.5,340.5C 94.1667,387.5 46.8333,434.5 -0.5,481.5C -0.5,479.833 -0.5,478.167 -0.5,476.5C 45.8333,430.833 91.8333,384.833 137.5,338.5 Z"/></g>
<g><path style="opacity:0.022" fill="#43443f" d="M 277.5,339.5 C 277.5,341.167 277.5,342.833 277.5,344.5C 221.5,399.833 165.833,455.5 110.5,511.5C 108.833,511.5 107.167,511.5 105.5,511.5C 162.5,453.833 219.833,396.5 277.5,339.5 Z"/></g>
<g><path style="opacity:0.022" fill="#43443f" d="M 152.5,344.5 C 153.791,344.263 154.791,344.596 155.5,345.5C 103.833,397.833 51.8333,449.833 -0.5,501.5C -0.5,499.833 -0.5,498.167 -0.5,496.5C 50.5,445.833 101.5,395.167 152.5,344.5 Z"/></g>
<g><path style="opacity:0.022" fill="#43443f" d="M 355.5,345.5 C 300.5,400.833 245.5,456.167 190.5,511.5C 188.833,511.5 187.167,511.5 185.5,511.5C 239.833,456.833 294.167,402.167 348.5,347.5C 350.701,346.434 353.035,345.767 355.5,345.5 Z"/></g>
<g><path style="opacity:0.022" fill="#43443f" d="M 511.5,345.5 C 511.5,347.167 511.5,348.833 511.5,350.5C 457.5,403.833 403.833,457.5 350.5,511.5C 348.833,511.5 347.167,511.5 345.5,511.5C 400.5,455.833 455.833,400.5 511.5,345.5 Z"/></g>
<g><path style="opacity:0.022" fill="#43443f" d="M 167.5,348.5 C 168.708,349.234 170.041,349.567 171.5,349.5C 117.833,403.5 64.1667,457.5 10.5,511.5C 8.83333,511.5 7.16667,511.5 5.5,511.5C 59.5,457.167 113.5,402.833 167.5,348.5 Z"/></g>
<g><path style="opacity:0.022" fill="#43443f" d="M 183.5,352.5 C 184.833,352.833 186.167,353.167 187.5,353.5C 135.167,406.167 82.8333,458.833 30.5,511.5C 28.8333,511.5 27.1667,511.5 25.5,511.5C 78.1667,458.5 130.833,405.5 183.5,352.5 Z"/></g>
<g><path style="opacity:0.022" fill="#43443f" d="M 328.5,352.5 C 275.833,405.5 223.167,458.5 170.5,511.5C 168.833,511.5 167.167,511.5 165.5,511.5C 217.833,458.833 270.167,406.167 322.5,353.5C 324.5,353.167 326.5,352.833 328.5,352.5 Z"/></g>
<g><path style="opacity:0.022" fill="#43443f" d="M 200.5,355.5 C 201.833,355.833 203.167,356.167 204.5,356.5C 153.167,408.167 101.833,459.833 50.5,511.5C 48.8333,511.5 47.1667,511.5 45.5,511.5C 97.1667,459.5 148.833,407.5 200.5,355.5 Z"/></g>
<g><path style="opacity:0.022" fill="#43443f" d="M 304.5,356.5 C 253.167,408.167 201.833,459.833 150.5,511.5C 148.833,511.5 147.167,511.5 145.5,511.5C 196.5,460.167 247.5,408.833 298.5,357.5C 300.5,357.167 302.5,356.833 304.5,356.5 Z"/></g>
<g><path style="opacity:0.022" fill="#43443f" d="M 218.5,358.5 C 219.833,358.5 221.167,358.5 222.5,358.5C 171.833,409.5 121.167,460.5 70.5,511.5C 68.8333,511.5 67.1667,511.5 65.5,511.5C 116.167,460.167 167.167,409.167 218.5,358.5 Z"/></g>
<g><path style="opacity:0.022" fill="#43433f" d="M 282.5,358.5 C 231.833,409.5 181.167,460.5 130.5,511.5C 128.833,511.5 127.167,511.5 125.5,511.5C 175.833,460.5 226.5,409.833 277.5,359.5C 279.216,359.371 280.883,359.038 282.5,358.5 Z"/></g>
<g><path style="opacity:0.022" fill="#43443f" d="M 511.5,365.5 C 511.5,367.167 511.5,368.833 511.5,370.5C 464.167,417.167 417.167,464.167 370.5,511.5C 368.833,511.5 367.167,511.5 365.5,511.5C 413.833,462.5 462.5,413.833 511.5,365.5 Z"/></g>
<g><path style="opacity:0.022" fill="#43443f" d="M 511.5,385.5 C 511.5,387.167 511.5,388.833 511.5,390.5C 470.833,430.5 430.5,470.833 390.5,511.5C 388.833,511.5 387.167,511.5 385.5,511.5C 427.167,469.167 469.167,427.167 511.5,385.5 Z"/></g>
<g><path style="opacity:0.022" fill="#43443f" d="M 511.5,405.5 C 511.5,407.167 511.5,408.833 511.5,410.5C 477.5,443.833 443.833,477.5 410.5,511.5C 408.833,511.5 407.167,511.5 405.5,511.5C 440.5,475.833 475.833,440.5 511.5,405.5 Z"/></g>
<g><path style="opacity:0.022" fill="#43443f" d="M 511.5,425.5 C 511.5,427.167 511.5,428.833 511.5,430.5C 484.167,457.167 457.167,484.167 430.5,511.5C 428.833,511.5 427.167,511.5 425.5,511.5C 453.833,482.5 482.5,453.833 511.5,425.5 Z"/></g>
<g><path style="opacity:0.022" fill="#43443f" d="M 511.5,445.5 C 511.5,447.167 511.5,448.833 511.5,450.5C 490.833,470.5 470.5,490.833 450.5,511.5C 448.833,511.5 447.167,511.5 445.5,511.5C 467.167,489.167 489.167,467.167 511.5,445.5 Z"/></g>
<g><path style="opacity:0.022" fill="#43443f" d="M 511.5,465.5 C 511.5,467.167 511.5,468.833 511.5,470.5C 497.5,483.833 483.833,497.5 470.5,511.5C 468.833,511.5 467.167,511.5 465.5,511.5C 480.5,495.833 495.833,480.5 511.5,465.5 Z"/></g>
<g><path style="opacity:0.022" fill="#43443f" d="M 511.5,485.5 C 511.5,487.167 511.5,488.833 511.5,490.5C 504.167,497.167 497.167,504.167 490.5,511.5C 488.833,511.5 487.167,511.5 485.5,511.5C 493.833,502.5 502.5,493.833 511.5,485.5 Z"/></g>
<g><path style="opacity:0.022" fill="#43443f" d="M 511.5,505.5 C 511.5,507.167 511.5,508.833 511.5,510.5C 510.833,510.5 510.5,510.833 510.5,511.5C 508.833,511.5 507.167,511.5 505.5,511.5C 507.167,509.167 509.167,507.167 511.5,505.5 Z"/></g>
</svg>
