<svg width="24" height="24" viewBox="0 0 24 24" fill="none" xmlns="http://www.w3.org/2000/svg">
<path d="M22 3.25H2C1.59 3.25 1.25 2.91 1.25 2.5C1.25 2.09 1.59 1.75 2 1.75H22C22.41 1.75 22.75 2.09 22.75 2.5C22.75 2.91 22.41 3.25 22 3.25Z" fill="#B0B0B0"/>
<path d="M3.67188 2.5V14.47C3.67188 15.45 4.13187 16.38 4.92188 16.97L10.1319 20.87C11.2419 21.7 12.7719 21.7 13.8819 20.87L19.0919 16.97C19.8819 16.38 20.3419 15.45 20.3419 14.47V2.5H3.67188ZM16.0019 13.75H8.00187C7.59187 13.75 7.25187 13.41 7.25187 13C7.25187 12.59 7.59187 12.25 8.00187 12.25H16.0019C16.4119 12.25 16.7519 12.59 16.7519 13C16.7519 13.41 16.4119 13.75 16.0019 13.75ZM16.0019 8.75H8.00187C7.59187 8.75 7.25187 8.41 7.25187 8C7.25187 7.59 7.59187 7.25 8.00187 7.25H16.0019C16.4119 7.25 16.7519 7.59 16.7519 8C16.7519 8.41 16.4119 8.75 16.0019 8.75Z" fill="#B0B0B0"/>
</svg>
