<svg width="27" height="27" viewBox="0 0 27 27" fill="none" xmlns="http://www.w3.org/2000/svg">
<rect width="27" height="27" rx="13.5" fill="#C17B31"/>
<path d="M20.6673 7.16602H7.33398C7.06065 7.16602 6.83398 6.93935 6.83398 6.66602C6.83398 6.39268 7.06065 6.16602 7.33398 6.16602H20.6673C20.9407 6.16602 21.1673 6.39268 21.1673 6.66602C21.1673 6.93935 20.9407 7.16602 20.6673 7.16602Z" fill="#F8E6FF"/>
<path d="M8.44727 6.66602V14.646C8.44727 15.2993 8.75393 15.9193 9.2806 16.3127L12.7539 18.9127C13.4939 19.466 14.5139 19.466 15.2539 18.9127L18.7273 16.3127C19.2539 15.9193 19.5606 15.2993 19.5606 14.646V6.66602H8.44727ZM16.6673 14.166H11.3339C11.0606 14.166 10.8339 13.9393 10.8339 13.666C10.8339 13.3927 11.0606 13.166 11.3339 13.166H16.6673C16.9406 13.166 17.1673 13.3927 17.1673 13.666C17.1673 13.9393 16.9406 14.166 16.6673 14.166ZM16.6673 10.8327H11.3339C11.0606 10.8327 10.8339 10.606 10.8339 10.3327C10.8339 10.0593 11.0606 9.83268 11.3339 9.83268H16.6673C16.9406 9.83268 17.1673 10.0593 17.1673 10.3327C17.1673 10.606 16.9406 10.8327 16.6673 10.8327Z" fill="#F8E6FF"/>
</svg>
