<svg width="23" height="22" viewBox="0 0 23 22" fill="none" xmlns="http://www.w3.org/2000/svg">
<path d="M20.6673 2.97852H2.33398C1.95815 2.97852 1.64648 2.66685 1.64648 2.29102C1.64648 1.91518 1.95815 1.60352 2.33398 1.60352H20.6673C21.0431 1.60352 21.3548 1.91518 21.3548 2.29102C21.3548 2.66685 21.0431 2.97852 20.6673 2.97852Z" fill="#FDB813"/>
<path d="M3.86328 2.29102V13.2635C3.86328 14.1618 4.28495 15.0143 5.00911 15.5552L9.78495 19.1302C10.8024 19.891 12.2049 19.891 13.2224 19.1302L17.9983 15.5552C18.7224 15.0143 19.1441 14.1618 19.1441 13.2635V2.29102H3.86328ZM15.1658 12.6035H7.83245C7.45661 12.6035 7.14495 12.2918 7.14495 11.916C7.14495 11.5402 7.45661 11.2285 7.83245 11.2285H15.1658C15.5416 11.2285 15.8533 11.5402 15.8533 11.916C15.8533 12.2918 15.5416 12.6035 15.1658 12.6035ZM15.1658 8.02018H7.83245C7.45661 8.02018 7.14495 7.70852 7.14495 7.33268C7.14495 6.95685 7.45661 6.64518 7.83245 6.64518H15.1658C15.5416 6.64518 15.8533 6.95685 15.8533 7.33268C15.8533 7.70852 15.5416 8.02018 15.1658 8.02018Z" fill="#FDB813"/>
</svg>
