<svg width="19" height="20" viewBox="0 0 19 20" fill="none" xmlns="http://www.w3.org/2000/svg">
<path d="M15.5 3.99628H11.91L14.21 1.70628C14.3032 1.61304 14.3772 1.50235 14.4277 1.38053C14.4781 1.25871 14.5041 1.12814 14.5041 0.996279C14.5041 0.86442 14.4781 0.733852 14.4277 0.61203C14.3772 0.490208 14.3032 0.379518 14.21 0.286279C14.1168 0.193041 14.0061 0.11908 13.8842 0.0686194C13.7624 0.018159 13.6319 -0.0078125 13.5 -0.0078125C13.2337 -0.0078125 12.9783 0.0979754 12.79 0.286279L9.5 3.58628L6.21 0.286279C6.11676 0.193041 6.00607 0.11908 5.88425 0.0686194C5.76243 0.018159 5.63186 -0.0078125 5.5 -0.0078125C5.36814 -0.0078125 5.23757 0.018159 5.11575 0.0686194C4.99393 0.11908 4.88324 0.193041 4.79 0.286279C4.6017 0.474583 4.49591 0.729977 4.49591 0.996279C4.49591 1.12814 4.52188 1.25871 4.57234 1.38053C4.6228 1.50235 4.69676 1.61304 4.79 1.70628L7.09 3.99628H3.5C2.70435 3.99628 1.94129 4.31235 1.37868 4.87496C0.816071 5.43757 0.5 6.20063 0.5 6.99628V16.9963C0.5 17.7919 0.816071 18.555 1.37868 19.1176C1.94129 19.6802 2.70435 19.9963 3.5 19.9963H15.5C16.2956 19.9963 17.0587 19.6802 17.6213 19.1176C18.1839 18.555 18.5 17.7919 18.5 16.9963V6.99628C18.5 6.20063 18.1839 5.43757 17.6213 4.87496C17.0587 4.31235 16.2956 3.99628 15.5 3.99628ZM16.5 16.9963C16.5 17.2615 16.3946 17.5159 16.2071 17.7034C16.0196 17.8909 15.7652 17.9963 15.5 17.9963H3.5C3.23478 17.9963 2.98043 17.8909 2.79289 17.7034C2.60536 17.5159 2.5 17.2615 2.5 16.9963V6.99628C2.5 6.73106 2.60536 6.47671 2.79289 6.28917C2.98043 6.10164 3.23478 5.99628 3.5 5.99628H15.5C15.7652 5.99628 16.0196 6.10164 16.2071 6.28917C16.3946 6.47671 16.5 6.73106 16.5 6.99628V16.9963Z" fill="#FDB813"/>
</svg>
