<svg width="23" height="22" viewBox="0 0 23 22" fill="none" xmlns="http://www.w3.org/2000/svg">
<path d="M20.6379 16.8012C20.6379 17.1312 20.5645 17.4704 20.4087 17.8004C20.2529 18.1304 20.0512 18.442 19.7854 18.7354C19.3362 19.2304 18.8412 19.5879 18.282 19.817C17.732 20.0462 17.1362 20.1654 16.4945 20.1654C15.5595 20.1654 14.5604 19.9454 13.5062 19.4962C12.452 19.047 11.3979 18.442 10.3529 17.6812C9.2987 16.9112 8.29953 16.0587 7.3462 15.1145C6.40203 14.1612 5.54953 13.162 4.7887 12.117C4.03703 11.072 3.43203 10.027 2.99203 8.9912C2.55203 7.9462 2.33203 6.94703 2.33203 5.9937C2.33203 5.37036 2.44203 4.77453 2.66203 4.22453C2.88203 3.66536 3.23036 3.15203 3.7162 2.6937C4.30286 2.1162 4.94453 1.83203 5.62286 1.83203C5.87953 1.83203 6.1362 1.88703 6.36536 1.99703C6.6037 2.10703 6.81453 2.27203 6.97953 2.51036L9.1062 5.50786C9.2712 5.73703 9.39036 5.94786 9.47286 6.14953C9.55536 6.34203 9.6012 6.53453 9.6012 6.7087C9.6012 6.9287 9.53703 7.1487 9.4087 7.35953C9.28953 7.57036 9.11536 7.79036 8.89536 8.01036L8.1987 8.73453C8.09786 8.83536 8.05203 8.95453 8.05203 9.1012C8.05203 9.17453 8.0612 9.2387 8.07953 9.31203C8.10703 9.38536 8.13453 9.44036 8.15286 9.49536C8.31786 9.79786 8.60203 10.192 9.00536 10.6687C9.41786 11.1454 9.85786 11.6312 10.3345 12.117C10.8295 12.6029 11.3062 13.052 11.792 13.4645C12.2687 13.8679 12.6629 14.1429 12.9745 14.3079C13.0204 14.3262 13.0754 14.3537 13.1395 14.3812C13.2129 14.4087 13.2862 14.4179 13.3687 14.4179C13.5245 14.4179 13.6437 14.3629 13.7445 14.262L14.4412 13.5745C14.6704 13.3454 14.8904 13.1712 15.1012 13.0612C15.312 12.9329 15.5229 12.8687 15.752 12.8687C15.9262 12.8687 16.1095 12.9054 16.3112 12.9879C16.5129 13.0704 16.7237 13.1895 16.9529 13.3454L19.987 15.4995C20.2254 15.6645 20.3904 15.857 20.4912 16.0862C20.5829 16.3154 20.6379 16.5445 20.6379 16.8012Z" fill="#EDA145"/>
</svg>
