<svg width="28" height="28" viewBox="0 0 28 28" fill="none" xmlns="http://www.w3.org/2000/svg">
<rect x="0.5" y="0.5" width="27" height="27" rx="13.5" fill="#C17B31"/>
<path d="M21.1673 10.5323C21.1673 10.9723 20.8073 11.3323 20.3673 11.3323H8.63398C8.19398 11.3323 7.83398 10.9723 7.83398 10.5323V10.5256C7.83398 8.99896 9.06732 7.76562 10.594 7.76562H18.4007C19.9273 7.76562 21.1673 9.00563 21.1673 10.5323Z" fill="#F8E6FF"/>
<path d="M7.83398 13.134V16.474C7.83398 18.0006 9.06732 19.234 10.594 19.234H18.4007C19.9273 19.234 21.1673 17.994 21.1673 16.4673V13.134C21.1673 12.694 20.8073 12.334 20.3673 12.334H8.63398C8.19398 12.334 7.83398 12.694 7.83398 13.134ZM11.834 17.0007H10.5007C10.2273 17.0007 10.0007 16.774 10.0007 16.5007C10.0007 16.2273 10.2273 16.0007 10.5007 16.0007H11.834C12.1073 16.0007 12.334 16.2273 12.334 16.5007C12.334 16.774 12.1073 17.0007 11.834 17.0007ZM16.1673 17.0007H13.5007C13.2273 17.0007 13.0007 16.774 13.0007 16.5007C13.0007 16.2273 13.2273 16.0007 13.5007 16.0007H16.1673C16.4407 16.0007 16.6673 16.2273 16.6673 16.5007C16.6673 16.774 16.4407 17.0007 16.1673 17.0007Z" fill="#F8E6FF"/>
</svg>
