<svg width="24" height="25" viewBox="0 0 24 25" fill="none" xmlns="http://www.w3.org/2000/svg">
<path d="M22 8.05039C22 8.71039 21.46 9.25039 20.8 9.25039H3.2C2.54 9.25039 2 8.71039 2 8.05039V8.04039C2 5.75039 3.85 3.90039 6.14 3.90039H17.85C20.14 3.90039 22 5.76039 22 8.05039Z" fill="#B0B0B0"/>
<path d="M2 11.95V16.96C2 19.25 3.85 21.1 6.14 21.1H17.85C20.14 21.1 22 19.24 22 16.95V11.95C22 11.29 21.46 10.75 20.8 10.75H3.2C2.54 10.75 2 11.29 2 11.95ZM8 17.75H6C5.59 17.75 5.25 17.41 5.25 17C5.25 16.59 5.59 16.25 6 16.25H8C8.41 16.25 8.75 16.59 8.75 17C8.75 17.41 8.41 17.75 8 17.75ZM14.5 17.75H10.5C10.09 17.75 9.75 17.41 9.75 17C9.75 16.59 10.09 16.25 10.5 16.25H14.5C14.91 16.25 15.25 16.59 15.25 17C15.25 17.41 14.91 17.75 14.5 17.75Z" fill="#B0B0B0"/>
</svg>
