<svg width="199" height="190" viewBox="0 0 199 190" fill="none" xmlns="http://www.w3.org/2000/svg">
<path d="M155.524 112.118C155.081 112.119 154.644 112.029 154.241 111.855C153.837 111.681 153.478 111.426 153.186 111.109C149.975 107.618 146.022 104.821 141.59 102.905C137.158 100.988 132.349 99.9958 127.483 99.9941C120.208 99.9941 112.975 102.274 107.13 106.413C106.802 106.644 106.429 106.812 106.033 106.907C105.637 107.002 105.226 107.021 104.822 106.963C104.418 106.906 104.031 106.773 103.681 106.573C103.331 106.372 103.026 106.108 102.783 105.795C102.54 105.482 102.364 105.126 102.265 104.748C102.166 104.37 102.146 103.977 102.206 103.592C102.266 103.207 102.405 102.836 102.615 102.502C102.825 102.168 103.101 101.877 103.429 101.645C110.401 96.7387 118.829 94.0827 127.49 94.0625C139.119 94.0625 150.188 98.8481 157.868 107.19C158.261 107.621 158.515 108.149 158.602 108.714C158.688 109.278 158.602 109.855 158.355 110.374C158.108 110.893 157.71 111.334 157.208 111.643C156.706 111.953 156.121 112.117 155.524 112.118Z" fill="#F0A04C"/>
<path d="M83.3127 85.8623C82.7859 85.8623 82.2678 85.7346 81.8069 85.4911C81.3461 85.2476 80.9575 84.8963 80.6778 84.4701C80.3981 84.044 80.2363 83.557 80.2077 83.0548C80.1791 82.5526 80.2846 82.0518 80.5142 81.5992C82.7719 77.1556 83.9475 72.282 83.9532 67.3432C83.9532 61.6195 82.3674 55.967 79.3762 51.0151C79.1688 50.6773 79.0334 50.3038 78.9779 49.9158C78.9223 49.5279 78.9477 49.1334 79.0525 48.7549C79.1573 48.3763 79.3395 48.0214 79.5886 47.7103C79.8377 47.3993 80.1487 47.1384 80.5039 46.9427C80.859 46.7469 81.2512 46.6202 81.6578 46.5697C82.0645 46.5192 82.4775 46.5461 82.8733 46.6486C83.269 46.7512 83.6396 46.9275 83.9637 47.1674C84.2878 47.4073 84.5589 47.706 84.7616 48.0464C88.0601 53.5083 89.9086 59.6578 90.146 65.9586C90.3834 72.2593 89.0024 78.5198 86.1235 84.1939C85.8653 84.6951 85.465 85.1172 84.9681 85.4121C84.4713 85.707 83.8977 85.863 83.3127 85.8623Z" fill="#595BD4"/>
<path d="M29.961 153.479L69.7921 80.8815C70.2448 80.0565 70.8944 79.3447 71.6884 78.8037C72.4825 78.2627 73.3987 77.9076 74.363 77.7671C75.3274 77.6267 76.3128 77.7048 77.2397 77.9952C78.1665 78.2856 79.0089 78.7801 79.6986 79.4387L111.706 109.999C112.396 110.658 112.914 111.462 113.218 112.347C113.523 113.232 113.604 114.173 113.457 115.093C113.31 116.014 112.938 116.889 112.372 117.647C111.805 118.405 111.059 119.025 110.195 119.457L34.1587 157.487C33.5716 157.781 32.9016 157.888 32.2463 157.793C31.5911 157.697 30.9849 157.405 30.5162 156.957C30.0475 156.51 29.7408 155.931 29.641 155.305C29.5411 154.68 29.6532 154.04 29.961 153.479Z" fill="#FFB05C"/>
<path d="M111.708 109.999L79.7002 79.4387C79.0105 78.7801 78.1681 78.2856 77.2413 77.9952C76.3144 77.7048 75.329 77.6267 74.3646 77.7671C73.4003 77.9076 72.4841 78.2627 71.69 78.8037C70.896 79.3447 70.2464 80.0565 69.7937 80.8815L69.4455 81.5228L81.0932 92.6437C83.1627 94.6193 84.7165 97.032 85.6289 99.6868C86.5414 102.342 86.7868 105.164 86.3455 107.926C85.9042 110.689 84.7885 113.313 83.0885 115.587C81.3886 117.862 79.1521 119.722 76.5597 121.019L36.8965 140.856L29.9688 153.479C29.661 154.04 29.5489 154.68 29.6488 155.305C29.7487 155.931 30.0553 156.51 30.524 156.957C30.9927 157.405 31.5989 157.697 32.2542 157.793C32.9094 157.888 33.5794 157.781 34.1665 157.487L110.203 119.457C111.067 119.025 111.812 118.404 112.378 117.646C112.944 116.887 113.315 116.012 113.462 115.092C113.608 114.171 113.526 113.23 113.221 112.346C112.916 111.461 112.398 110.657 111.708 109.999Z" fill="#F7A146"/>
<path d="M49.3147 149.904L57.1068 146.009L37.3001 140.101L34.3711 145.445L49.3147 149.904ZM42.1632 131.236L70.0232 139.549L77.8153 135.654L45.0984 125.893L42.1632 131.236ZM49.9553 117.028L90.7254 129.194L98.5175 125.299L52.8905 111.684L49.9553 117.028ZM57.7536 102.826L111.067 118.732C111.933 118.088 112.6 117.232 112.996 116.254C113.391 115.276 113.5 114.213 113.312 113.181L60.6888 97.4818L57.7536 102.826ZM65.5457 88.623L100.122 98.9365L90.6446 89.8937L68.4747 83.2793L65.5457 88.623Z" fill="#FE9526"/>
<path d="M113.306 113.18L86.4531 105.17C86.4593 107.189 86.136 109.184 85.4457 111.09L111.067 118.732C111.938 118.067 112.559 117.235 112.951 116.327L113.038 116.119C113.388 115.177 113.48 114.166 113.306 113.18ZM77.8153 135.654L58.6926 129.948L50.9005 133.843L70.0232 139.549L71.8391 138.64L77.8153 135.654ZM81.0863 92.6423C81.3537 92.8977 81.5154 93.1945 81.758 93.4617L100.116 98.942L90.6383 89.8933L72.548 84.4961L81.0863 92.6423ZM34.3711 145.445L49.3147 149.904L57.1068 146.009L37.9842 140.303L36.8897 140.855L34.3711 145.445ZM76.5529 121.018L71.609 123.494L90.7316 129.2L98.5237 125.305L78.9347 119.462C78.1573 119.996 77.4297 120.578 76.5529 121.018Z" fill="#ED8C25"/>
<path d="M49.7505 76.25C47.9527 76.2437 46.1949 75.7422 44.6883 74.8056C43.1816 73.869 41.99 72.5372 41.2566 70.9699C40.5232 69.4027 40.2791 67.6667 40.5536 65.9703C40.8281 64.2738 41.6096 62.6891 42.8042 61.4062C41.2668 59.777 40.416 57.6617 40.416 55.4688C40.416 53.2758 41.2668 51.1605 42.8042 49.5312C41.6096 48.2484 40.8281 46.6637 40.5536 44.9672C40.2791 43.2708 40.5232 41.5348 41.2566 39.9676C41.99 38.4003 43.1816 37.0685 44.6883 36.1319C46.1949 35.1953 47.9527 34.6938 49.7505 34.6875C50.5752 34.6875 51.3661 35.0003 51.9492 35.557C52.5323 36.1138 52.8599 36.8689 52.8599 37.6562C52.8599 38.4436 52.5323 39.1987 51.9492 39.7555C51.3661 40.3122 50.5752 40.625 49.7505 40.625C48.9259 40.625 48.135 40.9378 47.5519 41.4945C46.9688 42.0513 46.6412 42.8064 46.6412 43.5938C46.6412 44.3811 46.9688 45.1362 47.5519 45.693C48.135 46.2497 48.9259 46.5625 49.7505 46.5625C50.5752 46.5625 51.3661 46.8753 51.9492 47.432C52.5323 47.9888 52.8599 48.7439 52.8599 49.5312C52.8599 50.3186 52.5323 51.0737 51.9492 51.6305C51.3661 52.1872 50.5752 52.5 49.7505 52.5C48.9259 52.5 48.135 52.8128 47.5519 53.3695C46.9688 53.9263 46.6412 54.6814 46.6412 55.4688C46.6412 56.2561 46.9688 57.0112 47.5519 57.568C48.135 58.1247 48.9259 58.4375 49.7505 58.4375C50.5752 58.4375 51.3661 58.7503 51.9492 59.307C52.5323 59.8638 52.8599 60.6189 52.8599 61.4062C52.8599 62.1936 52.5323 62.9487 51.9492 63.5055C51.3661 64.0622 50.5752 64.375 49.7505 64.375C48.9259 64.375 48.135 64.6878 47.5519 65.2445C46.9688 65.8013 46.6412 66.5564 46.6412 67.3438C46.6412 68.1311 46.9688 68.8862 47.5519 69.443C48.135 69.9997 48.9259 70.3125 49.7505 70.3125C50.5752 70.3125 51.3661 70.6253 51.9492 71.182C52.5323 71.7388 52.8599 72.4939 52.8599 73.2812C52.8599 74.0686 52.5323 74.8237 51.9492 75.3805C51.3661 75.9372 50.5752 76.25 49.7505 76.25Z" fill="#62CA74"/>
<path d="M49.956 52.4573C50.5563 52.4213 51.1323 52.2174 51.6122 51.8711C52.0921 51.5248 52.4548 51.0514 52.6549 50.5098C52.0552 50.548 51.4803 50.7527 51.0008 51.0987C50.5214 51.4447 50.1582 51.9169 49.956 52.4573ZM52.6549 38.6348C52.0552 38.673 51.4803 38.8777 51.0008 39.2237C50.5214 39.5697 50.1582 40.0419 49.956 40.5823C50.5563 40.5463 51.1323 40.3424 51.6122 39.9961C52.0921 39.6498 52.4548 39.1764 52.6549 38.6348ZM43.532 65.312C43.532 63.032 44.4337 60.9538 45.9138 59.3745C44.3764 57.7452 43.5256 55.6299 43.5256 53.437C43.5256 51.244 44.3764 49.1287 45.9138 47.4995C44.3363 45.8233 43.486 43.6368 43.5357 41.3838C43.5854 39.1309 44.5312 36.9804 46.1812 35.3691C44.8069 35.9155 43.5894 36.7678 42.6303 37.8549C41.6712 38.9419 40.9983 40.2323 40.6678 41.6182C40.3373 43.0041 40.3588 44.4453 40.7305 45.8217C41.1022 47.198 41.8133 48.4695 42.8044 49.5301C41.2657 51.1588 40.4141 53.2742 40.4141 55.4676C40.4141 57.6609 41.2657 59.7764 42.8044 61.4051C41.6098 62.6879 40.8283 64.2727 40.5538 65.9691C40.2793 67.6655 40.5234 69.4015 41.2568 70.9688C41.9902 72.536 43.1818 73.8678 44.6885 74.8044C46.1951 75.741 47.9529 76.2426 49.7507 76.2488C50.4012 76.2454 51.0338 76.0453 51.5578 75.6773C52.0818 75.3093 52.4702 74.7923 52.6673 74.2004C50.2301 74.1523 47.9095 73.1952 46.2021 71.534C44.4948 69.8728 43.5363 67.6394 43.532 65.312Z" fill="#53D86A"/>
<path d="M49.9551 64.3323C50.5544 64.2951 51.129 64.0908 51.6077 63.7445C52.0864 63.3983 52.4481 62.9255 52.6478 62.3848C52.049 62.4234 51.4751 62.6283 50.9967 62.9744C50.5182 63.3204 50.1562 63.7924 49.9551 64.3323Z" fill="#53D86A"/>
<path d="M135.146 82.5378C132.758 82.5378 130.37 81.6709 128.548 79.9372C127.964 79.3805 127.635 78.6252 127.635 77.8374C127.634 77.0496 127.961 76.2939 128.544 75.7364C129.127 75.179 129.919 74.8655 130.744 74.8649C131.569 74.8644 132.36 75.1768 132.944 75.7334C133.233 76.0091 133.576 76.2276 133.954 76.3767C134.332 76.5257 134.736 76.6022 135.145 76.602C135.553 76.6017 135.958 76.5246 136.335 76.3751C136.712 76.2255 137.055 76.0065 137.344 75.7305C137.633 75.4545 137.862 75.1268 138.018 74.7663C138.174 74.4059 138.254 74.0195 138.254 73.6295C138.253 73.2394 138.173 72.8532 138.016 72.4929C137.859 72.1326 137.63 71.8053 137.341 71.5297C137.05 71.2547 136.819 70.9274 136.661 70.5666C136.503 70.2058 136.422 69.8188 136.422 69.4278C136.422 69.0369 136.503 68.6498 136.661 68.289C136.819 67.9283 137.05 67.6009 137.341 67.3259C137.924 66.7694 138.715 66.4567 139.539 66.4567C140.364 66.4567 141.154 66.7694 141.738 67.3259C142.324 67.8667 143.109 68.166 143.925 68.1592C144.74 68.1524 145.52 67.8402 146.096 67.2898C146.673 66.7394 147 65.9948 147.007 65.2164C147.014 64.438 146.701 63.688 146.134 63.1281C145.843 62.8532 145.612 62.5258 145.454 62.165C145.297 61.8043 145.215 61.4172 145.215 61.0263C145.215 60.6353 145.297 60.2483 145.454 59.8875C145.612 59.5267 145.843 59.1993 146.134 58.9244C146.717 58.3678 147.508 58.0552 148.333 58.0552C149.157 58.0552 149.948 58.3678 150.531 58.9244C151.125 59.4614 151.911 59.7607 152.729 59.7607C153.547 59.7607 154.334 59.4614 154.927 58.9244C155.217 58.6492 155.447 58.3215 155.603 57.9607C155.759 57.5998 155.838 57.2129 155.835 56.8225C155.837 56.4331 155.758 56.0474 155.602 55.6875C155.446 55.3277 155.217 55.0011 154.927 54.7266C154.638 54.4509 154.409 54.1236 154.252 53.7634C154.096 53.4031 154.015 53.0169 154.015 52.6268C154.014 52.2367 154.095 51.8504 154.251 51.4899C154.407 51.1294 154.636 50.8018 154.924 50.5258C155.213 50.2498 155.556 50.0307 155.933 49.8812C156.311 49.7317 156.715 49.6546 157.124 49.6543C157.532 49.654 157.937 49.7306 158.314 49.8796C158.692 50.0286 159.035 50.2472 159.324 50.5228C161.084 52.2031 162.054 54.4416 162.054 56.8225C162.056 59.1 161.144 61.2916 159.504 62.9461C157.865 64.6007 155.624 65.5923 153.242 65.7169C153.121 67.9076 152.155 69.978 150.53 71.5292C148.906 73.0804 146.737 74.0027 144.443 74.1184C144.318 76.2322 143.417 78.3163 141.725 79.9253C139.928 81.6709 137.534 82.5378 135.146 82.5378Z" fill="#898ABE"/>
<path d="M138.368 67.3424C138.876 67.8182 139.541 68.1109 140.25 68.1704C140.959 68.23 141.667 68.0528 142.254 67.669C142.087 67.5621 141.894 67.4908 141.744 67.3424C141.237 66.8666 140.571 66.5739 139.862 66.5143C139.154 66.4548 138.445 66.632 137.858 67.0158C138.026 67.1227 138.218 67.1999 138.368 67.3424ZM147.161 58.9468C147.677 59.4089 148.342 59.6914 149.047 59.7485C149.752 59.8056 150.457 59.634 151.048 59.2615C150.874 59.1546 150.687 59.0893 150.538 58.9468C150.03 58.471 149.365 58.1783 148.656 58.1187C147.947 58.0592 147.238 58.2364 146.651 58.6202C146.819 58.7271 147.012 58.8043 147.161 58.9468ZM129.574 75.738C130.082 76.2138 130.748 76.5065 131.456 76.5661C132.165 76.6256 132.874 76.4484 133.461 76.0646C133.293 75.9577 133.1 75.8865 132.951 75.738C132.442 75.2641 131.776 74.9732 131.068 74.9148C130.359 74.8563 129.651 75.0339 129.064 75.4174C129.232 75.5243 129.425 75.5955 129.574 75.738Z" fill="#7677B5"/>
<path d="M159.33 50.5451C158.82 50.0712 158.155 49.7803 157.446 49.7219C156.738 49.6634 156.03 49.841 155.443 50.2244C155.611 50.3313 155.804 50.4026 155.953 50.5451C157.713 52.2254 158.683 54.4638 158.683 56.8448C158.685 59.1223 157.772 61.3138 156.133 62.9684C154.494 64.6229 152.253 65.6145 149.871 65.7391C149.75 67.9298 148.784 70.0002 147.159 71.5514C145.534 73.1027 143.366 74.025 141.071 74.1407C140.947 76.2545 140.045 78.3385 138.354 79.9476C136.973 81.2657 135.238 81.9188 133.447 82.2335C134.013 82.3345 134.56 82.5482 135.133 82.5482C137.518 82.5531 139.814 81.6836 141.547 80.1192C143.281 78.5548 144.319 76.4148 144.448 74.1407C146.742 74.0224 148.909 73.0992 150.533 71.5486C152.157 69.9979 153.124 67.9289 153.248 65.7391C155.63 65.616 157.872 64.6248 159.512 62.9699C161.151 61.3151 162.063 59.1227 162.06 56.8448C162.065 55.6744 161.826 54.5147 161.357 53.4332C160.889 52.3517 160.199 51.3699 159.33 50.5451Z" fill="#7677B5"/>
<path d="M100.588 153.199C100.048 153.199 99.5177 153.065 99.0489 152.81C98.58 152.554 98.1888 152.187 97.9136 151.744C96.989 150.266 96.5335 148.564 96.6025 146.843C96.6715 145.123 97.262 143.458 98.3023 142.052C99.3426 140.646 100.788 139.558 102.463 138.921C104.138 138.284 105.971 138.124 107.739 138.462C108.405 136.443 109.822 134.638 111.875 133.48C113.921 132.317 116.234 131.996 118.435 132.406C119.12 130.31 120.575 128.552 122.571 127.424C123.623 126.823 124.79 126.427 126.004 126.261C127.218 126.095 128.455 126.161 129.642 126.456C132.055 127.044 134.088 128.499 135.357 130.541C135.565 130.877 135.702 131.249 135.76 131.636C135.817 132.022 135.795 132.416 135.693 132.794C135.591 133.173 135.413 133.528 135.167 133.84C134.922 134.153 134.614 134.416 134.262 134.614C133.91 134.813 133.521 134.944 133.116 134.999C132.711 135.054 132.299 135.033 131.902 134.936C131.506 134.839 131.134 134.668 130.807 134.434C130.48 134.199 130.204 133.906 129.996 133.569C129.686 133.06 129.223 132.651 128.667 132.395C128.111 132.139 127.488 132.047 126.877 132.131C126.267 132.215 125.696 132.472 125.239 132.868C124.782 133.264 124.459 133.781 124.312 134.353C124.211 134.73 124.189 135.123 124.247 135.508C124.306 135.893 124.444 136.264 124.654 136.598C124.995 137.27 125.059 138.039 124.834 138.754C124.609 139.469 124.111 140.078 123.439 140.459C122.767 140.84 121.969 140.967 121.204 140.814C120.439 140.661 119.761 140.239 119.306 139.632C118.883 138.955 118.197 138.467 117.398 138.272C116.598 138.077 115.751 138.192 115.04 138.593C114.332 138.996 113.82 139.652 113.616 140.415C113.412 141.178 113.533 141.987 113.952 142.666C114.372 143.344 114.493 144.155 114.288 144.919C114.083 145.683 113.568 146.337 112.857 146.739C112.146 147.14 111.298 147.256 110.498 147.06C109.697 146.864 109.012 146.373 108.591 145.694C108.386 145.357 108.111 145.063 107.784 144.83C107.457 144.596 107.085 144.428 106.688 144.334C106.093 144.191 105.467 144.218 104.888 144.414C104.31 144.61 103.805 144.965 103.437 145.434C103.069 145.903 102.855 146.466 102.822 147.051C102.789 147.636 102.937 148.217 103.249 148.722C103.529 149.171 103.679 149.683 103.685 150.206C103.69 150.729 103.551 151.244 103.281 151.699C103.01 152.153 102.619 152.532 102.146 152.795C101.673 153.059 101.135 153.198 100.588 153.199Z" fill="#595BD4"/>
<path d="M101.427 151.751C100.799 150.746 100.386 149.632 100.21 148.474C100.034 147.316 100.1 146.136 100.402 145.002C100.705 143.868 101.239 142.802 101.974 141.865C102.709 140.928 103.631 140.14 104.685 139.544C105.631 139.003 106.663 138.659 107.72 138.469C105.473 138.034 103.138 138.418 101.172 139.544C100.116 140.138 99.1946 140.926 98.4601 141.863C97.7257 142.799 97.1932 143.866 96.8934 145C96.5871 146.134 96.5194 147.314 96.6945 148.473C96.8696 149.632 97.2838 150.746 97.9133 151.751C98.3362 152.426 99.0213 152.913 99.8191 153.108C100.617 153.303 101.463 153.188 102.173 152.79C102.254 152.749 102.291 152.671 102.366 152.624C101.993 152.398 101.674 152.101 101.427 151.751ZM112.117 145.689C111.911 145.352 111.637 145.058 111.31 144.825C110.983 144.591 110.61 144.423 110.214 144.329C109.818 144.231 109.406 144.209 109.001 144.266C108.596 144.322 108.207 144.454 107.857 144.656C107.795 144.691 107.758 144.751 107.702 144.786C108.056 145.024 108.373 145.321 108.597 145.689C109.019 146.366 109.705 146.856 110.505 147.051C111.305 147.246 112.153 147.13 112.863 146.728C112.925 146.692 112.944 146.627 113.006 146.591C112.646 146.354 112.343 146.046 112.117 145.689ZM111.259 138.469C111.924 136.45 113.342 134.645 115.394 133.487C117.44 132.324 119.754 132.003 121.955 132.413C122.453 130.884 123.378 129.515 124.63 128.451C125.883 127.387 127.415 126.669 129.063 126.374C126.824 125.947 124.498 126.327 122.536 127.443C120.574 128.558 119.115 130.329 118.441 132.413C116.191 131.979 113.851 132.362 111.881 133.487C109.828 134.651 108.417 136.444 107.751 138.463C108.896 138.255 110.077 138.237 111.259 138.469ZM122.826 139.633C122.403 138.956 121.716 138.468 120.917 138.273C120.118 138.078 119.27 138.193 118.56 138.594C118.497 138.629 118.46 138.689 118.404 138.73C118.759 138.968 119.069 139.259 119.306 139.639C119.727 140.315 120.413 140.803 121.212 140.997C122.011 141.191 122.857 141.074 123.566 140.672C123.628 140.636 123.646 140.571 123.702 140.535C123.348 140.296 123.049 139.988 122.826 139.633ZM133.516 133.576C133.308 133.24 133.033 132.947 132.706 132.713C132.379 132.479 132.007 132.309 131.611 132.213C131.215 132.117 130.803 132.097 130.399 132.154C129.995 132.21 129.606 132.343 129.256 132.543C129.194 132.579 129.156 132.638 129.1 132.674C129.455 132.911 129.772 133.208 129.996 133.576C130.418 134.254 131.104 134.744 131.904 134.939C132.704 135.133 133.552 135.017 134.262 134.615C134.324 134.58 134.355 134.52 134.417 134.485C134.052 134.247 133.744 133.938 133.516 133.576Z" fill="#167FFC"/>
<path d="M93.2812 37.6562C96.7158 37.6562 99.5 34.9979 99.5 31.7188C99.5 28.4396 96.7158 25.7812 93.2812 25.7812C89.8467 25.7812 87.0625 28.4396 87.0625 31.7188C87.0625 34.9979 89.8467 37.6562 93.2812 37.6562Z" fill="#898ABE"/>
<path d="M143.031 37.6562C146.466 37.6562 149.25 34.9979 149.25 31.7188C149.25 28.4396 146.466 25.7812 143.031 25.7812C139.597 25.7812 136.812 28.4396 136.812 31.7188C136.812 34.9979 139.597 37.6562 143.031 37.6562Z" fill="#595BD4"/>
<path d="M167.906 97.0312C171.341 97.0312 174.125 94.3729 174.125 91.0938C174.125 87.8146 171.341 85.1562 167.906 85.1562C164.472 85.1562 161.688 87.8146 161.688 91.0938C161.688 94.3729 164.472 97.0312 167.906 97.0312Z" fill="#FFB05C"/>
<path d="M24.875 120.781C28.3095 120.781 31.0938 118.123 31.0938 114.844C31.0938 111.565 28.3095 108.906 24.875 108.906C21.4405 108.906 18.6562 111.565 18.6562 114.844C18.6562 118.123 21.4405 120.781 24.875 120.781Z" fill="#F0A04C"/>
<path d="M93.2812 25.7812C92.4807 25.7864 91.6887 25.9396 90.9492 26.2325C92.0932 26.6752 93.0727 27.4338 93.7624 28.4111C94.4521 29.3885 94.8205 30.5402 94.8205 31.7188C94.8205 32.8973 94.4521 34.049 93.7624 35.0264C93.0727 36.0037 92.0932 36.7623 90.9492 37.205C91.6887 37.4979 92.4807 37.6511 93.2812 37.6562C94.9306 37.6562 96.5123 37.0307 97.6786 35.9172C98.8448 34.8037 99.5 33.2935 99.5 31.7188C99.5 30.144 98.8448 28.6338 97.6786 27.5203C96.5123 26.4068 94.9306 25.7812 93.2812 25.7812Z" fill="#7677B5"/>
<path d="M143.031 25.7812C142.231 25.7864 141.439 25.9396 140.699 26.2325C141.843 26.6752 142.823 27.4338 143.512 28.4111C144.202 29.3885 144.571 30.5402 144.571 31.7188C144.571 32.8973 144.202 34.049 143.512 35.0264C142.823 36.0037 141.843 36.7623 140.699 37.205C141.439 37.4979 142.231 37.6511 143.031 37.6562C144.681 37.6562 146.262 37.0307 147.429 35.9172C148.595 34.8037 149.25 33.2935 149.25 31.7188C149.25 30.144 148.595 28.6338 147.429 27.5203C146.262 26.4068 144.681 25.7812 143.031 25.7812Z" fill="#167FFC"/>
<path d="M167.906 85.1562C167.106 85.1614 166.314 85.3146 165.574 85.6075C166.718 86.0502 167.698 86.8088 168.387 87.7861C169.077 88.7635 169.446 89.9152 169.446 91.0938C169.446 92.2723 169.077 93.424 168.387 94.4014C167.698 95.3787 166.718 96.1373 165.574 96.58C166.314 96.8729 167.106 97.0261 167.906 97.0312C169.556 97.0312 171.137 96.4057 172.304 95.2922C173.47 94.1787 174.125 92.6685 174.125 91.0938C174.125 89.519 173.47 88.0088 172.304 86.8953C171.137 85.7818 169.556 85.1562 167.906 85.1562Z" fill="#F7A146"/>
<path d="M24.875 108.906C24.0744 108.911 23.2825 109.065 22.543 109.358C23.6869 109.8 24.6665 110.559 25.3562 111.536C26.0458 112.514 26.4143 113.665 26.4143 114.844C26.4143 116.022 26.0458 117.174 25.3562 118.151C24.6665 119.129 23.6869 119.887 22.543 120.33C23.2825 120.623 24.0744 120.776 24.875 120.781C26.5243 120.781 28.1061 120.156 29.2723 119.042C30.4386 117.929 31.0938 116.418 31.0938 114.844C31.0938 113.269 30.4386 111.759 29.2723 110.645C28.1061 109.532 26.5243 108.906 24.875 108.906Z" fill="#E18C33"/>
<path d="M149.25 156.406C152.685 156.406 155.469 153.748 155.469 150.469C155.469 147.19 152.685 144.531 149.25 144.531C145.815 144.531 143.031 147.19 143.031 150.469C143.031 153.748 145.815 156.406 149.25 156.406Z" fill="#F0A04C"/>
<path d="M149.25 144.531C148.449 144.536 147.657 144.69 146.918 144.983C148.062 145.425 149.041 146.184 149.731 147.161C150.421 148.139 150.789 149.29 150.789 150.469C150.789 151.647 150.421 152.799 149.731 153.776C149.041 154.754 148.062 155.512 146.918 155.955C147.657 156.248 148.449 156.401 149.25 156.406C150.899 156.406 152.481 155.781 153.647 154.667C154.814 153.554 155.469 152.043 155.469 150.469C155.469 148.894 154.814 147.384 153.647 146.27C152.481 145.157 150.899 144.531 149.25 144.531Z" fill="#E18C33"/>
<path d="M164.305 129.912C163.566 129.911 162.852 129.659 162.29 129.2C161.728 128.742 161.356 128.108 161.239 127.412C160.916 125.479 160.406 123.579 159.715 121.736C159.442 120.992 159.488 120.176 159.845 119.465C160.202 118.755 160.84 118.209 161.618 117.948C162.397 117.686 163.252 117.731 163.996 118.071C164.74 118.412 165.312 119.021 165.586 119.764C166.388 121.947 166.989 124.192 167.383 126.474C167.453 126.898 167.426 127.333 167.304 127.746C167.181 128.16 166.966 128.543 166.674 128.87C166.381 129.197 166.018 129.459 165.609 129.639C165.2 129.819 164.755 129.912 164.305 129.912Z" fill="#F0A04C"/>
<path d="M74.725 43.8365C73.9609 43.8377 73.2233 43.5691 72.6541 43.0825C71.8032 42.3583 70.9171 41.6728 69.9987 41.0281C69.3607 40.5517 68.9425 39.8565 68.8332 39.0903C68.7238 38.3241 68.9319 37.5473 69.4132 36.9254C69.8945 36.3034 70.6109 35.8853 71.4102 35.76C72.2094 35.6346 73.0283 35.812 73.6926 36.2543C74.7659 37.0111 75.8014 37.8156 76.7958 38.665C77.2612 39.0664 77.5886 39.5929 77.7349 40.1753C77.8812 40.7576 77.8397 41.3686 77.6157 41.928C77.3917 42.4874 76.9957 42.969 76.4798 43.3096C75.9639 43.6502 75.3522 43.8339 74.725 43.8365Z" fill="#595BD4"/>
<path d="M104.438 88.2189C103.829 88.2202 103.233 88.0506 102.724 87.7311C102.215 87.4117 101.815 86.9564 101.575 86.422C101.334 85.8875 101.264 85.2974 101.371 84.7249C101.479 84.1524 101.761 83.6228 102.181 83.2018C110.457 74.9331 115.065 63.9301 115.041 52.493C115.041 45.7658 113.406 39.0149 110.321 32.9765C110.122 32.6243 109.999 32.2373 109.96 31.8387C109.922 31.4401 109.968 31.0381 110.096 30.6569C110.224 30.2758 110.432 29.9233 110.706 29.6207C110.981 29.3181 111.317 29.0717 111.693 28.8962C112.07 28.7207 112.48 28.6198 112.899 28.5995C113.318 28.5792 113.737 28.6401 114.13 28.7783C114.524 28.9165 114.884 29.1293 115.189 29.4038C115.494 29.6784 115.738 30.009 115.906 30.3758C119.418 37.2692 121.246 44.8333 121.254 52.499C121.279 65.46 116.056 77.9287 106.677 87.2986C106.39 87.5909 106.044 87.8235 105.658 87.9818C105.273 88.1402 104.858 88.2209 104.438 88.2189Z" fill="#62CA74"/>
<path d="M49.75 88.125C51.4673 88.125 52.8594 86.7958 52.8594 85.1562C52.8594 83.5167 51.4673 82.1875 49.75 82.1875C48.0327 82.1875 46.6406 83.5167 46.6406 85.1562C46.6406 86.7958 48.0327 88.125 49.75 88.125Z" fill="#62CA74"/>
</svg>
