<svg width="24" height="24" viewBox="0 0 24 24" fill="none" xmlns="http://www.w3.org/2000/svg">
<path d="M4 17C4 17.6 4.4 18 5 18C5 20.2 6.8 22 9 22H16C18.2 22 20 20.2 20 18V6C20 3.8 18.2 2 16 2H9C6.8 2 5 3.8 5 6C4.4 6 4 6.4 4 7C4 7.6 4.4 8 5 8V11C4.4 11 4 11.4 4 12C4 12.6 4.4 13 5 13V16C4.4 16 4 16.4 4 17ZM7 13C7.6 13 8 12.6 8 12C8 11.4 7.6 11 7 11V8C7.6 8 8 7.6 8 7C8 6.4 7.6 6 7 6C7 4.9 7.9 4 9 4H16C17.1 4 18 4.9 18 6V18C18 19.1 17.1 20 16 20H9C7.9 20 7 19.1 7 18C7.6 18 8 17.6 8 17C8 16.4 7.6 16 7 16V13Z" fill="#C17B31"/>
<path d="M11.8983 14.7009C12.3983 15.2009 13.0983 15.5009 13.6983 15.5009C13.9983 15.5009 14.2983 15.5009 14.4983 15.4009L15.1983 15.2009C15.6983 15.0009 15.9983 14.5009 15.7983 13.9009C15.5983 13.4009 15.0983 13.1009 14.4983 13.3009L13.7983 13.5009C13.5983 13.6009 13.2983 13.5009 13.1983 13.4009L11.9983 11.9009C11.7983 11.7009 11.7983 11.5009 11.8983 11.3009L12.0983 10.6009C12.2983 10.1009 11.9983 9.50093 11.4983 9.30093C10.9983 9.10093 10.3983 9.40093 10.1983 9.90093L9.99828 10.6009C9.69828 11.5009 9.89828 12.6009 10.5983 13.3009L11.8983 14.7009Z" fill="#C17B31"/>
</svg>
