<svg width="15" height="22" viewBox="0 0 15 22" fill="none" xmlns="http://www.w3.org/2000/svg">
<path d="M3.67448 21.9371C3.51369 21.8693 3.38007 21.7498 3.29471 21.5976C3.20935 21.4453 3.1771 21.269 3.20306 21.0964L4.63304 11.7858H0.838086C0.717775 11.7891 0.598328 11.7646 0.488962 11.7144C0.379595 11.6642 0.283233 11.5895 0.20731 11.4961C0.131387 11.4027 0.0779315 11.2931 0.0510695 11.1758C0.0242074 11.0585 0.0246564 10.9365 0.0523815 10.8194L2.40949 0.605273C2.45097 0.429487 2.55174 0.273358 2.69485 0.163168C2.83795 0.0529774 3.01465 -0.00454605 3.1952 0.00028082H11.0522C11.1696 -0.000118296 11.2856 0.0257877 11.3917 0.0760952C11.4977 0.126403 11.5911 0.199833 11.6651 0.290991C11.7401 0.383179 11.7932 0.491178 11.8204 0.606858C11.8476 0.722537 11.8482 0.842885 11.8222 0.95884L10.463 7.07162H14.1951C14.3423 7.07133 14.4867 7.11242 14.6117 7.19022C14.7368 7.26801 14.8374 7.37938 14.9022 7.51161C14.9585 7.63854 14.9802 7.77811 14.965 7.91613C14.9498 8.05414 14.8983 8.18567 14.8158 8.29732L4.60161 21.6543C4.53258 21.7566 4.4404 21.8412 4.33256 21.9013C4.22472 21.9614 4.10425 21.9952 3.9809 22C3.87577 21.998 3.77189 21.9767 3.67448 21.9371ZM8.4987 8.64303L10.0701 1.57169H3.82376L1.82807 10.2144H6.47158L5.22232 18.2915L12.6237 8.64303H8.4987Z" fill="#FDB813"/>
</svg>
