<svg width="25" height="24" viewBox="0 0 25 24" fill="none" xmlns="http://www.w3.org/2000/svg">
<path d="M18.5 5.99628H14.91L17.21 3.70628C17.3032 3.61304 17.3772 3.50235 17.4277 3.38053C17.4781 3.25871 17.5041 3.12814 17.5041 2.99628C17.5041 2.86442 17.4781 2.73385 17.4277 2.61203C17.3772 2.49021 17.3032 2.37952 17.21 2.28628C17.1168 2.19304 17.0061 2.11908 16.8842 2.06862C16.7624 2.01816 16.6319 1.99219 16.5 1.99219C16.2337 1.99219 15.9783 2.09798 15.79 2.28628L12.5 5.58628L9.21 2.28628C9.11676 2.19304 9.00607 2.11908 8.88425 2.06862C8.76243 2.01816 8.63186 1.99219 8.5 1.99219C8.36814 1.99219 8.23757 2.01816 8.11575 2.06862C7.99393 2.11908 7.88324 2.19304 7.79 2.28628C7.6017 2.47458 7.49591 2.72998 7.49591 2.99628C7.49591 3.12814 7.52188 3.25871 7.57234 3.38053C7.6228 3.50235 7.69676 3.61304 7.79 3.70628L10.09 5.99628H6.5C5.70435 5.99628 4.94129 6.31235 4.37868 6.87496C3.81607 7.43757 3.5 8.20063 3.5 8.99628V18.9963C3.5 19.7919 3.81607 20.555 4.37868 21.1176C4.94129 21.6802 5.70435 21.9963 6.5 21.9963H18.5C19.2956 21.9963 20.0587 21.6802 20.6213 21.1176C21.1839 20.555 21.5 19.7919 21.5 18.9963V8.99628C21.5 8.20063 21.1839 7.43757 20.6213 6.87496C20.0587 6.31235 19.2956 5.99628 18.5 5.99628ZM19.5 18.9963C19.5 19.2615 19.3946 19.5159 19.2071 19.7034C19.0196 19.8909 18.7652 19.9963 18.5 19.9963H6.5C6.23478 19.9963 5.98043 19.8909 5.79289 19.7034C5.60536 19.5159 5.5 19.2615 5.5 18.9963V8.99628C5.5 8.73106 5.60536 8.47671 5.79289 8.28917C5.98043 8.10164 6.23478 7.99628 6.5 7.99628H18.5C18.7652 7.99628 19.0196 8.10164 19.2071 8.28917C19.3946 8.47671 19.5 8.73106 19.5 8.99628V18.9963Z" fill="#FDB813"/>
</svg>
