<svg width="14" height="14" viewBox="0 0 14 14" fill="none" xmlns="http://www.w3.org/2000/svg">
<path d="M8.47628 5.52461L5.52461 8.47628C5.14544 8.09711 4.91211 7.57794 4.91211 7.00044C4.91211 5.84544 5.84544 4.91211 7.00044 4.91211C7.57794 4.91211 8.09711 5.14544 8.47628 5.52461Z" stroke="#292D32" stroke-width="1.5" stroke-linecap="round" stroke-linejoin="round"/>
<path d="M10.3959 3.36578C9.37505 2.59578 8.20839 2.17578 7.00089 2.17578C4.94172 2.17578 3.02255 3.38911 1.68672 5.48911C1.16172 6.31161 1.16172 7.69411 1.68672 8.51661C2.14755 9.23995 2.68422 9.86411 3.26755 10.3658" stroke="#292D32" stroke-width="1.5" stroke-linecap="round" stroke-linejoin="round"/>
<path d="M4.91211 11.3917C5.57711 11.6717 6.28294 11.8233 7.00044 11.8233C9.05961 11.8233 10.9788 10.61 12.3146 8.51C12.8396 7.6875 12.8396 6.305 12.3146 5.4825C12.1221 5.17917 11.9121 4.89333 11.6963 4.625" stroke="#292D32" stroke-width="1.5" stroke-linecap="round" stroke-linejoin="round"/>
<path d="M9.04734 7.4082C8.89568 8.2307 8.22484 8.90154 7.40234 9.0532" stroke="#292D32" stroke-width="1.5" stroke-linecap="round" stroke-linejoin="round"/>
<path d="M5.52352 8.47656L1.16602 12.8341" stroke="#292D32" stroke-width="1.5" stroke-linecap="round" stroke-linejoin="round"/>
<path d="M12.8321 1.16602L8.47461 5.52352" stroke="#292D32" stroke-width="1.5" stroke-linecap="round" stroke-linejoin="round"/>
</svg>
