<svg width="24" height="40" viewBox="0 0 24 40" fill="none" xmlns="http://www.w3.org/2000/svg">
<path d="M22 3.25H2C1.59 3.25 1.25 2.91 1.25 2.5C1.25 2.09 1.59 1.75 2 1.75H22C22.41 1.75 22.75 2.09 22.75 2.5C22.75 2.91 22.41 3.25 22 3.25Z" fill="#B0B0B0"/>
<path d="M3.66992 2.5V14.47C3.66992 15.45 4.12992 16.38 4.91992 16.97L10.1299 20.87C11.2399 21.7 12.7699 21.7 13.8799 20.87L19.0899 16.97C19.8799 16.38 20.3399 15.45 20.3399 14.47V2.5H3.66992ZM15.9999 13.75H7.99992C7.58992 13.75 7.24992 13.41 7.24992 13C7.24992 12.59 7.58992 12.25 7.99992 12.25H15.9999C16.4099 12.25 16.7499 12.59 16.7499 13C16.7499 13.41 16.4099 13.75 15.9999 13.75ZM15.9999 8.75H7.99992C7.58992 8.75 7.24992 8.41 7.24992 8C7.24992 7.59 7.58992 7.25 7.99992 7.25H15.9999C16.4099 7.25 16.7499 7.59 16.7499 8C16.7499 8.41 16.4099 8.75 15.9999 8.75Z" fill="#B0B0B0"/>
<path d="M2.78 37V29.95H5.87C6.63667 29.95 7.22667 30.1133 7.64 30.44C8.05333 30.76 8.26 31.2067 8.26 31.78C8.26 32.2067 8.13333 32.5667 7.88 32.86C7.62667 33.1533 7.27667 33.35 6.83 33.45V33.3C7.34333 33.3733 7.74 33.56 8.02 33.86C8.30667 34.1533 8.45 34.5433 8.45 35.03C8.45 35.6567 8.23333 36.1433 7.8 36.49C7.36667 36.83 6.76333 37 5.99 37H2.78ZM4.02 36.02H5.84C6.27333 36.02 6.61 35.94 6.85 35.78C7.09 35.6133 7.21 35.3433 7.21 34.97C7.21 34.59 7.09 34.32 6.85 34.16C6.61 33.9933 6.27333 33.91 5.84 33.91H4.02V36.02ZM4.02 32.94H5.65C6.11 32.94 6.45 32.8567 6.67 32.69C6.89667 32.5167 7.01 32.2633 7.01 31.93C7.01 31.5967 6.89667 31.3467 6.67 31.18C6.45 31.0067 6.11 30.92 5.65 30.92H4.02V32.94ZM9.6343 37V31.95H10.8843V37H9.6343ZM9.5643 31V29.78H10.9543V31H9.5643ZM12.2917 37V29.64H13.5417V37H12.2917ZM14.9491 37V29.64H16.1991V37H14.9491ZM19.4066 37.1C18.9732 37.1 18.5732 37.05 18.2066 36.95C17.8466 36.8433 17.5432 36.6967 17.2966 36.51L17.6466 35.67C17.8999 35.8433 18.1799 35.9767 18.4866 36.07C18.7932 36.1633 19.1032 36.21 19.4166 36.21C19.7499 36.21 19.9966 36.1533 20.1566 36.04C20.3232 35.9267 20.4066 35.7733 20.4066 35.58C20.4066 35.4267 20.3532 35.3067 20.2466 35.22C20.1466 35.1267 19.9832 35.0567 19.7566 35.01L18.7566 34.82C18.3299 34.7267 18.0032 34.5667 17.7766 34.34C17.5566 34.1133 17.4466 33.8167 17.4466 33.45C17.4466 33.1367 17.5299 32.86 17.6966 32.62C17.8699 32.38 18.1132 32.1933 18.4266 32.06C18.7466 31.92 19.1199 31.85 19.5466 31.85C19.9199 31.85 20.2699 31.9 20.5966 32C20.9299 32.1 21.2099 32.25 21.4366 32.45L21.0766 33.26C20.8699 33.0933 20.6332 32.9633 20.3666 32.87C20.0999 32.7767 19.8399 32.73 19.5866 32.73C19.2399 32.73 18.9866 32.7933 18.8266 32.92C18.6666 33.04 18.5866 33.1967 18.5866 33.39C18.5866 33.5367 18.6332 33.66 18.7266 33.76C18.8266 33.8533 18.9799 33.9233 19.1866 33.97L20.1866 34.16C20.6332 34.2467 20.9699 34.4 21.1966 34.62C21.4299 34.8333 21.5466 35.1267 21.5466 35.5C21.5466 35.8333 21.4566 36.12 21.2766 36.36C21.0966 36.6 20.8466 36.7833 20.5266 36.91C20.2066 37.0367 19.8332 37.1 19.4066 37.1Z" fill="#B0B0B0"/>
</svg>
