<svg width="27" height="27" viewBox="0 0 27 27" fill="none" xmlns="http://www.w3.org/2000/svg">
<rect width="27" height="27" rx="13.5" fill="#C17B31"/>
<path d="M19.8853 10.3407L15.5187 6.84733C14.6653 6.16733 13.332 6.16066 12.4853 6.84066L8.11867 10.3407C7.49201 10.8407 7.11201 11.8407 7.24534 12.6273L8.08534 17.654C8.27867 18.7807 9.32534 19.6673 10.4653 19.6673H17.532C18.6587 19.6673 19.7253 18.7607 19.9187 17.6473L20.7587 12.6207C20.8787 11.8407 20.4987 10.8407 19.8853 10.3407ZM14.4987 17.0007C14.4987 17.274 14.272 17.5007 13.9987 17.5007C13.7253 17.5007 13.4987 17.274 13.4987 17.0007V15.0007C13.4987 14.7273 13.7253 14.5007 13.9987 14.5007C14.272 14.5007 14.4987 14.7273 14.4987 15.0007V17.0007Z" fill="white"/>
</svg>
