<?xml version="1.0" encoding="UTF-8"?>
<svg version="1.1" viewBox="0 0 2048 1534" width="1280" height="1280" xmlns="http://www.w3.org/2000/svg">
<path transform="translate(1e3 207)" d="m0 0h40l29 3 23 4 21 6 3 2-1 6-5 16-14 47-13 44-7 22-1 2-9-2-17-4-24-3h-15l-24 3-21 5-20 8-17 9-14 10-10 8-12 11-12 13-10 14-13 24-7 17-5 22-2 13-1 14v20l2 17 6 23 6 16 12 23 13 18 9 10 13 13 18 13 19 11 21 9 23 6 14 2h42l17-3 22-6 20-9 19-11 12-9 10-8 10-10 7-9 10-12 9-16 8-17 5-15 5-21 2-12v-33l-3-18-2-9 75-20 61-16h5l4 13 4 24 2 24v44l-3 27-5 25-7 24-11 28-12 25-14 24-16 29-15 28-13 24-17 32-10 18-30 56-13 24-24 44-28 52-10 18-28 52-12 23-13 23-4 6-3 2h-213l-1-2 12-21 16-29 14-26 10-18 17-32 36-66 14-26 10-18 18-34 4-10 1-7-20-2-26-5-19-5-26-9-25-11-17-9-18-11-19-14-13-11-15-14-14-14-7-8-10-12-13-18-9-15-10-18-10-22-8-20-7-24-7-36-2-27v-29l3-32 5-26 7-26 10-27 12-25 10-17 12-19 14-18 11-13 21-21 11-9 15-12 21-14 17-10 29-14 19-7 19-6 27-6 28-4z" fill="#01694F"/>
<path transform="translate(1006,430)" d="m0 0h32l16 4 16 8 12 8 12 11 8 10 8 14 6 16 3 12 1 9-1 16-4 19-4 12-9 14-11 13-14 12-15 8-15 5-10 2-20 1-17-2-17-5-17-9-13-12-10-11-10-17-6-17-3-13v-18l4-20 6-16 8-14 11-13 12-10 15-9 13-5z" fill="#CFD215"/>
<path transform="translate(756,1215)" d="m0 0h12l12 2 10 5 6-2 6-3 15-2h16l13 2 9 4 7 8 3 8 2 15v69l-1 1h-18l-2-1-1-9-1-65-5-8-8-5-7-1h-11l-8 2-3 2-1 3-1 81-2 1h-12l-6-2-1-71-4-8-5-5-4-2-8-1h-13l-13 2-1 87-4 1h-15l-2-7v-88l4-5 11-4 17-3z" fill="#01694F"/>
<path transform="translate(1020,1175)" d="m0 0h20v33l-1 11 6-2 19-2h9l14 2 10 5 5 4 7 11 5 13 1 6v27l-4 16-6 10-7 7-12 6-12 3h-28l-12-3-8-5-5-6-2-8v-125zm33 58-9 3-3 3-1 4v50l2 10 10 4 6 1h11l11-4 8-7 4-10 1-7v-22l-3-10-6-9-5-4-6-2z" fill="#01694F"/>
<path transform="translate(1129,292)" d="m0 0 7 1 18 10 22 15 13 10 10 9 19 19 11 14 16 24 9 16 7 17-1 5-15 9-6-3-12-13-7-8-16-16-7-8-17-17-7-8-13-13-7-8-7-7-7-8-14-15-6-7 3-9z" fill="#CFD215"/>
<path transform="translate(1141,229)" d="m0 0 9 2 16 8 19 10 19 12 19 14 15 13 13 12 8 8 7 8 13 16 14 20 12 21 12 23 6 16 1 6-4 4-9 3h-5l-6-9-17-35-12-20-16-21-11-14-23-23-14-11-13-10-19-12-27-14-11-6-2-2-1-6 6-12z" fill="#CFD215"/>
<path transform="translate(930,1215)" d="m0 0h24l13 3 10 6 8 9 6 12 3 17v18l-3 15-6 12-10 10-12 6-13 3h-13l-13-2-9-4-9-7-7-10-5-13-2-13v-12l2-15 4-11 6-10 9-8 8-4zm8 17-10 3-8 7-4 9-2 10v20l3 12 4 6 7 6 8 3h14l9-4 7-6 4-8 2-10v-20l-2-10-5-9-7-6-5-2-7-1z" fill="#01694F"/>
<path transform="translate(1280,1215)" d="m0 0h19l12 3 10 6 7 8 6 12 3 13 1 15-3 2-47 1h-24l1 10 5 10 5 6 10 5 4 1h17l17-5 8-3v8l-2 8-4 5-11 4-13 2h-18l-11-2-10-6-7-7-7-11-5-14-1-5v-22l5-18 6-11 8-8 9-5zm2 17-8 4-8 9-3 9 1 4 17 1h13l19-1 3-3-4-13-6-7-8-3z" fill="#01694F"/>
<path transform="translate(1103,356)" d="m0 0 6 1 14 8 21 14 12 11 12 12 10 13 11 17 11 20-1 5-10 8-4 2-5-1-8-7-9-10-14-14-7-8-22-22-7-8-11-12-7-7-3-4 1-5 8-11z" fill="#CFD215"/>
<path transform="translate(1195,1177)" d="m0 0h20l2 1v143l-2 1h-19l-2-4z" fill="#01694F"/>
<path transform="translate(1142,1217)" d="m0 0h19l2 1v102l-1 1h-18l-2-2z" fill="#01694F"/>
<path transform="translate(1142,1180)" d="m0 0h21l1 1-1 19h-21l-1-1-1-15z" fill="#01694F"/>
</svg>
