<?xml version="1.0" standalone="no"?>
<!DOCTYPE svg PUBLIC "-//W3C//DTD SVG 20010904//EN"
 "http://www.w3.org/TR/2001/REC-SVG-20010904/DTD/svg10.dtd">
<svg version="1.0" xmlns="http://www.w3.org/2000/svg"
 width="293.000000pt" height="545.000000pt" viewBox="0 0 293.000000 545.000000"
 preserveAspectRatio="xMidYMid meet">

<g transform="translate(0.000000,545.000000) scale(0.100000,-0.100000)"
fill="#000000" stroke="none">
<path d="M435 5259 c-125 -43 -208 -123 -256 -247 -19 -49 -23 -82 -26 -237
-3 -99 -9 -184 -14 -189 -12 -14 -11 -183 1 -191 13 -8 13 -165 0 -165 -14 0
-14 -347 0 -355 13 -8 13 -88 0 -101 -7 -7 -9 -69 -5 -185 3 -96 9 -847 13
-1669 8 -1639 3 -1527 66 -1634 29 -50 103 -119 157 -146 99 -51 88 -51 1111
-48 l953 3 69 32 c140 63 225 174 246 320 6 42 10 645 10 1575 0 994 3 1509
10 1513 6 4 10 110 10 286 0 179 -4 279 -10 279 -6 0 -10 133 -10 378 0 207
-5 409 -10 447 -22 146 -95 247 -228 313 l-76 37 -975 2 c-963 3 -977 2 -1036
-18z m386 -149 c4 -8 11 -31 14 -51 7 -48 43 -85 94 -99 28 -7 201 -10 549 -8
470 3 510 4 535 21 35 23 67 74 67 108 0 47 16 51 182 47 171 -4 209 -15 263
-80 59 -70 55 95 55 -2364 l0 -2266 -27 -51 c-41 -76 -94 -107 -199 -119 -47
-5 -471 -8 -967 -6 l-883 3 -49 26 c-63 32 -110 93 -124 161 -8 38 -11 703 -9
2283 3 2124 4 2232 21 2270 30 66 84 113 157 136 14 4 90 7 169 6 116 -2 145
-5 152 -17z"/>
<path d="M427 5044 c-4 -4 -3 -12 1 -18 4 -6 7 -14 8 -18 1 -5 2 -11 3 -14 2
-10 31 17 31 28 0 6 -7 8 -15 5 -8 -4 -17 -2 -20 3 -3 5 3 11 12 13 14 4 15 5
2 6 -9 0 -19 -2 -22 -5z"/>
<path d="M504 5036 c-8 -22 3 -49 19 -43 6 2 12 14 12 27 0 27 -22 39 -31 16z
m26 -16 c0 -11 -4 -20 -10 -20 -5 0 -10 9 -10 20 0 11 5 20 10 20 6 0 10 -9
10 -20z"/>
<path d="M557 5042 c-10 -15 0 -47 14 -47 17 0 19 47 2 52 -6 2 -14 0 -16 -5z
m23 -22 c0 -11 -4 -20 -8 -20 -4 0 -8 9 -9 20 -1 11 2 20 8 20 5 0 9 -9 9 -20z"/>
<path d="M2212 5025 c0 -16 2 -22 5 -12 2 9 2 23 0 30 -3 6 -5 -1 -5 -18z"/>
<path d="M2263 5044 c-13 -6 14 -44 32 -44 5 0 4 4 -3 9 -10 6 -7 10 12 15 15
4 24 11 21 16 -6 10 -41 12 -62 4z m40 -11 c-7 -2 -19 -2 -25 0 -7 3 -2 5 12
5 14 0 19 -2 13 -5z"/>
<path d="M2192 5020 c0 -14 2 -19 5 -12 2 6 2 18 0 25 -3 6 -5 1 -5 -13z"/>
<path d="M2370 5020 c0 -19 5 -21 48 -18 34 2 47 7 47 18 0 11 -13 16 -47 18
-43 3 -48 1 -48 -18z"/>
<path d="M2160 5016 c0 -9 5 -16 10 -16 6 0 10 4 10 9 0 6 -4 13 -10 16 -5 3
-10 -1 -10 -9z"/>
<path d="M562 4300 c0 -14 2 -19 5 -12 2 6 2 18 0 25 -3 6 -5 1 -5 -13z"/>
<path d="M625 4299 c-4 -6 -5 -12 -2 -15 2 -3 7 2 10 11 7 17 1 20 -8 4z"/>
<path d="M662 4290 c0 -14 2 -19 5 -12 2 6 2 18 0 25 -3 6 -5 1 -5 -13z"/>
<path d="M755 4299 c-4 -6 -5 -12 -2 -15 2 -3 7 2 10 11 7 17 1 20 -8 4z"/>
<path d="M861 4284 c0 -11 3 -14 6 -6 3 7 2 16 -1 19 -3 4 -6 -2 -5 -13z"/>
<path d="M920 4291 c0 -6 4 -13 10 -16 6 -3 7 1 4 9 -7 18 -14 21 -14 7z"/>
<path d="M1092 4064 c-48 -33 -17 -114 44 -114 28 0 57 33 57 65 0 55 -55 81
-101 49z m58 -30 c0 -8 -4 -13 -9 -10 -5 4 -12 0 -14 -6 -3 -7 -6 -3 -6 10 -1
13 5 22 14 22 8 0 15 -7 15 -16z m10 -44 c-20 -13 -60 -13 -60 0 0 6 17 10 38
10 27 0 33 -3 22 -10z"/>
<path d="M1600 4017 c0 -29 31 -57 63 -56 l32 1 -34 8 c-36 9 -54 27 -46 48 2
6 0 12 -5 12 -6 0 -10 -6 -10 -13z"/>
<path d="M593 4013 c9 -2 23 -2 30 0 6 3 -1 5 -18 5 -16 0 -22 -2 -12 -5z"/>
<path d="M520 3204 c0 -13 18 -39 24 -34 2 3 -2 14 -10 24 -8 11 -14 16 -14
10z"/>
<path d="M1091 3174 c0 -11 3 -14 6 -6 3 7 2 16 -1 19 -3 4 -6 -2 -5 -13z"/>
<path d="M891 2894 c0 -11 3 -14 6 -6 3 7 2 16 -1 19 -3 4 -6 -2 -5 -13z"/>
<path d="M605 2890 c3 -5 8 -10 11 -10 2 0 4 5 4 10 0 6 -5 10 -11 10 -5 0 -7
-4 -4 -10z"/>
<path d="M575 2729 c4 -10 2 -20 -4 -24 -17 -10 -13 -25 7 -24 11 0 12 2 4 6
-10 4 -10 8 -1 19 9 12 9 18 0 27 -10 9 -11 8 -6 -4z"/>
<path d="M627 2733 c-12 -12 -7 -23 11 -23 13 0 14 2 3 9 -11 7 -11 9 0 14 8
3 9 6 3 6 -6 1 -14 -2 -17 -6z"/>
<path d="M670 2724 c-11 -12 -10 -18 5 -32 18 -16 18 -16 6 1 -11 14 -11 20
-1 32 7 8 10 15 7 15 -2 0 -10 -7 -17 -16z"/>
<path d="M730 2733 c5 -2 10 -14 9 -26 0 -21 -1 -21 -9 -2 -8 19 -9 19 -9 -3
-1 -15 4 -22 12 -19 16 5 16 50 -1 53 -7 1 -8 0 -2 -3z"/>
<path d="M784 2725 c-3 -8 -4 -20 -2 -27 3 -7 7 -1 10 15 6 29 1 36 -8 12z"/>
<path d="M997 2733 c-9 -9 -9 -41 1 -46 4 -3 7 8 7 24 0 16 0 29 -1 29 0 0 -4
-3 -7 -7z"/>
<path d="M1049 2732 c8 -6 12 -19 8 -32 -4 -16 -3 -20 4 -13 15 15 7 45 -11
50 -12 4 -13 3 -1 -5z"/>
<path d="M1124 2728 c-4 -6 -3 -8 4 -4 5 3 13 0 15 -6 3 -8 6 -6 6 5 1 19 -14
23 -25 5z"/>
<path d="M900 2711 c0 -25 6 -27 13 -6 4 8 2 17 -3 20 -6 4 -10 -3 -10 -14z"/>
<path d="M927 2716 c-4 -10 -5 -21 -2 -24 9 -9 17 6 13 25 -3 17 -4 17 -11 -1z"/>
<path d="M952 2707 c3 -24 21 -27 26 -4 2 8 -4 17 -13 21 -13 4 -16 1 -13 -17z"/>
<path d="M1206 2722 c-2 -4 -1 -14 5 -22 7 -12 9 -10 9 8 0 23 -5 28 -14 14z"/>
<path d="M831 2707 c-1 -11 -6 -15 -13 -11 -7 5 -8 3 -3 -5 10 -16 29 2 22 21
-4 8 -6 7 -6 -5z"/>
<path d="M851 2704 c0 -11 3 -14 6 -6 3 7 2 16 -1 19 -3 4 -6 -2 -5 -13z"/>
<path d="M1180 2706 c0 -8 4 -17 9 -20 5 -4 7 3 4 14 -6 23 -13 26 -13 6z"/>
<path d="M1310 2705 c5 -7 6 -16 2 -21 -4 -5 -3 -5 2 -1 15 12 15 34 0 34 -9
0 -11 -4 -4 -12z"/>
<path d="M1351 2704 c0 -11 3 -14 6 -6 3 7 2 16 -1 19 -3 4 -6 -2 -5 -13z"/>
<path d="M1230 2706 c0 -2 7 -6 15 -10 8 -3 15 -1 15 4 0 6 -7 10 -15 10 -8 0
-15 -2 -15 -4z"/>
<path d="M1270 2688 c0 -19 2 -20 10 -8 13 19 13 30 0 30 -5 0 -10 -10 -10
-22z"/>
<path d="M1130 2690 c0 -5 5 -10 11 -10 5 0 7 5 4 10 -3 6 -8 10 -11 10 -2 0
-4 -4 -4 -10z"/>
<path d="M580 1916 c0 -2 8 -10 18 -17 15 -13 16 -12 3 4 -13 16 -21 21 -21
13z"/>
<path d="M641 1904 c0 -11 3 -14 6 -6 3 7 2 16 -1 19 -3 4 -6 -2 -5 -13z"/>
<path d="M701 1904 c0 -11 3 -14 6 -6 3 7 2 16 -1 19 -3 4 -6 -2 -5 -13z"/>
<path d="M1085 300 c-4 -7 115 -10 349 -10 231 0 356 4 356 10 0 14 -697 14
-705 0z"/>
</g>
</svg>
