<?xml version="1.0" standalone="no"?>
<!DOCTYPE svg PUBLIC "-//W3C//DTD SVG 20010904//EN"
 "http://www.w3.org/TR/2001/REC-SVG-20010904/DTD/svg10.dtd">
<svg version="1.0" xmlns="http://www.w3.org/2000/svg"
 width="303.000000pt" height="545.000000pt" viewBox="0 0 303.000000 545.000000"
 preserveAspectRatio="xMidYMid meet">

<g transform="translate(0.000000,545.000000) scale(0.100000,-0.100000)"
fill="#000000" stroke="none">
<path d="M505 5271 c-80 -23 -111 -41 -173 -96 -62 -56 -107 -143 -122 -235
-5 -36 -10 -129 -10 -207 0 -89 -4 -143 -10 -143 -6 0 -10 -38 -10 -95 0 -57
4 -95 10 -95 13 0 13 -153 0 -166 -12 -12 -8 -316 5 -393 5 -27 3 -51 -4 -65
-9 -15 -10 -70 -6 -186 3 -91 9 -840 13 -1665 6 -1361 9 -1504 24 -1541 51
-127 104 -186 216 -242 l76 -37 991 0 991 0 76 37 c41 21 95 57 118 80 53 53
99 147 110 230 6 36 10 719 10 1576 0 1001 3 1512 10 1512 13 0 14 552 1 565
-6 6 -11 188 -14 430 -4 455 -5 461 -62 560 -30 50 -102 118 -156 145 -98 50
-90 50 -1090 49 -857 0 -939 -2 -994 -18z m359 -147 c9 -8 16 -27 16 -42 0
-15 9 -42 20 -60 39 -63 34 -63 620 -60 520 3 529 3 557 24 27 20 45 56 57
117 l6 27 158 0 c136 0 163 -3 202 -21 58 -26 77 -44 106 -101 l24 -47 0
-2264 c0 -2471 4 -2295 -56 -2366 -15 -18 -45 -42 -68 -54 l-41 -22 -960 0
-960 0 -41 22 c-47 25 -89 71 -113 123 -15 32 -16 246 -16 2295 l0 2260 24 45
c53 102 95 123 256 131 66 3 137 6 157 7 22 1 43 -4 52 -14z"/>
<path d="M1126 4032 c-3 -5 -10 -22 -16 -37 -10 -25 -9 -27 5 -15 13 11 21 11
36 2 19 -12 20 -12 3 20 -21 41 -21 41 -28 30z"/>
<path d="M1471 4003 c1 -21 3 -30 6 -20 6 21 12 22 28 0 11 -15 13 -13 11 17
-1 28 -6 36 -24 38 -20 3 -22 -1 -21 -35z m34 17 c3 -5 -1 -10 -9 -10 -9 0
-16 5 -16 10 0 6 4 10 9 10 6 0 13 -4 16 -10z"/>
<path d="M1631 4005 c0 -37 1 -38 11 -15 l10 25 9 -22 c10 -28 19 -29 19 -3 0
11 -8 24 -17 27 -10 4 -21 11 -25 17 -4 6 -7 -7 -7 -29z"/>
<path d="M1243 4009 c4 -13 7 -27 7 -31 0 -5 4 -8 8 -8 13 0 6 54 -8 58 -9 3
-11 -2 -7 -19z"/>
<path d="M1182 3995 c0 -16 2 -22 5 -12 2 9 2 23 0 30 -3 6 -5 -1 -5 -18z"/>
<path d="M1201 3993 c0 -16 3 -22 6 -13 3 8 10 21 16 28 7 8 5 12 -7 12 -11 0
-16 -8 -15 -27z"/>
<path d="M1282 3995 c0 -16 2 -22 5 -12 2 9 2 23 0 30 -3 6 -5 -1 -5 -18z"/>
<path d="M1301 3992 l0 -27 11 25 11 25 6 -25 7 -25 8 25 8 25 7 -25 c4 -15
10 -20 14 -13 13 21 -4 40 -38 41 -32 1 -35 -1 -34 -26z"/>
<path d="M1397 4014 c-16 -17 -7 -44 16 -43 21 0 21 1 2 9 -18 8 -18 9 -2 9
10 1 17 6 15 13 -5 14 -22 21 -31 12z"/>
<path d="M1534 4006 c-8 -20 3 -36 24 -35 14 0 13 2 -3 9 -18 8 -18 9 -2 9 10
1 17 6 15 13 -7 19 -27 21 -34 4z"/>
<path d="M1584 4005 c-8 -19 3 -35 24 -35 13 0 13 2 -3 14 -18 13 -18 13 1 24
17 10 18 11 1 12 -10 0 -20 -7 -23 -15z"/>
<path d="M1697 4013 c-15 -15 -7 -43 13 -43 15 0 20 7 20 25 0 24 -18 34 -33
18z m23 -18 c0 -8 -4 -15 -10 -15 -5 0 -10 7 -10 15 0 8 5 15 10 15 6 0 10 -7
10 -15z"/>
<path d="M1751 3991 c2 -23 2 -24 6 -3 5 25 23 30 23 6 0 -9 10 -18 22 -22 21
-5 21 -6 2 -14 -18 -8 -18 -8 1 -5 14 1 21 11 23 34 3 31 2 32 -37 31 -38 0
-41 -2 -40 -27z m69 4 c0 -8 -4 -15 -9 -15 -13 0 -22 16 -14 24 11 11 23 6 23
-9z"/>
<path d="M1844 4005 c-8 -19 3 -35 24 -35 15 0 15 2 2 10 -10 6 -11 10 -2 10
6 0 12 7 12 15 0 19 -29 20 -36 0z"/>
<path d="M1280 3905 c0 -9 7 -18 15 -21 8 -4 15 -11 15 -16 0 -6 -8 -7 -17 -3
-15 5 -16 4 -5 -6 10 -11 16 -10 30 4 16 17 16 18 -6 23 -26 7 -29 21 -4 27
13 4 11 5 -5 6 -15 1 -23 -5 -23 -14z"/>
<path d="M1637 3908 c-2 -7 -1 -22 4 -33 5 -14 8 -15 9 -5 1 8 3 23 5 33 4 19
-10 23 -18 5z"/>
<path d="M1732 3890 c0 -19 2 -27 5 -17 2 9 2 25 0 35 -3 9 -5 1 -5 -18z"/>
<path d="M1341 3884 c-1 -11 2 -23 5 -27 12 -12 34 6 33 27 0 19 -1 19 -11 -4
l-11 -25 -7 25 c-7 22 -8 22 -9 4z"/>
<path d="M1394 3889 c-3 -6 1 -17 10 -25 9 -8 11 -9 6 -2 -14 17 -12 26 8 31
15 4 15 5 0 6 -9 0 -20 -4 -24 -10z"/>
<path d="M1440 3881 c0 -10 8 -22 18 -26 14 -5 15 -4 5 6 -18 18 -16 27 5 32
13 4 11 5 -5 6 -16 1 -23 -5 -23 -18z"/>
<path d="M1492 3878 c2 -12 9 -23 16 -24 7 -1 8 0 2 3 -16 8 -12 36 5 29 8 -3
15 -1 15 4 0 6 -9 10 -21 10 -15 0 -20 -5 -17 -22z"/>
<path d="M1540 3890 c0 -5 7 -7 15 -4 8 4 15 8 15 10 0 2 -7 4 -15 4 -8 0 -15
-4 -15 -10z"/>
<path d="M1590 3891 c0 -5 5 -13 10 -16 6 -4 7 -12 4 -18 -5 -9 -4 -9 6 0 10
9 10 15 -4 28 -9 9 -16 12 -16 6z"/>
<path d="M1671 3883 c-1 -12 4 -25 9 -28 12 -7 12 2 0 30 -8 19 -9 19 -9 -2z"/>
<path d="M1702 3880 c0 -14 2 -19 5 -12 2 6 2 18 0 25 -3 6 -5 1 -5 -13z"/>
<path d="M1557 3866 c-4 -10 -1 -13 8 -9 8 3 12 9 9 14 -7 12 -11 11 -17 -5z"/>
<path d="M1714 3465 c-8 -19 3 -35 26 -35 22 0 33 23 17 39 -15 15 -37 14 -43
-4z"/>
<path d="M1486 3443 c-6 -14 -5 -15 5 -6 7 7 10 15 7 18 -3 3 -9 -2 -12 -12z"/>
<path d="M1350 3421 c0 -13 26 -32 33 -24 8 7 -11 33 -24 33 -5 0 -9 -4 -9 -9z"/>
<path d="M1404 3358 c24 -60 29 -92 19 -129 -6 -24 -7 -42 -1 -45 15 -10 21 3
26 60 5 62 -13 126 -35 126 -8 0 -12 -6 -9 -12z"/>
<path d="M1623 2939 c-13 -13 -45 -32 -90 -53 -25 -11 -33 -21 -33 -40 0 -16
6 -26 14 -26 8 0 13 8 12 18 -1 13 6 17 27 15 21 -1 27 3 27 19 0 18 4 20 31
14 24 -4 30 -3 26 8 -9 22 13 37 35 25 17 -9 19 -8 16 8 -4 21 -47 30 -65 12z"/>
<path d="M905 912 c-23 -5 -45 -21 -45 -33 0 -4 7 -15 16 -24 13 -13 44 -15
195 -15 98 1 181 5 184 10 3 4 13 6 23 4 9 -3 26 2 37 11 20 15 20 15 1 30
-11 8 -42 15 -70 16 -186 4 -324 4 -341 1z"/>
<path d="M1746 908 c-71 -9 -88 -22 -60 -42 29 -22 54 -24 244 -25 155 -1 178
1 199 18 l24 18 -21 21 c-19 19 -31 20 -174 19 -84 -1 -180 -5 -212 -9z"/>
</g>
</svg>
