<?xml version="1.0" standalone="no"?>
<!DOCTYPE svg PUBLIC "-//W3C//DTD SVG 20010904//EN"
 "http://www.w3.org/TR/2001/REC-SVG-20010904/DTD/svg10.dtd">
<svg version="1.0" xmlns="http://www.w3.org/2000/svg"
 width="281.000000pt" height="545.000000pt" viewBox="0 0 281.000000 545.000000"
 preserveAspectRatio="xMidYMid meet">

<g transform="translate(0.000000,545.000000) scale(0.100000,-0.100000)"
fill="#000000" stroke="none">
<path d="M464 5225 c-133 -42 -229 -135 -270 -261 -10 -33 -17 -106 -21 -227
-3 -98 -10 -180 -14 -183 -12 -7 -11 -171 1 -179 13 -8 13 -158 0 -171 -7 -7
-9 -69 -6 -180 3 -93 5 -190 5 -216 0 -90 1 -386 9 -1858 8 -1593 5 -1492 60
-1598 45 -86 143 -161 244 -188 76 -20 1888 -21 1963 0 75 20 128 50 183 105
61 61 98 134 112 221 6 42 10 581 10 1547 0 977 3 1484 10 1488 6 4 10 108 10
281 0 176 -4 274 -10 274 -6 0 -10 134 -10 383 0 225 -4 408 -11 443 -28 161
-136 278 -294 320 -72 20 -1910 18 -1971 -1z m370 -151 c3 -9 6 -24 6 -35 0
-33 29 -79 63 -99 31 -19 54 -20 552 -20 498 0 521 1 552 20 36 21 63 66 63
103 0 45 17 49 187 45 134 -3 162 -6 188 -23 50 -31 76 -58 98 -100 l22 -40 3
-2185 c2 -1202 0 -2209 -3 -2237 -8 -69 -55 -139 -115 -173 l-45 -25 -950 0
-950 0 -42 22 c-52 28 -90 77 -109 139 -21 71 -21 4387 0 4458 20 67 61 114
120 142 47 22 64 24 202 24 129 0 153 -2 158 -16z"/>
<path d="M2202 4990 c0 -19 2 -27 5 -17 2 9 2 25 0 35 -3 9 -5 1 -5 -18z"/>
<path d="M2260 5010 c-11 -7 -11 -10 -2 -10 7 0 10 -4 7 -10 -3 -5 -1 -10 5
-10 6 0 8 -4 5 -10 -3 -5 -1 -10 4 -10 10 0 15 14 12 34 -1 5 6 6 16 2 16 -5
15 -4 -1 9 -23 18 -26 18 -46 5z"/>
<path d="M440 4998 c0 -10 8 -18 18 -19 14 0 14 -2 -3 -9 -19 -8 -19 -9 3 -9
18 -1 22 4 22 27 0 21 -2 24 -10 12 -9 -13 -11 -13 -20 0 -8 13 -10 12 -10 -2z"/>
<path d="M517 4997 c-8 -20 9 -41 27 -34 17 7 22 32 7 41 -5 4 -7 -4 -4 -15 4
-16 2 -20 -8 -17 -8 3 -13 12 -11 22 3 19 -4 21 -11 3z"/>
<path d="M594 5003 c5 -8 1 -13 -11 -14 -16 0 -16 -1 2 -8 l20 -8 -20 -5 c-17
-5 -17 -6 -2 -7 22 -1 34 27 17 42 -10 9 -11 9 -6 0z"/>
<path d="M2367 5004 c-20 -21 -5 -34 39 -34 38 0 45 3 42 18 -2 11 -14 18 -38
20 -20 2 -39 0 -43 -4z"/>
<path d="M2163 4993 c-21 -8 -15 -32 7 -30 12 1 20 8 20 19 0 18 -5 20 -27 11z"/>
<path d="M541 4735 c0 -16 3 -25 7 -19 4 6 14 14 22 17 12 4 12 6 -2 6 -9 1
-19 7 -21 14 -3 6 -6 -1 -6 -18z"/>
<path d="M641 4749 c0 -9 6 -22 14 -29 10 -9 15 -9 15 -1 0 6 -4 11 -9 11 -5
0 -12 8 -14 18 -4 14 -5 14 -6 1z"/>
<path d="M675 4750 c-3 -5 -1 -18 4 -27 9 -16 10 -14 11 10 0 28 -5 34 -15 17z"/>
<path d="M800 4735 c0 -18 5 -25 20 -25 11 0 20 5 20 10 0 6 8 5 20 -2 10 -7
22 -9 26 -6 10 10 -3 38 -18 38 -9 0 -9 -3 2 -10 8 -5 11 -12 7 -16 -3 -4 -13
-1 -21 5 -10 8 -16 9 -21 1 -9 -15 -25 -12 -25 4 0 8 8 17 18 19 13 4 11 5 -5
6 -18 1 -23 -4 -23 -24z"/>
<path d="M991 4740 c-1 -20 4 -26 24 -28 20 -1 25 3 25 23 0 18 -4 23 -15 19
-8 -4 -15 -10 -15 -16 0 -5 5 -6 10 -3 6 3 10 1 10 -4 0 -20 -20 -11 -30 12
-9 22 -9 22 -9 -3z"/>
<path d="M706 4743 c-12 -12 -6 -33 9 -33 8 0 15 6 15 14 0 17 -14 28 -24 19z"/>
<path d="M745 4740 c-8 -13 3 -30 18 -30 7 0 6 4 -3 10 -13 9 -13 11 0 20 9 6
10 10 3 10 -6 0 -15 -4 -18 -10z"/>
<path d="M904 4735 c-4 -9 -4 -19 0 -22 3 -4 6 2 7 13 0 18 1 18 9 -1 7 -16 9
-17 9 -3 1 23 -18 33 -25 13z"/>
<path d="M947 4743 c-14 -13 -6 -33 13 -33 13 0 20 6 19 18 0 10 -3 12 -6 5
-2 -7 -9 -13 -15 -13 -6 0 -8 7 -4 15 6 16 3 19 -7 8z"/>
<path d="M2286 4732 c-4 -6 3 -8 15 -5 12 4 25 0 31 -8 8 -12 9 -11 5 1 -4 17
-42 26 -51 12z"/>
<path d="M2268 4685 c-4 -18 1 -29 19 -40 21 -14 26 -14 46 1 l22 16 -22 -7
c-38 -11 -61 2 -55 30 2 14 2 25 -1 25 -2 0 -7 -11 -9 -25z"/>
<path d="M609 4242 c11 -8 11 -10 0 -14 -9 -3 -8 -6 5 -11 13 -5 17 -3 14 10
-2 9 -10 18 -18 20 -12 4 -12 3 -1 -5z"/>
<path d="M640 4221 c0 -6 4 -13 10 -16 6 -3 7 1 4 9 -7 18 -14 21 -14 7z"/>
<path d="M670 4221 c0 -6 4 -13 10 -16 6 -3 7 1 4 9 -7 18 -14 21 -14 7z"/>
<path d="M700 4221 c0 -6 4 -13 10 -16 6 -3 7 1 4 9 -7 18 -14 21 -14 7z"/>
<path d="M891 4214 c0 -11 3 -14 6 -6 3 7 2 16 -1 19 -3 4 -6 -2 -5 -13z"/>
<path d="M1000 4221 c0 -5 7 -12 16 -15 14 -5 15 -4 4 9 -14 17 -20 19 -20 6z"/>
<path d="M881 4018 c1 -19 2 -19 6 -5 3 11 11 16 19 13 9 -3 12 -1 9 4 -12 19
-35 10 -34 -12z"/>
<path d="M1052 4020 c0 -14 2 -19 5 -12 2 6 2 18 0 25 -3 6 -5 1 -5 -13z"/>
<path d="M1162 4020 c0 -14 2 -19 5 -12 2 6 2 18 0 25 -3 6 -5 1 -5 -13z"/>
<path d="M1191 4024 c0 -11 3 -14 6 -6 3 7 2 16 -1 19 -3 4 -6 -2 -5 -13z"/>
<path d="M1111 4004 c0 -11 3 -14 6 -6 3 7 2 16 -1 19 -3 4 -6 -2 -5 -13z"/>
<path d="M883 3665 c-3 -9 -3 -19 1 -22 3 -4 6 2 6 11 0 12 5 16 16 12 8 -3
12 -2 9 4 -9 15 -25 12 -32 -5z"/>
<path d="M1052 3660 c0 -14 2 -19 5 -12 2 6 2 18 0 25 -3 6 -5 1 -5 -13z"/>
<path d="M1164 3650 c2 -21 30 -19 32 3 1 12 1 13 -3 2 -5 -18 -20 -20 -26 -2
-2 7 -3 6 -3 -3z"/>
<path d="M1111 3644 c0 -11 3 -14 6 -6 3 7 2 16 -1 19 -3 4 -6 -2 -5 -13z"/>
<path d="M1127 3102 c-14 -15 -17 -40 -17 -129 0 -143 0 -143 139 -143 146 0
141 -5 141 145 0 113 -2 125 -19 135 -11 5 -67 10 -124 10 -88 0 -106 -3 -120
-18z m101 -79 c-10 -2 -18 -12 -18 -20 0 -9 -3 -14 -6 -10 -12 11 5 37 23 36
17 -1 17 -2 1 -6z m79 -18 c1 -15 0 -15 -3 -3 -3 9 -13 19 -22 22 -12 3 -12 4
3 3 12 -1 21 -10 22 -22z m-24 -9 c11 -27 -4 -56 -29 -56 -29 0 -46 28 -33 52
12 21 55 24 62 4z m-55 -70 c12 -3 12 -4 -3 -3 -11 1 -20 9 -21 17 0 8 1 10 3
3 2 -6 12 -14 21 -17z m79 9 c-4 -8 -13 -15 -22 -15 -13 0 -12 3 3 18 19 21
27 20 19 -3z"/>
<path d="M1230 2990 c0 -5 9 -10 20 -10 11 0 20 5 20 10 0 6 -9 10 -20 10 -11
0 -20 -4 -20 -10z"/>
<path d="M1235 2960 c3 -5 13 -10 21 -10 8 0 14 5 14 10 0 6 -9 10 -21 10 -11
0 -17 -4 -14 -10z"/>
<path d="M1638 3109 c-16 -9 -18 -26 -18 -129 0 -153 -3 -150 140 -150 142 0
140 -2 140 145 0 147 2 145 -138 145 -59 0 -115 -5 -124 -11z m172 -134 l0
-45 -50 0 -50 0 0 45 0 45 50 0 50 0 0 -45z"/>
<path d="M1730 2990 c0 -5 5 -10 10 -10 6 0 10 5 10 10 0 6 -4 10 -10 10 -5 0
-10 -4 -10 -10z"/>
<path d="M1725 2960 c-3 -5 3 -10 15 -10 12 0 18 5 15 10 -3 6 -10 10 -15 10
-5 0 -12 -4 -15 -10z"/>
<path d="M2142 3108 c-8 -8 -12 -53 -12 -135 0 -148 -5 -143 143 -143 137 0
137 0 137 147 0 144 1 143 -146 143 -72 0 -114 -4 -122 -12z m173 -133 l0 -40
-50 0 -50 0 0 35 c-1 49 1 51 53 48 l47 -3 0 -40z"/>
<path d="M758 3018 c-33 -11 -37 -33 -8 -41 11 -3 20 -12 20 -21 0 -26 30 -18
40 10 23 60 9 75 -52 52z m42 -12 c0 -2 -8 -10 -17 -17 -16 -13 -17 -12 -4 4
13 16 21 21 21 13z"/>
<path d="M1970 2527 c0 -5 -5 -5 -10 -2 -6 4 -29 -7 -52 -24 -23 -17 -38 -31
-32 -31 5 0 2 -4 -6 -10 -11 -7 -12 -13 -2 -32 9 -16 9 -33 3 -54 -6 -22 -5
-36 2 -43 9 -9 8 -16 0 -30 -13 -20 -7 -61 9 -61 5 0 7 -4 3 -9 -3 -5 -1 -12
5 -16 6 -4 8 -11 4 -16 -3 -5 0 -17 7 -26 8 -9 14 -23 14 -32 0 -9 6 -14 15
-12 8 2 42 11 75 21 34 9 65 15 71 13 6 -2 8 11 6 30 -2 22 2 39 12 50 9 8 16
20 16 26 0 6 4 11 9 11 5 0 12 19 16 43 4 23 10 51 12 62 8 32 5 59 -7 63 -5
2 -10 9 -10 16 0 21 -61 67 -81 61 -11 -4 -19 -2 -19 4 0 6 -13 9 -30 8 -16
-1 -30 -6 -30 -10z"/>
<path d="M610 2391 c0 -34 12 -45 39 -36 14 4 19 14 17 33 -2 21 -9 28 -30 30
-23 3 -26 0 -26 -27z m40 9 c0 -5 -4 -10 -10 -10 -5 0 -10 5 -10 10 0 6 5 10
10 10 6 0 10 -4 10 -10z m5 -30 c-3 -5 -10 -10 -16 -10 -5 0 -9 5 -9 10 0 6 7
10 16 10 8 0 12 -4 9 -10z"/>
<path d="M822 2395 c-16 -34 -15 -34 9 -28 12 4 25 0 30 -8 13 -21 11 5 -3 36
-6 14 -14 25 -18 25 -4 0 -12 -11 -18 -25z m28 -5 c0 -5 -4 -10 -10 -10 -5 0
-10 5 -10 10 0 6 5 10 10 10 6 0 10 -4 10 -10z"/>
<path d="M950 2412 c0 -7 -11 -12 -25 -12 -18 0 -25 -5 -25 -20 0 -11 5 -20
10 -20 6 0 10 7 10 15 0 8 7 15 15 15 8 0 15 -6 15 -14 0 -8 4 -17 8 -20 9 -5
7 52 -2 61 -3 4 -6 1 -6 -5z"/>
<path d="M683 2381 c3 -35 37 -38 36 -3 l0 27 -11 -25 -11 -25 -8 25 -8 25 2
-24z"/>
<path d="M734 2385 c5 -11 9 -26 9 -32 1 -19 5 -16 22 17 9 17 11 30 5 30 -5
0 -10 -5 -10 -11 0 -8 -6 -7 -17 2 -15 12 -16 12 -9 -6z"/>
<path d="M882 2375 c0 -16 2 -22 5 -12 2 9 2 23 0 30 -3 6 -5 -1 -5 -18z"/>
<path d="M982 2375 c0 -16 2 -22 5 -12 2 9 2 23 0 30 -3 6 -5 -1 -5 -18z"/>
<path d="M1000 2381 c0 -25 17 -28 23 -3 4 16 5 16 6 0 0 -10 5 -18 10 -18 5
0 12 8 14 18 4 16 5 16 6 0 0 -10 6 -18 12 -18 6 0 9 8 7 18 -2 12 -14 18 -41
20 -32 3 -37 0 -37 -17z"/>
<path d="M1090 2381 c0 -25 18 -37 33 -21 9 9 9 11 -2 8 -7 -2 -16 3 -19 11
-3 10 0 12 12 8 9 -4 16 -2 16 3 0 6 -9 10 -20 10 -13 0 -20 -7 -20 -19z"/>
<path d="M761 2273 c1 -23 3 -29 6 -15 2 12 9 22 14 22 5 0 10 -10 10 -22 1
-19 2 -20 6 -5 3 11 -4 27 -16 38 l-21 20 1 -38z"/>
<path d="M870 2283 c0 -18 -5 -33 -11 -33 -6 0 -9 9 -6 20 3 11 1 22 -3 25
-14 9 -18 -8 -9 -32 9 -25 39 -31 39 -9 0 26 20 28 29 4 l10 -23 0 23 c1 13
-7 25 -16 29 -10 4 -21 11 -25 17 -4 6 -8 -4 -8 -21z"/>
<path d="M722 2274 c4 -36 24 -42 22 -7 0 15 -6 29 -13 31 -8 3 -11 -5 -9 -24z"/>
<path d="M610 2286 c0 -4 5 -16 10 -27 10 -18 12 -18 27 -4 12 12 13 19 4 28
-8 8 -11 6 -11 -8 -1 -20 -1 -20 -15 -1 -8 11 -15 16 -15 12z"/>
<path d="M670 2271 c-12 -24 -13 -34 -1 -27 9 6 22 46 15 46 -2 0 -8 -9 -14
-19z"/>
<path d="M702 2265 c0 -16 2 -22 5 -12 2 9 2 23 0 30 -3 6 -5 -1 -5 -18z"/>
<path d="M934 2276 c-8 -20 3 -36 24 -35 14 0 13 2 -3 9 -18 8 -18 9 -2 9 10
1 17 6 15 13 -7 19 -27 21 -34 4z"/>
<path d="M1498 2190 c13 -15 17 -60 4 -60 -4 0 -8 -9 -8 -20 0 -11 3 -20 6
-20 4 0 15 -6 25 -14 18 -13 18 -14 -9 -9 -20 4 -27 2 -22 -6 4 -6 16 -11 26
-11 10 0 22 -4 25 -10 10 -16 75 -12 92 5 13 14 14 21 2 52 -8 20 -20 38 -27
41 -9 3 -10 -3 -2 -22 5 -14 8 -26 5 -26 -14 0 -75 44 -68 49 5 3 -7 19 -26
35 -20 17 -30 24 -23 16z"/>
<path d="M610 2161 c0 -31 13 -41 24 -18 5 10 7 10 12 0 10 -22 20 -14 19 15
-1 21 -7 28 -28 30 -24 3 -27 0 -27 -27z m40 9 c0 -5 -4 -10 -10 -10 -5 0 -10
5 -10 10 0 6 5 10 10 10 6 0 10 -4 10 -10z"/>
<path d="M830 2165 c0 -14 -5 -25 -11 -25 -6 0 -9 7 -5 15 3 8 1 15 -4 15 -6
0 -10 -9 -10 -20 0 -15 7 -20 25 -20 21 0 25 5 25 30 0 17 -4 30 -10 30 -5 0
-10 -11 -10 -25z"/>
<path d="M966 2182 c-6 -11 4 -52 13 -52 9 0 8 46 0 55 -4 3 -9 2 -13 -3z"/>
<path d="M1036 2162 c-14 -28 -14 -28 19 -28 31 0 32 1 23 28 -6 15 -14 28
-19 28 -5 0 -15 -13 -23 -28z"/>
<path d="M735 2170 c-3 -6 1 -17 9 -26 9 -8 16 -11 16 -5 0 5 -5 13 -10 16 -6
4 -8 11 -5 16 4 5 4 9 1 9 -3 0 -8 -5 -11 -10z"/>
<path d="M866 2173 c-3 -4 -6 -15 -6 -25 0 -12 7 -18 23 -17 21 0 21 1 2 9
-17 7 -17 9 -2 9 9 1 17 5 17 10 0 11 -26 22 -34 14z"/>
<path d="M923 2173 c-7 -3 -12 -14 -12 -26 1 -17 2 -18 6 -4 2 9 8 17 13 17 5
0 11 -8 13 -17 4 -14 5 -13 6 4 1 24 -8 33 -26 26z"/>
<path d="M1100 2142 c0 -28 3 -33 10 -22 5 8 10 11 10 6 0 -5 7 -3 15 4 12 10
15 10 15 -4 0 -9 5 -16 10 -16 6 0 10 5 10 11 0 5 5 7 10 4 13 -8 24 20 16 40
-4 11 -11 13 -30 6 -13 -6 -27 -7 -30 -3 -20 20 -36 8 -36 -26z m30 8 c0 -5
-4 -10 -10 -10 -5 0 -10 5 -10 10 0 6 5 10 10 10 6 0 10 -4 10 -10z m60 0 c0
-5 -4 -10 -10 -10 -5 0 -10 5 -10 10 0 6 5 10 10 10 6 0 10 -4 10 -10z"/>
<path d="M680 2150 c0 -11 4 -20 9 -20 5 0 7 9 4 20 -3 11 -7 20 -9 20 -2 0
-4 -9 -4 -20z"/>
<path d="M700 2160 c0 -5 5 -10 10 -10 6 0 10 5 10 10 0 6 -4 10 -10 10 -5 0
-10 -4 -10 -10z"/>
<path d="M782 2150 c0 -14 2 -19 5 -12 2 6 2 18 0 25 -3 6 -5 1 -5 -13z"/>
<path d="M1873 2158 c-6 -7 -10 -21 -10 -31 0 -15 3 -15 24 5 28 26 31 38 3
13 -21 -19 -28 -7 -8 13 7 7 9 12 6 12 -3 0 -10 -6 -15 -12z"/>
<path d="M1830 2100 c-6 -11 -8 -20 -6 -20 3 0 10 9 16 20 6 11 8 20 6 20 -3
0 -10 -9 -16 -20z"/>
<path d="M1789 2043 c-13 -16 -12 -17 4 -4 9 7 17 15 17 17 0 8 -8 3 -21 -13z"/>
<path d="M1665 2040 c3 -5 8 -10 11 -10 2 0 4 5 4 10 0 6 -5 10 -11 10 -5 0
-7 -4 -4 -10z"/>
<path d="M2220 1836 c0 -2 9 -6 20 -9 11 -3 18 -1 14 4 -5 9 -34 13 -34 5z"/>
<path d="M2200 1806 c0 -8 4 -17 9 -20 5 -4 7 3 4 14 -6 23 -13 26 -13 6z"/>
<path d="M2265 1770 c10 -11 20 -20 23 -20 3 0 -3 9 -13 20 -10 11 -20 20 -23
20 -3 0 3 -9 13 -20z"/>
<path d="M780 1095 c0 -17 5 -25 18 -25 13 0 14 2 3 9 -11 7 -11 9 0 14 11 4
11 6 1 6 -7 1 -10 6 -7 11 3 6 1 10 -4 10 -6 0 -11 -11 -11 -25z"/>
<path d="M916 1094 c-8 -21 -5 -23 19 -13 11 4 14 8 7 8 -7 1 -10 6 -7 11 3 6
2 10 -3 10 -6 0 -13 -7 -16 -16z"/>
<path d="M1000 1100 c0 -5 5 -10 10 -10 6 0 10 5 10 10 0 6 -4 10 -10 10 -5 0
-10 -4 -10 -10z"/>
<path d="M1831 1088 c1 -20 2 -20 6 -4 4 15 7 16 14 5 7 -11 9 -11 9 4 0 9 -7
17 -15 17 -9 0 -15 -9 -14 -22z"/>
<path d="M1961 1088 c1 -19 2 -19 6 -5 3 11 11 16 19 13 8 -3 14 -1 14 4 0 6
-9 10 -20 10 -14 0 -20 -6 -19 -22z"/>
<path d="M824 1088 c4 -20 26 -21 26 -1 0 14 -2 15 -9 4 -6 -9 -10 -10 -14 -2
-4 8 -5 8 -3 -1z"/>
<path d="M860 1089 c0 -15 18 -19 23 -6 3 8 -1 14 -9 14 -8 0 -14 -4 -14 -8z"/>
<path d="M961 1084 c0 -11 3 -14 6 -6 3 7 2 16 -1 19 -3 4 -6 -2 -5 -13z"/>
<path d="M1100 1091 c0 -6 4 -13 10 -16 6 -3 7 1 4 9 -7 18 -14 21 -14 7z"/>
<path d="M1914 1078 c1 -34 2 -34 17 -7 6 13 7 19 1 15 -6 -3 -12 0 -15 6 -2
7 -4 1 -3 -14z"/>
<path d="M2015 1089 c-4 -6 -4 -13 -1 -16 3 -4 6 0 6 8 0 11 2 11 10 -1 8 -13
10 -12 10 3 0 19 -15 23 -25 6z"/>
<path d="M2050 1082 c0 -10 3 -13 8 -7 11 16 34 17 44 3 7 -10 9 -10 5 2 -5
22 -57 23 -57 2z"/>
<path d="M1090 350 c0 -6 123 -10 350 -10 227 0 350 4 350 10 0 6 -123 10
-350 10 -227 0 -350 -4 -350 -10z"/>
</g>
</svg>
