<svg width="19" height="19" viewBox="0 0 19 19" fill="none" xmlns="http://www.w3.org/2000/svg">
<rect width="19" height="19" rx="9.5" fill="#F4C790"/>
<path fill-rule="evenodd" clip-rule="evenodd" d="M12.3484 7.6C12.3484 9.17401 11.0724 10.45 9.49841 10.45C7.9244 10.45 6.64841 9.17401 6.64841 7.6C6.64841 6.02599 7.9244 4.75 9.49841 4.75C11.0724 4.75 12.3484 6.02599 12.3484 7.6ZM11.3984 7.6C11.3984 8.64934 10.5477 9.5 9.49841 9.5C8.44907 9.5 7.59841 8.64934 7.59841 7.6C7.59841 6.55066 8.44907 5.7 9.49841 5.7C10.5477 5.7 11.3984 6.55066 11.3984 7.6Z" fill="#21005D"/>
<path d="M9.49841 11.875C6.42307 11.875 3.80281 13.6935 2.80469 16.2412C3.04784 16.4827 3.30398 16.7111 3.57197 16.9252C4.31522 14.5862 6.64685 12.825 9.49841 12.825C12.35 12.825 14.6816 14.5862 15.4248 16.9252C15.6928 16.7111 15.949 16.4827 16.1921 16.2412C15.194 13.6935 12.5737 11.875 9.49841 11.875Z" fill="#21005D"/>
</svg>
