<svg width="25" height="25" viewBox="0 0 25 25" fill="none" xmlns="http://www.w3.org/2000/svg">
<path d="M18.5547 3.5H6.55469C4.34469 3.5 2.55469 5.28 2.55469 7.47V17.53C2.55469 19.72 4.34469 21.5 6.55469 21.5H18.5547C20.7647 21.5 22.5547 19.72 22.5547 17.53V7.47C22.5547 5.28 20.7647 3.5 18.5547 3.5ZM9.05469 7.67C10.3247 7.67 11.3647 8.71 11.3647 9.98C11.3647 11.25 10.3247 12.29 9.05469 12.29C7.78469 12.29 6.74469 11.25 6.74469 9.98C6.74469 8.71 7.78469 7.67 9.05469 7.67ZM12.9247 17.16C12.8347 17.26 12.6947 17.32 12.5547 17.32H5.55469C5.41469 17.32 5.27469 17.26 5.18469 17.16C5.09469 17.06 5.04469 16.92 5.05469 16.78C5.22469 15.1 6.56469 13.77 8.24469 13.61C8.77469 13.56 9.32469 13.56 9.85469 13.61C11.5347 13.77 12.8847 15.1 13.0447 16.78C13.0647 16.92 13.0147 17.06 12.9247 17.16ZM19.5547 17.25H17.5547C17.1447 17.25 16.8047 16.91 16.8047 16.5C16.8047 16.09 17.1447 15.75 17.5547 15.75H19.5547C19.9647 15.75 20.3047 16.09 20.3047 16.5C20.3047 16.91 19.9647 17.25 19.5547 17.25ZM19.5547 13.25H15.5547C15.1447 13.25 14.8047 12.91 14.8047 12.5C14.8047 12.09 15.1447 11.75 15.5547 11.75H19.5547C19.9647 11.75 20.3047 12.09 20.3047 12.5C20.3047 12.91 19.9647 13.25 19.5547 13.25ZM19.5547 9.25H14.5547C14.1447 9.25 13.8047 8.91 13.8047 8.5C13.8047 8.09 14.1447 7.75 14.5547 7.75H19.5547C19.9647 7.75 20.3047 8.09 20.3047 8.5C20.3047 8.91 19.9647 9.25 19.5547 9.25Z" fill="#FAFAFA"/>
</svg>
