<svg width="27" height="28" viewBox="0 0 27 28" fill="none" xmlns="http://www.w3.org/2000/svg">
<rect y="0.5" width="27" height="27" rx="13.5" fill="#C17B31"/>
<path d="M20.1654 13.5007C20.1654 9.82732 17.172 6.83398 13.4987 6.83398C9.82536 6.83398 6.83203 9.82732 6.83203 13.5007C6.83203 15.434 7.66536 17.174 8.98536 18.394C8.98536 18.4007 8.98536 18.4007 8.9787 18.4073C9.04536 18.474 9.12536 18.5273 9.19203 18.5873C9.23203 18.6207 9.26536 18.654 9.30536 18.6807C9.42536 18.7807 9.5587 18.874 9.68536 18.9673C9.73203 19.0007 9.77203 19.0273 9.8187 19.0607C9.94536 19.1473 10.0787 19.2273 10.2187 19.3007C10.2654 19.3273 10.3187 19.3607 10.3654 19.3873C10.4987 19.4607 10.6387 19.5273 10.7854 19.5873C10.8387 19.614 10.892 19.6407 10.9454 19.6607C11.092 19.7207 11.2387 19.774 11.3854 19.8207C11.4387 19.8407 11.492 19.8607 11.5454 19.874C11.7054 19.9207 11.8654 19.9607 12.0254 20.0007C12.072 20.014 12.1187 20.0273 12.172 20.034C12.3587 20.074 12.5454 20.1007 12.7387 20.1207C12.7654 20.1207 12.792 20.1273 12.8187 20.134C13.0454 20.154 13.272 20.1673 13.4987 20.1673C13.7254 20.1673 13.952 20.154 14.172 20.134C14.1987 20.134 14.2254 20.1273 14.252 20.1207C14.4454 20.1007 14.632 20.074 14.8187 20.034C14.8654 20.0273 14.912 20.0073 14.9654 20.0007C15.1254 19.9607 15.292 19.9273 15.4454 19.874C15.4987 19.854 15.552 19.834 15.6054 19.8207C15.752 19.7673 15.9054 19.7207 16.0454 19.6607C16.0987 19.6407 16.152 19.614 16.2054 19.5873C16.3454 19.5273 16.4854 19.4607 16.6254 19.3873C16.6787 19.3607 16.7254 19.3273 16.772 19.3007C16.9054 19.2207 17.0387 19.1473 17.172 19.0607C17.2187 19.034 17.2587 19.0007 17.3054 18.9673C17.4387 18.874 17.5654 18.7807 17.6854 18.6807C17.7254 18.6473 17.7587 18.614 17.7987 18.5873C17.872 18.5273 17.9454 18.4673 18.012 18.4073C18.012 18.4007 18.012 18.4007 18.0054 18.394C19.332 17.174 20.1654 15.434 20.1654 13.5007ZM16.792 16.814C14.9854 15.6007 12.0254 15.6007 10.2054 16.814C9.91203 17.0073 9.67203 17.234 9.47203 17.4807C8.4587 16.454 7.83203 15.0473 7.83203 13.5007C7.83203 10.374 10.372 7.83398 13.4987 7.83398C16.6254 7.83398 19.1654 10.374 19.1654 13.5007C19.1654 15.0473 18.5387 16.454 17.5254 17.4807C17.332 17.234 17.0854 17.0073 16.792 16.814Z" fill="#F8E6FF"/>
<path d="M13.5 10.1191C12.12 10.1191 11 11.2391 11 12.6191C11 13.9725 12.06 15.0725 13.4667 15.1125C13.4867 15.1125 13.5133 15.1125 13.5267 15.1125C13.54 15.1125 13.56 15.1125 13.5733 15.1125C13.58 15.1125 13.5867 15.1125 13.5867 15.1125C14.9333 15.0658 15.9933 13.9725 16 12.6191C16 11.2391 14.88 10.1191 13.5 10.1191Z" fill="#F8E6FF"/>
</svg>
