<?xml version="1.0" encoding="UTF-8"?>
<!DOCTYPE svg PUBLIC "-//W3C//DTD SVG 1.1//EN" "http://www.w3.org/Graphics/SVG/1.1/DTD/svg11.dtd">
<svg xmlns="http://www.w3.org/2000/svg" version="1.1" width="225px" height="225px" style="shape-rendering:geometricPrecision; text-rendering:geometricPrecision; image-rendering:optimizeQuality; fill-rule:evenodd; clip-rule:evenodd" xmlns:xlink="http://www.w3.org/1999/xlink">
<g><path style="opacity:1" fill="#fefdfd" d="M -0.5,-0.5 C 74.5,-0.5 149.5,-0.5 224.5,-0.5C 224.5,74.5 224.5,149.5 224.5,224.5C 149.5,224.5 74.5,224.5 -0.5,224.5C -0.5,149.5 -0.5,74.5 -0.5,-0.5 Z"/></g>
<g><path style="opacity:1" fill="#f26622" d="M 187.5,37.5 C 159.535,64.9651 131.701,92.6318 104,120.5C 103.5,113.842 103.334,107.175 103.5,100.5C 106.285,89.0566 113.618,83.0566 125.5,82.5C 129.638,83.0937 133.638,83.927 137.5,85C 142.867,79.9682 147.867,74.6349 152.5,69C 140.455,58.8896 127.122,56.8896 112.5,63C 108.667,65.5 105.5,68.6667 103,72.5C 102.793,68.9106 102.293,65.4106 101.5,62C 94.5,61.3333 87.5,61.3333 80.5,62C 79.944,62.3826 79.6107,62.8826 79.5,63.5C 78.6677,90.997 78.1677,118.664 78,146.5C 64.2981,160.035 50.7981,173.701 37.5,187.5C 10.8894,160.487 1.05607,128.153 8,90.5C 18.1044,48.3952 43.9377,21.2285 85.5,9C 116.642,1.89633 145.642,6.89633 172.5,24C 178.292,27.6253 183.292,32.1253 187.5,37.5 Z"/></g>
<g><path style="opacity:1" fill="#da5129" d="M 187.5,37.5 C 208.375,57.7719 218.708,82.6053 218.5,112C 217.279,155.512 197.613,187.512 159.5,208C 120.602,224.872 83.6018,221.538 48.5,198C 44.3319,194.998 40.6652,191.498 37.5,187.5C 50.7981,173.701 64.2981,160.035 78,146.5C 78.1677,118.664 78.6677,90.997 79.5,63.5C 79.5,94.1667 79.5,124.833 79.5,155.5C 87.1667,155.5 94.8333,155.5 102.5,155.5C 102.17,136.992 102.503,118.659 103.5,100.5C 103.334,107.175 103.5,113.842 104,120.5C 131.701,92.6318 159.535,64.9651 187.5,37.5 Z"/></g>
<g><path style="opacity:1" fill="#fffdfd" d="M 103.5,100.5 C 102.503,118.659 102.17,136.992 102.5,155.5C 94.8333,155.5 87.1667,155.5 79.5,155.5C 79.5,124.833 79.5,94.1667 79.5,63.5C 79.6107,62.8826 79.944,62.3826 80.5,62C 87.5,61.3333 94.5,61.3333 101.5,62C 102.293,65.4106 102.793,68.9106 103,72.5C 105.5,68.6667 108.667,65.5 112.5,63C 127.122,56.8896 140.455,58.8896 152.5,69C 147.867,74.6349 142.867,79.9682 137.5,85C 133.638,83.927 129.638,83.0937 125.5,82.5C 113.618,83.0566 106.285,89.0566 103.5,100.5 Z"/></g>
<g><path style="opacity:1" fill="#24a78b" d="M 160.5,136.5 C 154.444,143.558 147.778,149.891 140.5,155.5C 137.64,151.338 136.807,146.672 138,141.5C 141.499,134.001 147.333,131.167 155.5,133C 157.584,133.697 159.251,134.864 160.5,136.5 Z"/></g>
<g><path style="opacity:1" fill="#208972" d="M 160.5,136.5 C 167.318,143.839 166.984,151.006 159.5,158C 152.401,161.936 146.067,161.103 140.5,155.5C 147.778,149.891 154.444,143.558 160.5,136.5 Z"/></g>
</svg>
