<svg width="25" height="25" viewBox="0 0 25 25" fill="none" xmlns="http://www.w3.org/2000/svg">
<path d="M2.16797 9.5V7C2.16797 4.51 4.17797 2.5 6.66797 2.5H9.16797" stroke="white" stroke-width="1.5" stroke-linecap="round" stroke-linejoin="round"/>
<path d="M15.168 2.5H17.668C20.158 2.5 22.168 4.51 22.168 7V9.5" stroke="white" stroke-width="1.5" stroke-linecap="round" stroke-linejoin="round"/>
<path d="M22.168 16.5V18C22.168 20.49 20.158 22.5 17.668 22.5H16.168" stroke="white" stroke-width="1.5" stroke-linecap="round" stroke-linejoin="round"/>
<path d="M9.16797 22.5H6.66797C4.17797 22.5 2.16797 20.49 2.16797 18V15.5" stroke="white" stroke-width="1.5" stroke-linecap="round" stroke-linejoin="round"/>
<path d="M17.168 10V15C17.168 17 16.168 18 14.168 18H10.168C8.16797 18 7.16797 17 7.16797 15V10C7.16797 8 8.16797 7 10.168 7H14.168C16.168 7 17.168 8 17.168 10Z" stroke="white" stroke-width="1.5" stroke-linecap="round" stroke-linejoin="round"/>
<path d="M19.168 12.5H5.16797" stroke="white" stroke-width="1.5" stroke-linecap="round" stroke-linejoin="round"/>
</svg>
