<svg width="25" height="24" viewBox="0 0 25 24" fill="none" xmlns="http://www.w3.org/2000/svg">
<path d="M16.5317 2.95907L7.50172 5.95907C1.43172 7.98907 1.43172 11.2991 7.50172 13.3191L10.1817 14.2091L11.0717 16.8891C13.0917 22.9591 16.4117 22.9591 18.4317 16.8891L21.4417 7.86907C22.7817 3.81907 20.5817 1.60907 16.5317 2.95907ZM16.8517 8.33907L13.0517 12.1591C12.9017 12.3091 12.7117 12.3791 12.5217 12.3791C12.3317 12.3791 12.1417 12.3091 11.9917 12.1591C11.7017 11.8691 11.7017 11.3891 11.9917 11.0991L15.7917 7.27907C16.0817 6.98907 16.5617 6.98907 16.8517 7.27907C17.1417 7.56907 17.1417 8.04907 16.8517 8.33907Z" fill="#0B0A0A"/>
</svg>
