<svg width="371" height="108" viewBox="0 0 371 108" fill="none" xmlns="http://www.w3.org/2000/svg">
<g filter="url(#filter0_dd_355_8167)">
<g clip-path="url(#clip0_355_8167)">
<path d="M4 13C4 7.47716 8.47715 3 14 3H357C362.523 3 367 7.47715 367 13V93C367 98.5228 362.523 103 357 103H14C8.47715 103 4 98.5229 4 93V13Z" fill="#A4F4E7"/>
<g opacity="0.2">
<path d="M305.477 349.506C243.072 423.949 129.244 539.55 75.4561 515.312C21.6684 491.073 41.7025 323.514 47.296 233.163C52.8895 142.811 48.6377 154.524 102.305 81.6228C155.972 8.72174 248.088 -132.671 304.899 -116.762C361.71 -100.853 374.878 60.8475 374.999 157.987" stroke="url(#paint0_linear_355_8167)" stroke-width="2"/>
<path d="M301.001 342.725C241.433 413.784 132.779 524.13 81.4357 500.993C30.0929 477.857 49.2164 317.914 54.5556 231.669C59.8949 145.425 55.8363 156.605 107.064 87.0178C158.292 17.4304 246.221 -117.536 300.45 -102.35C354.678 -87.1638 367.248 67.1868 367.363 159.911" stroke="url(#paint1_linear_355_8167)" stroke-width="2"/>
<path d="M296.525 335.941C239.794 403.616 136.313 508.708 87.4153 486.673C38.5174 464.639 56.7302 312.312 61.8153 230.174C66.9003 148.036 63.035 158.684 111.823 92.4108C160.612 26.1371 244.353 -102.402 296 -87.9393C347.646 -73.4764 359.617 73.5242 359.727 161.833" stroke="url(#paint2_linear_355_8167)" stroke-width="2"/>
<path d="M292.049 329.16C238.154 393.451 139.848 493.288 93.395 472.355C46.9419 451.422 64.2441 306.712 69.0749 228.681C73.9057 150.65 70.2336 160.766 116.583 97.8058C162.932 34.8458 242.486 -87.2665 291.55 -73.5268C340.614 -59.7871 351.987 79.8635 352.091 163.757" stroke="url(#paint3_linear_355_8167)" stroke-width="2"/>
<path d="M287.573 322.376C236.515 383.284 143.383 477.866 99.3746 458.035C55.3665 438.204 71.758 301.11 76.3345 227.186C80.911 153.262 77.4323 162.845 121.342 103.199C165.252 43.5525 240.619 -72.1329 287.101 -59.1163C333.583 -46.0997 344.356 86.2009 344.455 165.678" stroke="url(#paint4_linear_355_8167)" stroke-width="2"/>
<path d="M283.098 315.595C234.876 373.119 146.917 462.447 105.354 443.717C63.791 424.987 79.2719 295.51 83.5941 225.693C87.9164 155.875 84.6309 164.926 126.101 108.594C167.571 52.2612 238.752 -56.9972 282.651 -44.7038C326.551 -32.4103 336.726 92.5402 336.819 167.602" stroke="url(#paint5_linear_355_8167)" stroke-width="2"/>
<path d="M278.618 308.813C233.233 362.953 150.448 447.027 111.33 429.399C72.2116 411.771 86.7818 289.91 90.8499 224.2C94.9179 158.489 91.8256 167.008 130.856 113.989C169.887 60.9699 236.88 -41.8616 278.198 -30.2913C319.515 -18.721 329.091 98.8795 329.179 169.526" stroke="url(#paint6_linear_355_8167)" stroke-width="2"/>
<path d="M274.142 302.03C231.593 352.786 153.983 431.605 117.31 415.079C80.6361 398.553 94.2957 284.308 98.1095 222.704C101.923 161.101 99.0243 169.087 135.616 119.382C172.207 69.6766 235.013 -26.7279 273.748 -15.8807C312.483 -5.03358 321.461 105.217 321.543 171.448" stroke="url(#paint7_linear_355_8167)" stroke-width="2"/>
<path d="M269.666 295.248C229.954 342.621 157.518 416.185 123.289 400.761C89.0606 385.336 101.81 278.708 105.369 221.211C108.929 163.715 106.223 171.168 140.375 124.777C174.527 78.3852 233.146 -11.5923 269.298 -1.46825C305.451 8.65577 313.831 111.556 313.907 173.372" stroke="url(#paint8_linear_355_8167)" stroke-width="2"/>
<path d="M265.19 288.465C228.315 332.453 161.052 400.763 129.269 386.44C97.4852 372.118 109.323 273.106 112.629 219.716C115.934 166.326 113.422 173.248 145.134 130.17C176.847 87.092 231.279 3.54142 264.849 12.9423C298.419 22.3432 306.2 117.894 306.271 175.294" stroke="url(#paint9_linear_355_8167)" stroke-width="2"/>
<path d="M260.714 281.683C226.675 322.288 164.587 385.343 135.248 372.122C105.91 358.902 116.837 267.506 119.888 218.223C122.939 168.94 120.62 175.329 149.893 135.565C179.166 95.8006 229.411 18.6771 260.399 27.3548C291.387 36.0325 298.57 124.233 298.635 177.218" stroke="url(#paint10_linear_355_8167)" stroke-width="2"/>
<path d="M256.238 274.902C225.036 312.123 168.122 369.923 141.228 357.804C114.334 345.685 124.351 261.906 127.148 216.73C129.945 171.554 127.819 177.41 154.653 140.96C181.486 104.509 227.544 33.8127 255.95 41.7673C284.355 49.7219 290.939 130.572 290.999 179.142" stroke="url(#paint11_linear_355_8167)" stroke-width="2"/>
<path d="M251.763 268.118C223.397 301.956 171.657 354.502 147.208 343.484C122.759 332.467 131.865 256.304 134.408 215.235C136.95 174.166 135.017 179.49 159.412 146.353C183.806 113.216 225.677 48.9464 251.5 56.1778C277.323 63.4093 283.309 136.91 283.363 181.064" stroke="url(#paint12_linear_355_8167)" stroke-width="2"/>
<path d="M247.287 261.337C221.758 291.79 175.191 339.082 153.187 329.166C131.183 319.25 139.379 250.704 141.667 213.741C143.956 176.779 142.216 181.571 164.171 151.748C186.126 121.925 223.809 64.082 247.05 70.5903C270.291 77.0986 275.678 143.249 275.727 182.988" stroke="url(#paint13_linear_355_8167)" stroke-width="2"/>
<path d="M242.811 254.553C220.118 281.623 178.726 323.66 159.167 314.846C139.608 306.032 146.893 245.101 148.927 212.246C150.961 179.391 149.415 183.65 168.93 157.141C188.446 130.631 221.942 79.2157 242.601 85.0008C263.259 90.786 268.048 149.586 268.091 184.91" stroke="url(#paint14_linear_355_8167)" stroke-width="2"/>
<path d="M238.335 247.772C218.479 271.458 182.261 308.24 165.147 300.528C148.032 292.816 154.407 239.501 156.187 210.753C157.966 182.005 156.613 185.732 173.689 162.536C190.765 139.34 220.075 94.3513 238.151 99.4133C256.227 104.475 260.417 155.926 260.456 186.834" stroke="url(#paint15_linear_355_8167)" stroke-width="2"/>
</g>
<path d="M23.404 49V36.31H28.966C30.346 36.31 31.408 36.604 32.152 37.192C32.896 37.768 33.268 38.572 33.268 39.604C33.268 40.372 33.04 41.02 32.584 41.548C32.128 42.076 31.498 42.43 30.694 42.61V42.34C31.618 42.472 32.332 42.808 32.836 43.348C33.352 43.876 33.61 44.578 33.61 45.454C33.61 46.582 33.22 47.458 32.44 48.082C31.66 48.694 30.574 49 29.182 49H23.404ZM25.636 47.236H28.912C29.692 47.236 30.298 47.092 30.73 46.804C31.162 46.504 31.378 46.018 31.378 45.346C31.378 44.662 31.162 44.176 30.73 43.888C30.298 43.588 29.692 43.438 28.912 43.438H25.636V47.236ZM25.636 41.692H28.57C29.398 41.692 30.01 41.542 30.406 41.242C30.814 40.93 31.018 40.474 31.018 39.874C31.018 39.274 30.814 38.824 30.406 38.524C30.01 38.212 29.398 38.056 28.57 38.056H25.636V41.692ZM38.9277 49.18C37.8117 49.18 36.9777 48.874 36.4257 48.262C35.8737 47.65 35.5977 46.714 35.5977 45.454V39.91H37.8477V45.436C37.8477 46.108 37.9857 46.606 38.2617 46.93C38.5377 47.242 38.9577 47.398 39.5217 47.398C40.1577 47.398 40.6737 47.182 41.0697 46.75C41.4777 46.318 41.6817 45.748 41.6817 45.04V39.91H43.9317V49H41.7357V47.146H41.9877C41.7237 47.794 41.3217 48.298 40.7817 48.658C40.2537 49.006 39.6357 49.18 38.9277 49.18ZM46.1944 53.086L45.6724 51.304C46.2364 51.184 46.7104 51.046 47.0944 50.89C47.4784 50.734 47.7964 50.53 48.0484 50.278C48.3004 50.026 48.5104 49.702 48.6784 49.306L49.1284 48.244L49.0744 49.126L45.1144 39.91H47.5084L50.3524 47.002H49.8304L52.6924 39.91H54.9604L50.8204 49.504C50.5444 50.152 50.2444 50.686 49.9204 51.106C49.5964 51.538 49.2484 51.88 48.8764 52.132C48.5044 52.396 48.0964 52.6 47.6524 52.744C47.2084 52.888 46.7224 53.002 46.1944 53.086ZM61.2673 49V36.31H65.8753C67.3273 36.31 68.5513 36.562 69.5473 37.066C70.5553 37.558 71.3173 38.278 71.8333 39.226C72.3493 40.162 72.6073 41.302 72.6073 42.646C72.6073 43.978 72.3493 45.118 71.8333 46.066C71.3173 47.014 70.5553 47.74 69.5473 48.244C68.5513 48.748 67.3273 49 65.8753 49H61.2673ZM63.5893 47.074H65.7313C67.2673 47.074 68.4073 46.708 69.1513 45.976C69.8953 45.244 70.2673 44.134 70.2673 42.646C70.2673 41.146 69.8953 40.036 69.1513 39.316C68.4073 38.584 67.2673 38.218 65.7313 38.218H63.5893V47.074ZM78.3082 49.18C77.5162 49.18 76.8202 48.994 76.2202 48.622C75.6202 48.238 75.1522 47.692 74.8162 46.984C74.4802 46.276 74.3122 45.43 74.3122 44.446C74.3122 43.462 74.4802 42.622 74.8162 41.926C75.1522 41.218 75.6202 40.678 76.2202 40.306C76.8202 39.922 77.5162 39.73 78.3082 39.73C79.0762 39.73 79.7482 39.922 80.3242 40.306C80.9122 40.678 81.3022 41.182 81.4942 41.818H81.2962L81.4942 39.91H83.6542C83.6182 40.282 83.5822 40.66 83.5462 41.044C83.5222 41.428 83.5102 41.806 83.5102 42.178V49H81.2782L81.2602 47.128H81.4762C81.2842 47.752 80.8942 48.25 80.3062 48.622C79.7182 48.994 79.0522 49.18 78.3082 49.18ZM78.9382 47.452C79.6462 47.452 80.2162 47.206 80.6482 46.714C81.0802 46.21 81.2962 45.454 81.2962 44.446C81.2962 43.438 81.0802 42.688 80.6482 42.196C80.2162 41.704 79.6462 41.458 78.9382 41.458C78.2302 41.458 77.6602 41.704 77.2282 42.196C76.7962 42.688 76.5802 43.438 76.5802 44.446C76.5802 45.454 76.7902 46.21 77.2102 46.714C77.6422 47.206 78.2182 47.452 78.9382 47.452ZM89.8483 49.18C88.7683 49.18 87.9523 48.898 87.4003 48.334C86.8483 47.77 86.5723 46.924 86.5723 45.796V41.602H84.8263V39.91H86.5723V37.588L88.8223 37.012V39.91H91.2523V41.602H88.8223V45.652C88.8223 46.276 88.9423 46.714 89.1823 46.966C89.4223 47.218 89.7523 47.344 90.1723 47.344C90.4003 47.344 90.5923 47.326 90.7483 47.29C90.9163 47.254 91.0783 47.206 91.2343 47.146V48.928C91.0303 49.012 90.8023 49.072 90.5503 49.108C90.3103 49.156 90.0763 49.18 89.8483 49.18ZM96.2906 49.18C95.4986 49.18 94.8026 48.994 94.2026 48.622C93.6026 48.238 93.1346 47.692 92.7986 46.984C92.4626 46.276 92.2946 45.43 92.2946 44.446C92.2946 43.462 92.4626 42.622 92.7986 41.926C93.1346 41.218 93.6026 40.678 94.2026 40.306C94.8026 39.922 95.4986 39.73 96.2906 39.73C97.0586 39.73 97.7306 39.922 98.3066 40.306C98.8946 40.678 99.2846 41.182 99.4766 41.818H99.2786L99.4766 39.91H101.637C101.601 40.282 101.565 40.66 101.529 41.044C101.505 41.428 101.493 41.806 101.493 42.178V49H99.2606L99.2426 47.128H99.4586C99.2666 47.752 98.8766 48.25 98.2886 48.622C97.7006 48.994 97.0346 49.18 96.2906 49.18ZM96.9206 47.452C97.6286 47.452 98.1986 47.206 98.6306 46.714C99.0626 46.21 99.2786 45.454 99.2786 44.446C99.2786 43.438 99.0626 42.688 98.6306 42.196C98.1986 41.704 97.6286 41.458 96.9206 41.458C96.2126 41.458 95.6426 41.704 95.2106 42.196C94.7786 42.688 94.5626 43.438 94.5626 44.446C94.5626 45.454 94.7726 46.21 95.1926 46.714C95.6246 47.206 96.2006 47.452 96.9206 47.452ZM22 71L27.742 58.31H29.686L35.5 71H33.142L31.594 67.436L32.53 68.066H24.916L25.888 67.436L24.34 71H22ZM28.696 60.794L26.158 66.806L25.69 66.248H31.738L31.36 66.806L28.768 60.794H28.696ZM36.724 71V64.178C36.724 63.806 36.712 63.428 36.688 63.044C36.664 62.66 36.628 62.282 36.58 61.91H38.758L38.938 63.71H38.722C39.01 63.074 39.436 62.588 40 62.252C40.564 61.904 41.218 61.73 41.962 61.73C43.03 61.73 43.834 62.03 44.374 62.63C44.914 63.23 45.184 64.166 45.184 65.438V71H42.934V65.546C42.934 64.814 42.79 64.292 42.502 63.98C42.226 63.656 41.806 63.494 41.242 63.494C40.546 63.494 39.994 63.71 39.586 64.142C39.178 64.574 38.974 65.15 38.974 65.87V71H36.724ZM47.3018 75.086L46.7798 73.304C47.3438 73.184 47.8178 73.046 48.2018 72.89C48.5858 72.734 48.9038 72.53 49.1558 72.278C49.4078 72.026 49.6178 71.702 49.7858 71.306L50.2358 70.244L50.1818 71.126L46.2218 61.91H48.6158L51.4598 69.002H50.9378L53.7998 61.91H56.0678L51.9278 71.504C51.6518 72.152 51.3518 72.686 51.0278 73.106C50.7038 73.538 50.3558 73.88 49.9838 74.132C49.6118 74.396 49.2038 74.6 48.7598 74.744C48.3158 74.888 47.8298 75.002 47.3018 75.086ZM60.2323 71L56.6863 61.91H59.0083L61.5643 68.984H61.0963L63.6883 61.91H65.2903L67.8643 68.984H67.4503L69.9883 61.91H72.1843L68.6383 71H66.6583L63.9403 63.764H64.8943L62.2303 71H60.2323ZM73.6029 71V57.752H75.8529V63.728H75.6009C75.8769 63.08 76.3029 62.588 76.8789 62.252C77.4549 61.904 78.1149 61.73 78.8589 61.73C79.9389 61.73 80.7429 62.036 81.2709 62.648C81.7989 63.248 82.0629 64.166 82.0629 65.402V71H79.8129V65.51C79.8129 64.802 79.6749 64.292 79.3989 63.98C79.1349 63.656 78.7089 63.494 78.1209 63.494C77.4369 63.494 76.8849 63.71 76.4649 64.142C76.0569 64.562 75.8529 65.126 75.8529 65.834V71H73.6029ZM88.8406 71.18C87.3166 71.18 86.1226 70.76 85.2586 69.92C84.3946 69.08 83.9626 67.928 83.9626 66.464C83.9626 65.516 84.1486 64.688 84.5206 63.98C84.8926 63.272 85.4086 62.72 86.0686 62.324C86.7406 61.928 87.5206 61.73 88.4086 61.73C89.2846 61.73 90.0166 61.916 90.6046 62.288C91.1926 62.66 91.6366 63.182 91.9366 63.854C92.2486 64.526 92.4046 65.312 92.4046 66.212V66.806H85.7806V65.618H90.8026L90.4966 65.87C90.4966 65.03 90.3166 64.388 89.9566 63.944C89.6086 63.5 89.0986 63.278 88.4266 63.278C87.6826 63.278 87.1066 63.542 86.6986 64.07C86.3026 64.598 86.1046 65.336 86.1046 66.284V66.518C86.1046 67.502 86.3446 68.24 86.8246 68.732C87.3166 69.212 88.0066 69.452 88.8946 69.452C89.4106 69.452 89.8906 69.386 90.3346 69.254C90.7906 69.11 91.2226 68.882 91.6306 68.57L92.2966 70.082C91.8646 70.43 91.3486 70.7 90.7486 70.892C90.1486 71.084 89.5126 71.18 88.8406 71.18ZM94.2919 71V64.232C94.2919 63.848 94.2799 63.458 94.2559 63.062C94.2439 62.666 94.2139 62.282 94.1659 61.91H96.3439L96.5959 64.394H96.2359C96.3559 63.794 96.5539 63.296 96.8299 62.9C97.1179 62.504 97.4659 62.21 97.8739 62.018C98.2819 61.826 98.7259 61.73 99.2059 61.73C99.4219 61.73 99.5959 61.742 99.7279 61.766C99.8599 61.778 99.9919 61.808 100.124 61.856L100.106 63.836C99.8779 63.74 99.6799 63.68 99.5119 63.656C99.3559 63.632 99.1579 63.62 98.9179 63.62C98.4019 63.62 97.9639 63.728 97.6039 63.944C97.2559 64.16 96.9919 64.46 96.8119 64.844C96.6439 65.228 96.5599 65.666 96.5599 66.158V71H94.2919ZM105.628 71.18C104.104 71.18 102.91 70.76 102.046 69.92C101.182 69.08 100.75 67.928 100.75 66.464C100.75 65.516 100.936 64.688 101.308 63.98C101.68 63.272 102.196 62.72 102.856 62.324C103.528 61.928 104.308 61.73 105.196 61.73C106.072 61.73 106.804 61.916 107.392 62.288C107.98 62.66 108.424 63.182 108.724 63.854C109.036 64.526 109.192 65.312 109.192 66.212V66.806H102.568V65.618H107.59L107.284 65.87C107.284 65.03 107.104 64.388 106.744 63.944C106.396 63.5 105.886 63.278 105.214 63.278C104.47 63.278 103.894 63.542 103.486 64.07C103.09 64.598 102.892 65.336 102.892 66.284V66.518C102.892 67.502 103.132 68.24 103.612 68.732C104.104 69.212 104.794 69.452 105.682 69.452C106.198 69.452 106.678 69.386 107.122 69.254C107.578 69.11 108.01 68.882 108.418 68.57L109.084 70.082C108.652 70.43 108.136 70.7 107.536 70.892C106.936 71.084 106.3 71.18 105.628 71.18ZM126.657 71.18C126.105 70.988 125.577 70.73 125.073 70.406C124.569 70.07 124.113 69.716 123.705 69.344L124.191 69.362C123.639 69.926 122.997 70.37 122.265 70.694C121.533 71.018 120.753 71.18 119.925 71.18C119.001 71.18 118.203 71.036 117.531 70.748C116.859 70.46 116.343 70.064 115.983 69.56C115.623 69.044 115.443 68.444 115.443 67.76C115.443 66.944 115.683 66.248 116.163 65.672C116.643 65.096 117.303 64.556 118.143 64.052L118.755 63.71L118.413 64.124C117.897 63.608 117.513 63.11 117.261 62.63C117.009 62.15 116.883 61.652 116.883 61.136C116.883 60.536 117.027 60.014 117.315 59.57C117.615 59.114 118.029 58.76 118.557 58.508C119.097 58.256 119.727 58.13 120.447 58.13C121.383 58.13 122.145 58.382 122.733 58.886C123.321 59.378 123.615 60.05 123.615 60.902C123.615 61.358 123.525 61.784 123.345 62.18C123.165 62.576 122.871 62.954 122.463 63.314C122.067 63.674 121.545 64.034 120.897 64.394L120.951 63.944L124.101 67.202H123.633C123.945 66.71 124.185 66.134 124.353 65.474C124.521 64.814 124.623 64.118 124.659 63.386H126.549C126.513 64.37 126.357 65.3 126.081 66.176C125.805 67.052 125.433 67.826 124.965 68.498L124.947 67.958C125.271 68.294 125.643 68.6 126.062 68.876C126.483 69.152 126.939 69.38 127.431 69.56L126.657 71.18ZM120.051 69.434C120.651 69.434 121.185 69.32 121.653 69.092C122.133 68.864 122.559 68.528 122.931 68.084L122.877 68.624L119.097 64.79L120.015 64.808L119.493 65.096C119.085 65.348 118.743 65.6 118.467 65.852C118.203 66.104 118.005 66.374 117.873 66.662C117.741 66.938 117.675 67.256 117.675 67.616C117.675 68.18 117.879 68.624 118.287 68.948C118.695 69.272 119.283 69.434 120.051 69.434ZM120.447 59.66C119.991 59.66 119.625 59.792 119.349 60.056C119.073 60.32 118.935 60.668 118.935 61.1C118.935 61.328 118.977 61.544 119.061 61.748C119.145 61.952 119.283 62.174 119.475 62.414C119.667 62.642 119.919 62.924 120.231 63.26L119.691 63.296C120.435 62.888 120.975 62.516 121.311 62.18C121.659 61.832 121.833 61.436 121.833 60.992C121.833 60.572 121.707 60.248 121.455 60.02C121.203 59.78 120.867 59.66 120.447 59.66ZM132.145 71L137.887 58.31H139.831L145.645 71H143.287L141.739 67.436L142.675 68.066H135.061L136.033 67.436L134.485 71H132.145ZM138.841 60.794L136.303 66.806L135.835 66.248H141.883L141.505 66.806L138.913 60.794H138.841ZM146.869 71V64.178C146.869 63.806 146.857 63.428 146.833 63.044C146.809 62.66 146.773 62.282 146.725 61.91H148.903L149.083 63.71H148.867C149.155 63.074 149.581 62.588 150.145 62.252C150.709 61.904 151.363 61.73 152.107 61.73C153.175 61.73 153.979 62.03 154.519 62.63C155.059 63.23 155.329 64.166 155.329 65.438V71H153.079V65.546C153.079 64.814 152.935 64.292 152.647 63.98C152.371 63.656 151.951 63.494 151.387 63.494C150.691 63.494 150.139 63.71 149.731 64.142C149.323 64.574 149.119 65.15 149.119 65.87V71H146.869ZM157.446 75.086L156.924 73.304C157.488 73.184 157.962 73.046 158.346 72.89C158.73 72.734 159.048 72.53 159.3 72.278C159.552 72.026 159.762 71.702 159.93 71.306L160.38 70.244L160.326 71.126L156.366 61.91H158.76L161.604 69.002H161.082L163.944 61.91H166.212L162.072 71.504C161.796 72.152 161.496 72.686 161.172 73.106C160.848 73.538 160.5 73.88 160.128 74.132C159.756 74.396 159.348 74.6 158.904 74.744C158.46 74.888 157.974 75.002 157.446 75.086ZM171.516 71.18C170.436 71.18 169.62 70.898 169.068 70.334C168.516 69.77 168.24 68.924 168.24 67.796V63.602H166.494V61.91H168.24V59.588L170.49 59.012V61.91H172.92V63.602H170.49V67.652C170.49 68.276 170.61 68.714 170.85 68.966C171.09 69.218 171.42 69.344 171.84 69.344C172.068 69.344 172.26 69.326 172.416 69.29C172.584 69.254 172.746 69.206 172.902 69.146V70.928C172.698 71.012 172.47 71.072 172.218 71.108C171.978 71.156 171.744 71.18 171.516 71.18ZM174.449 71V61.91H176.699V71H174.449ZM174.323 60.2V58.004H176.825V60.2H174.323ZM179.142 71V64.178C179.142 63.806 179.13 63.428 179.106 63.044C179.082 62.66 179.046 62.282 178.998 61.91H181.176L181.356 63.71H181.14C181.392 63.086 181.776 62.6 182.292 62.252C182.82 61.904 183.444 61.73 184.164 61.73C184.884 61.73 185.478 61.904 185.946 62.252C186.426 62.588 186.762 63.116 186.954 63.836H186.666C186.918 63.188 187.332 62.678 187.908 62.306C188.484 61.922 189.144 61.73 189.888 61.73C190.908 61.73 191.67 62.03 192.174 62.63C192.678 63.23 192.93 64.166 192.93 65.438V71H190.68V65.528C190.68 64.808 190.56 64.292 190.32 63.98C190.08 63.656 189.696 63.494 189.168 63.494C188.544 63.494 188.052 63.716 187.692 64.16C187.332 64.592 187.152 65.18 187.152 65.924V71H184.902V65.528C184.902 64.808 184.782 64.292 184.542 63.98C184.302 63.656 183.918 63.494 183.39 63.494C182.766 63.494 182.274 63.716 181.914 64.16C181.566 64.592 181.392 65.18 181.392 65.924V71H179.142ZM199.723 71.18C198.199 71.18 197.005 70.76 196.141 69.92C195.277 69.08 194.845 67.928 194.845 66.464C194.845 65.516 195.031 64.688 195.403 63.98C195.775 63.272 196.291 62.72 196.951 62.324C197.623 61.928 198.403 61.73 199.291 61.73C200.167 61.73 200.899 61.916 201.487 62.288C202.075 62.66 202.519 63.182 202.819 63.854C203.131 64.526 203.287 65.312 203.287 66.212V66.806H196.663V65.618H201.685L201.379 65.87C201.379 65.03 201.199 64.388 200.839 63.944C200.491 63.5 199.981 63.278 199.309 63.278C198.565 63.278 197.989 63.542 197.581 64.07C197.185 64.598 196.987 65.336 196.987 66.284V66.518C196.987 67.502 197.227 68.24 197.707 68.732C198.199 69.212 198.889 69.452 199.777 69.452C200.293 69.452 200.773 69.386 201.217 69.254C201.673 69.11 202.105 68.882 202.513 68.57L203.179 70.082C202.747 70.43 202.231 70.7 201.631 70.892C201.031 71.084 200.395 71.18 199.723 71.18Z" fill="#0B0A0A"/>
<path d="M306 35C294.98 35 286 43.98 286 55C286 66.02 294.98 75 306 75C317.02 75 326 66.02 326 55C326 43.98 317.02 35 306 35ZM304.5 47C304.5 46.18 305.18 45.5 306 45.5C306.82 45.5 307.5 46.18 307.5 47V57C307.5 57.82 306.82 58.5 306 58.5C305.18 58.5 304.5 57.82 304.5 57V47ZM307.84 63.76C307.74 64.02 307.6 64.22 307.42 64.42C307.22 64.6 307 64.74 306.76 64.84C306.52 64.94 306.26 65 306 65C305.74 65 305.48 64.94 305.24 64.84C305 64.74 304.78 64.6 304.58 64.42C304.4 64.22 304.26 64.02 304.16 63.76C304.06 63.52 304 63.26 304 63C304 62.74 304.06 62.48 304.16 62.24C304.26 62 304.4 61.78 304.58 61.58C304.78 61.4 305 61.26 305.24 61.16C305.72 60.96 306.28 60.96 306.76 61.16C307 61.26 307.22 61.4 307.42 61.58C307.6 61.78 307.74 62 307.84 62.24C307.94 62.48 308 62.74 308 63C308 63.26 307.94 63.52 307.84 63.76Z" fill="#0B0A0A"/>
</g>
</g>
<defs>
<filter id="filter0_dd_355_8167" x="0" y="0" width="371" height="108" filterUnits="userSpaceOnUse" color-interpolation-filters="sRGB">
<feFlood flood-opacity="0" result="BackgroundImageFix"/>
<feColorMatrix in="SourceAlpha" type="matrix" values="0 0 0 0 0 0 0 0 0 0 0 0 0 0 0 0 0 0 127 0" result="hardAlpha"/>
<feMorphology radius="1" operator="dilate" in="SourceAlpha" result="effect1_dropShadow_355_8167"/>
<feOffset dy="1"/>
<feGaussianBlur stdDeviation="1.5"/>
<feColorMatrix type="matrix" values="0 0 0 0 0 0 0 0 0 0 0 0 0 0 0 0 0 0 0.15 0"/>
<feBlend mode="normal" in2="BackgroundImageFix" result="effect1_dropShadow_355_8167"/>
<feColorMatrix in="SourceAlpha" type="matrix" values="0 0 0 0 0 0 0 0 0 0 0 0 0 0 0 0 0 0 127 0" result="hardAlpha"/>
<feOffset dy="1"/>
<feGaussianBlur stdDeviation="1"/>
<feColorMatrix type="matrix" values="0 0 0 0 0 0 0 0 0 0 0 0 0 0 0 0 0 0 0.3 0"/>
<feBlend mode="normal" in2="effect1_dropShadow_355_8167" result="effect2_dropShadow_355_8167"/>
<feBlend mode="normal" in="SourceGraphic" in2="effect2_dropShadow_355_8167" result="shape"/>
</filter>
<linearGradient id="paint0_linear_355_8167" x1="16839" y1="-118" x2="16839" y2="63541.2" gradientUnits="userSpaceOnUse">
<stop offset="0.45" stop-color="#FEBE58"/>
<stop offset="1" stop-color="#DE2BAE"/>
</linearGradient>
<linearGradient id="paint1_linear_355_8167" x1="16083" y1="-103.531" x2="16083" y2="60662" gradientUnits="userSpaceOnUse">
<stop offset="0.45" stop-color="#FEBE58"/>
<stop offset="1" stop-color="#DE2BAE"/>
</linearGradient>
<linearGradient id="paint2_linear_355_8167" x1="15327" y1="-89.0645" x2="15327" y2="57782.9" gradientUnits="userSpaceOnUse">
<stop offset="0.45" stop-color="#FEBE58"/>
<stop offset="1" stop-color="#DE2BAE"/>
</linearGradient>
<linearGradient id="paint3_linear_355_8167" x1="14571" y1="-74.5957" x2="14571" y2="54903.8" gradientUnits="userSpaceOnUse">
<stop offset="0.45" stop-color="#FEBE58"/>
<stop offset="1" stop-color="#DE2BAE"/>
</linearGradient>
<linearGradient id="paint4_linear_355_8167" x1="13815" y1="-60.1289" x2="13815" y2="52024.6" gradientUnits="userSpaceOnUse">
<stop offset="0.45" stop-color="#FEBE58"/>
<stop offset="1" stop-color="#DE2BAE"/>
</linearGradient>
<linearGradient id="paint5_linear_355_8167" x1="13059" y1="-45.6602" x2="13059" y2="49145.5" gradientUnits="userSpaceOnUse">
<stop offset="0.45" stop-color="#FEBE58"/>
<stop offset="1" stop-color="#DE2BAE"/>
</linearGradient>
<linearGradient id="paint6_linear_355_8167" x1="12303" y1="-31.1914" x2="12303" y2="46266.4" gradientUnits="userSpaceOnUse">
<stop offset="0.45" stop-color="#FEBE58"/>
<stop offset="1" stop-color="#DE2BAE"/>
</linearGradient>
<linearGradient id="paint7_linear_355_8167" x1="11547" y1="-16.7246" x2="11547" y2="43387.2" gradientUnits="userSpaceOnUse">
<stop offset="0.45" stop-color="#FEBE58"/>
<stop offset="1" stop-color="#DE2BAE"/>
</linearGradient>
<linearGradient id="paint8_linear_355_8167" x1="10791" y1="-2.25586" x2="10791" y2="40508.1" gradientUnits="userSpaceOnUse">
<stop offset="0.45" stop-color="#FEBE58"/>
<stop offset="1" stop-color="#DE2BAE"/>
</linearGradient>
<linearGradient id="paint9_linear_355_8167" x1="10035" y1="12.2109" x2="10035" y2="37629" gradientUnits="userSpaceOnUse">
<stop offset="0.45" stop-color="#FEBE58"/>
<stop offset="1" stop-color="#DE2BAE"/>
</linearGradient>
<linearGradient id="paint10_linear_355_8167" x1="9279" y1="26.6797" x2="9279" y2="34749.9" gradientUnits="userSpaceOnUse">
<stop offset="0.45" stop-color="#FEBE58"/>
<stop offset="1" stop-color="#DE2BAE"/>
</linearGradient>
<linearGradient id="paint11_linear_355_8167" x1="8523" y1="41.1484" x2="8523" y2="31870.7" gradientUnits="userSpaceOnUse">
<stop offset="0.45" stop-color="#FEBE58"/>
<stop offset="1" stop-color="#DE2BAE"/>
</linearGradient>
<linearGradient id="paint12_linear_355_8167" x1="7767" y1="55.6152" x2="7767" y2="28991.6" gradientUnits="userSpaceOnUse">
<stop offset="0.45" stop-color="#FEBE58"/>
<stop offset="1" stop-color="#DE2BAE"/>
</linearGradient>
<linearGradient id="paint13_linear_355_8167" x1="7011" y1="70.084" x2="7011" y2="26112.5" gradientUnits="userSpaceOnUse">
<stop offset="0.45" stop-color="#FEBE58"/>
<stop offset="1" stop-color="#DE2BAE"/>
</linearGradient>
<linearGradient id="paint14_linear_355_8167" x1="6255" y1="84.5508" x2="6255" y2="23233.3" gradientUnits="userSpaceOnUse">
<stop offset="0.45" stop-color="#FEBE58"/>
<stop offset="1" stop-color="#DE2BAE"/>
</linearGradient>
<linearGradient id="paint15_linear_355_8167" x1="5499" y1="99.0195" x2="5499" y2="20354.2" gradientUnits="userSpaceOnUse">
<stop offset="0.45" stop-color="#FEBE58"/>
<stop offset="1" stop-color="#DE2BAE"/>
</linearGradient>
<clipPath id="clip0_355_8167">
<path d="M4 13C4 7.47716 8.47715 3 14 3H357C362.523 3 367 7.47715 367 13V93C367 98.5228 362.523 103 357 103H14C8.47715 103 4 98.5229 4 93V13Z" fill="white"/>
</clipPath>
</defs>
</svg>
