<svg width="371" height="108" viewBox="0 0 371 108" fill="none" xmlns="http://www.w3.org/2000/svg">
<g filter="url(#filter0_dd_355_8168)">
<g clip-path="url(#clip0_355_8168)">
<path d="M4 13C4 7.47716 8.47715 3 14 3H357C362.523 3 367 7.47715 367 13V93C367 98.5228 362.523 103 357 103H14C8.47715 103 4 98.5229 4 93V13Z" fill="black"/>
<g opacity="0.2">
<path d="M305.477 349.506C243.072 423.949 129.244 539.55 75.4561 515.312C21.6684 491.073 41.7025 323.514 47.296 233.163C52.8895 142.811 48.6377 154.524 102.305 81.6228C155.972 8.72174 248.088 -132.671 304.899 -116.762C361.71 -100.853 374.878 60.8475 374.999 157.987" stroke="url(#paint0_linear_355_8168)" stroke-width="2"/>
<path d="M301.001 342.725C241.433 413.784 132.779 524.13 81.4357 500.993C30.0929 477.857 49.2164 317.914 54.5556 231.669C59.8949 145.425 55.8363 156.605 107.064 87.0178C158.292 17.4304 246.221 -117.536 300.45 -102.35C354.678 -87.1638 367.248 67.1868 367.363 159.911" stroke="url(#paint1_linear_355_8168)" stroke-width="2"/>
<path d="M296.525 335.941C239.794 403.616 136.313 508.708 87.4153 486.673C38.5174 464.639 56.7302 312.312 61.8153 230.174C66.9003 148.036 63.035 158.684 111.823 92.4108C160.612 26.1371 244.353 -102.402 296 -87.9393C347.646 -73.4764 359.617 73.5242 359.727 161.833" stroke="url(#paint2_linear_355_8168)" stroke-width="2"/>
<path d="M292.049 329.16C238.154 393.451 139.848 493.288 93.395 472.355C46.9419 451.422 64.2441 306.712 69.0749 228.681C73.9057 150.65 70.2336 160.766 116.583 97.8058C162.932 34.8458 242.486 -87.2665 291.55 -73.5268C340.614 -59.7871 351.987 79.8635 352.091 163.757" stroke="url(#paint3_linear_355_8168)" stroke-width="2"/>
<path d="M287.573 322.376C236.515 383.284 143.383 477.866 99.3746 458.035C55.3665 438.204 71.758 301.11 76.3345 227.186C80.911 153.262 77.4323 162.845 121.342 103.199C165.252 43.5525 240.619 -72.1329 287.101 -59.1163C333.583 -46.0997 344.356 86.2009 344.455 165.678" stroke="url(#paint4_linear_355_8168)" stroke-width="2"/>
<path d="M283.098 315.595C234.876 373.119 146.917 462.447 105.354 443.717C63.791 424.987 79.2719 295.51 83.5941 225.693C87.9164 155.875 84.6309 164.926 126.101 108.594C167.571 52.2612 238.752 -56.9972 282.651 -44.7038C326.551 -32.4103 336.726 92.5402 336.819 167.602" stroke="url(#paint5_linear_355_8168)" stroke-width="2"/>
<path d="M278.618 308.813C233.233 362.953 150.448 447.027 111.33 429.399C72.2116 411.771 86.7818 289.91 90.8499 224.2C94.9179 158.489 91.8256 167.008 130.856 113.989C169.887 60.9699 236.88 -41.8616 278.198 -30.2913C319.515 -18.721 329.091 98.8795 329.179 169.526" stroke="url(#paint6_linear_355_8168)" stroke-width="2"/>
<path d="M274.142 302.03C231.593 352.786 153.983 431.605 117.31 415.079C80.6361 398.553 94.2957 284.308 98.1095 222.704C101.923 161.101 99.0243 169.087 135.616 119.382C172.207 69.6766 235.013 -26.7279 273.748 -15.8807C312.483 -5.03358 321.461 105.217 321.543 171.448" stroke="url(#paint7_linear_355_8168)" stroke-width="2"/>
<path d="M269.666 295.248C229.954 342.621 157.518 416.185 123.289 400.761C89.0606 385.336 101.81 278.708 105.369 221.211C108.929 163.715 106.223 171.168 140.375 124.777C174.527 78.3852 233.146 -11.5923 269.298 -1.46825C305.451 8.65577 313.831 111.556 313.907 173.372" stroke="url(#paint8_linear_355_8168)" stroke-width="2"/>
<path d="M265.19 288.465C228.315 332.453 161.052 400.763 129.269 386.44C97.4852 372.118 109.323 273.106 112.629 219.716C115.934 166.326 113.422 173.248 145.134 130.17C176.847 87.092 231.279 3.54142 264.849 12.9423C298.419 22.3432 306.2 117.894 306.271 175.294" stroke="url(#paint9_linear_355_8168)" stroke-width="2"/>
<path d="M260.714 281.683C226.675 322.288 164.587 385.343 135.248 372.122C105.91 358.902 116.837 267.506 119.888 218.223C122.939 168.94 120.62 175.329 149.893 135.565C179.166 95.8006 229.411 18.6771 260.399 27.3548C291.387 36.0325 298.57 124.233 298.635 177.218" stroke="url(#paint10_linear_355_8168)" stroke-width="2"/>
<path d="M256.238 274.902C225.036 312.123 168.122 369.923 141.228 357.804C114.334 345.685 124.351 261.906 127.148 216.73C129.945 171.554 127.819 177.41 154.653 140.96C181.486 104.509 227.544 33.8127 255.95 41.7673C284.355 49.7219 290.939 130.572 290.999 179.142" stroke="url(#paint11_linear_355_8168)" stroke-width="2"/>
<path d="M251.763 268.118C223.397 301.956 171.657 354.502 147.208 343.484C122.759 332.467 131.865 256.304 134.408 215.235C136.95 174.166 135.017 179.49 159.412 146.353C183.806 113.216 225.677 48.9464 251.5 56.1778C277.323 63.4093 283.309 136.91 283.363 181.064" stroke="url(#paint12_linear_355_8168)" stroke-width="2"/>
<path d="M247.287 261.337C221.758 291.79 175.191 339.082 153.187 329.166C131.183 319.25 139.379 250.704 141.667 213.741C143.956 176.779 142.216 181.571 164.171 151.748C186.126 121.925 223.809 64.082 247.05 70.5903C270.291 77.0986 275.678 143.249 275.727 182.988" stroke="url(#paint13_linear_355_8168)" stroke-width="2"/>
<path d="M242.811 254.553C220.118 281.623 178.726 323.66 159.167 314.846C139.608 306.032 146.893 245.101 148.927 212.246C150.961 179.391 149.415 183.65 168.93 157.141C188.446 130.631 221.942 79.2157 242.601 85.0008C263.259 90.786 268.048 149.586 268.091 184.91" stroke="url(#paint14_linear_355_8168)" stroke-width="2"/>
<path d="M238.335 247.772C218.479 271.458 182.261 308.24 165.147 300.528C148.032 292.816 154.407 239.501 156.187 210.753C157.966 182.005 156.613 185.732 173.689 162.536C190.765 139.34 220.075 94.3513 238.151 99.4133C256.227 104.475 260.417 155.926 260.456 186.834" stroke="url(#paint15_linear_355_8168)" stroke-width="2"/>
</g>
<path d="M23.404 49V36.31H29.038C30.43 36.31 31.492 36.646 32.224 37.318C32.956 37.99 33.322 38.914 33.322 40.09C33.322 41.254 32.956 42.178 32.224 42.862C31.492 43.546 30.43 43.888 29.038 43.888H25.726V49H23.404ZM25.726 42.052H28.768C29.536 42.052 30.112 41.884 30.496 41.548C30.88 41.2 31.072 40.714 31.072 40.09C31.072 39.466 30.88 38.986 30.496 38.65C30.112 38.302 29.536 38.128 28.768 38.128H25.726V42.052ZM35.2123 49V35.752H37.4623V49H35.2123ZM44.2976 49.18C42.7736 49.18 41.5796 48.76 40.7156 47.92C39.8516 47.08 39.4196 45.928 39.4196 44.464C39.4196 43.516 39.6056 42.688 39.9776 41.98C40.3496 41.272 40.8656 40.72 41.5256 40.324C42.1976 39.928 42.9776 39.73 43.8656 39.73C44.7416 39.73 45.4736 39.916 46.0616 40.288C46.6496 40.66 47.0936 41.182 47.3936 41.854C47.7056 42.526 47.8616 43.312 47.8616 44.212V44.806H41.2376V43.618H46.2596L45.9536 43.87C45.9536 43.03 45.7736 42.388 45.4136 41.944C45.0656 41.5 44.5556 41.278 43.8836 41.278C43.1396 41.278 42.5636 41.542 42.1556 42.07C41.7596 42.598 41.5616 43.336 41.5616 44.284V44.518C41.5616 45.502 41.8016 46.24 42.2816 46.732C42.7736 47.212 43.4636 47.452 44.3516 47.452C44.8676 47.452 45.3476 47.386 45.7916 47.254C46.2476 47.11 46.6796 46.882 47.0876 46.57L47.7536 48.082C47.3216 48.43 46.8056 48.7 46.2056 48.892C45.6056 49.084 44.9696 49.18 44.2976 49.18ZM53.277 49.18C52.485 49.18 51.789 48.994 51.189 48.622C50.589 48.238 50.121 47.692 49.785 46.984C49.449 46.276 49.281 45.43 49.281 44.446C49.281 43.462 49.449 42.622 49.785 41.926C50.121 41.218 50.589 40.678 51.189 40.306C51.789 39.922 52.485 39.73 53.277 39.73C54.045 39.73 54.717 39.922 55.293 40.306C55.881 40.678 56.271 41.182 56.463 41.818H56.265L56.463 39.91H58.623C58.587 40.282 58.551 40.66 58.515 41.044C58.491 41.428 58.479 41.806 58.479 42.178V49H56.247L56.229 47.128H56.445C56.253 47.752 55.863 48.25 55.275 48.622C54.687 48.994 54.021 49.18 53.277 49.18ZM53.907 47.452C54.615 47.452 55.185 47.206 55.617 46.714C56.049 46.21 56.265 45.454 56.265 44.446C56.265 43.438 56.049 42.688 55.617 42.196C55.185 41.704 54.615 41.458 53.907 41.458C53.199 41.458 52.629 41.704 52.197 42.196C51.765 42.688 51.549 43.438 51.549 44.446C51.549 45.454 51.759 46.21 52.179 46.714C52.611 47.206 53.187 47.452 53.907 47.452ZM64.1691 49.18C63.3891 49.18 62.6691 49.09 62.0091 48.91C61.3611 48.718 60.8151 48.454 60.3711 48.118L61.0011 46.606C61.4571 46.918 61.9611 47.158 62.5131 47.326C63.0651 47.494 63.6231 47.578 64.1871 47.578C64.7871 47.578 65.2311 47.476 65.5191 47.272C65.8191 47.068 65.9691 46.792 65.9691 46.444C65.9691 46.168 65.8731 45.952 65.6811 45.796C65.5011 45.628 65.2071 45.502 64.7991 45.418L62.9991 45.076C62.2311 44.908 61.6431 44.62 61.2351 44.212C60.8391 43.804 60.6411 43.27 60.6411 42.61C60.6411 42.046 60.7911 41.548 61.0911 41.116C61.4031 40.684 61.8411 40.348 62.4051 40.108C62.9811 39.856 63.6531 39.73 64.4211 39.73C65.0931 39.73 65.7231 39.82 66.3111 40C66.9111 40.18 67.4151 40.45 67.8231 40.81L67.1751 42.268C66.8031 41.968 66.3771 41.734 65.8971 41.566C65.4171 41.398 64.9491 41.314 64.4931 41.314C63.8691 41.314 63.4131 41.428 63.1251 41.656C62.8371 41.872 62.6931 42.154 62.6931 42.502C62.6931 42.766 62.7771 42.988 62.9451 43.168C63.1251 43.336 63.4011 43.462 63.7731 43.546L65.5731 43.888C66.3771 44.044 66.9831 44.32 67.3911 44.716C67.8111 45.1 68.0211 45.628 68.0211 46.3C68.0211 46.9 67.8591 47.416 67.5351 47.848C67.2111 48.28 66.7611 48.61 66.1851 48.838C65.6091 49.066 64.9371 49.18 64.1691 49.18ZM74.3387 49.18C72.8147 49.18 71.6207 48.76 70.7567 47.92C69.8927 47.08 69.4607 45.928 69.4607 44.464C69.4607 43.516 69.6467 42.688 70.0187 41.98C70.3907 41.272 70.9067 40.72 71.5667 40.324C72.2387 39.928 73.0187 39.73 73.9067 39.73C74.7827 39.73 75.5147 39.916 76.1027 40.288C76.6907 40.66 77.1347 41.182 77.4347 41.854C77.7467 42.526 77.9027 43.312 77.9027 44.212V44.806H71.2787V43.618H76.3007L75.9947 43.87C75.9947 43.03 75.8147 42.388 75.4547 41.944C75.1067 41.5 74.5967 41.278 73.9247 41.278C73.1807 41.278 72.6047 41.542 72.1967 42.07C71.8007 42.598 71.6027 43.336 71.6027 44.284V44.518C71.6027 45.502 71.8427 46.24 72.3227 46.732C72.8147 47.212 73.5047 47.452 74.3927 47.452C74.9087 47.452 75.3887 47.386 75.8327 47.254C76.2887 47.11 76.7207 46.882 77.1287 46.57L77.7947 48.082C77.3627 48.43 76.8467 48.7 76.2467 48.892C75.6467 49.084 75.0107 49.18 74.3387 49.18ZM88.9234 49.18C87.9874 49.18 87.1654 48.988 86.4574 48.604C85.7614 48.22 85.2214 47.674 84.8374 46.966C84.4534 46.246 84.2614 45.394 84.2614 44.41C84.2614 43.426 84.4534 42.586 84.8374 41.89C85.2334 41.194 85.7794 40.66 86.4754 40.288C87.1714 39.916 87.9874 39.73 88.9234 39.73C89.5234 39.73 90.1054 39.826 90.6694 40.018C91.2454 40.198 91.7134 40.462 92.0734 40.81L91.3894 42.376C91.0654 42.076 90.6994 41.854 90.2914 41.71C89.8954 41.554 89.5054 41.476 89.1214 41.476C88.3174 41.476 87.6874 41.728 87.2314 42.232C86.7874 42.736 86.5654 43.468 86.5654 44.428C86.5654 45.388 86.7874 46.126 87.2314 46.642C87.6874 47.158 88.3174 47.416 89.1214 47.416C89.4934 47.416 89.8774 47.344 90.2734 47.2C90.6814 47.056 91.0534 46.834 91.3894 46.534L92.0734 48.082C91.7014 48.43 91.2274 48.7 90.6514 48.892C90.0874 49.084 89.5114 49.18 88.9234 49.18ZM97.746 49.18C96.81 49.18 96 48.988 95.316 48.604C94.632 48.22 94.098 47.674 93.714 46.966C93.342 46.258 93.156 45.418 93.156 44.446C93.156 43.474 93.342 42.64 93.714 41.944C94.098 41.236 94.632 40.69 95.316 40.306C96 39.922 96.81 39.73 97.746 39.73C98.682 39.73 99.492 39.922 100.176 40.306C100.872 40.69 101.406 41.236 101.778 41.944C102.162 42.64 102.354 43.474 102.354 44.446C102.354 45.418 102.162 46.258 101.778 46.966C101.406 47.674 100.872 48.22 100.176 48.604C99.492 48.988 98.682 49.18 97.746 49.18ZM97.746 47.452C98.454 47.452 99.018 47.206 99.438 46.714C99.858 46.21 100.068 45.454 100.068 44.446C100.068 43.438 99.858 42.688 99.438 42.196C99.018 41.704 98.454 41.458 97.746 41.458C97.038 41.458 96.474 41.704 96.054 42.196C95.634 42.688 95.424 43.438 95.424 44.446C95.424 45.454 95.634 46.21 96.054 46.714C96.474 47.206 97.038 47.452 97.746 47.452ZM104.294 49V42.178C104.294 41.806 104.282 41.428 104.258 41.044C104.234 40.66 104.198 40.282 104.15 39.91H106.328L106.508 41.71H106.292C106.544 41.086 106.928 40.6 107.444 40.252C107.972 39.904 108.596 39.73 109.316 39.73C110.036 39.73 110.63 39.904 111.098 40.252C111.578 40.588 111.914 41.116 112.106 41.836H111.818C112.07 41.188 112.484 40.678 113.06 40.306C113.636 39.922 114.296 39.73 115.04 39.73C116.06 39.73 116.822 40.03 117.326 40.63C117.83 41.23 118.082 42.166 118.082 43.438V49H115.832V43.528C115.832 42.808 115.712 42.292 115.472 41.98C115.232 41.656 114.848 41.494 114.32 41.494C113.696 41.494 113.204 41.716 112.844 42.16C112.484 42.592 112.304 43.18 112.304 43.924V49H110.054V43.528C110.054 42.808 109.934 42.292 109.694 41.98C109.454 41.656 109.07 41.494 108.542 41.494C107.918 41.494 107.426 41.716 107.066 42.16C106.718 42.592 106.544 43.18 106.544 43.924V49H104.294ZM120.484 52.888V42.178C120.484 41.806 120.472 41.428 120.448 41.044C120.424 40.66 120.388 40.282 120.34 39.91H122.518L122.716 41.818H122.518C122.698 41.182 123.076 40.678 123.652 40.306C124.24 39.922 124.918 39.73 125.686 39.73C126.49 39.73 127.192 39.922 127.792 40.306C128.392 40.678 128.86 41.218 129.196 41.926C129.532 42.622 129.7 43.462 129.7 44.446C129.7 45.43 129.532 46.276 129.196 46.984C128.86 47.692 128.392 48.238 127.792 48.622C127.192 48.994 126.49 49.18 125.686 49.18C124.93 49.18 124.264 48.994 123.688 48.622C123.112 48.25 122.728 47.752 122.536 47.128H122.734V52.888H120.484ZM125.056 47.452C125.776 47.452 126.352 47.206 126.784 46.714C127.216 46.21 127.432 45.454 127.432 44.446C127.432 43.438 127.216 42.688 126.784 42.196C126.352 41.704 125.776 41.458 125.056 41.458C124.348 41.458 123.778 41.704 123.346 42.196C122.914 42.688 122.698 43.438 122.698 44.446C122.698 45.454 122.914 46.21 123.346 46.714C123.778 47.206 124.348 47.452 125.056 47.452ZM131.646 49V35.752H133.896V49H131.646ZM140.731 49.18C139.207 49.18 138.013 48.76 137.149 47.92C136.285 47.08 135.853 45.928 135.853 44.464C135.853 43.516 136.039 42.688 136.411 41.98C136.783 41.272 137.299 40.72 137.959 40.324C138.631 39.928 139.411 39.73 140.299 39.73C141.175 39.73 141.907 39.916 142.495 40.288C143.083 40.66 143.527 41.182 143.827 41.854C144.139 42.526 144.295 43.312 144.295 44.212V44.806H137.671V43.618H142.693L142.387 43.87C142.387 43.03 142.207 42.388 141.847 41.944C141.499 41.5 140.989 41.278 140.317 41.278C139.573 41.278 138.997 41.542 138.589 42.07C138.193 42.598 137.995 43.336 137.995 44.284V44.518C137.995 45.502 138.235 46.24 138.715 46.732C139.207 47.212 139.897 47.452 140.785 47.452C141.301 47.452 141.781 47.386 142.225 47.254C142.681 47.11 143.113 46.882 143.521 46.57L144.187 48.082C143.755 48.43 143.239 48.7 142.639 48.892C142.039 49.084 141.403 49.18 140.731 49.18ZM150.053 49.18C148.973 49.18 148.157 48.898 147.605 48.334C147.053 47.77 146.777 46.924 146.777 45.796V41.602H145.031V39.91H146.777V37.588L149.027 37.012V39.91H151.457V41.602H149.027V45.652C149.027 46.276 149.147 46.714 149.387 46.966C149.627 47.218 149.957 47.344 150.377 47.344C150.605 47.344 150.797 47.326 150.953 47.29C151.121 47.254 151.283 47.206 151.439 47.146V48.928C151.235 49.012 151.007 49.072 150.755 49.108C150.515 49.156 150.281 49.18 150.053 49.18ZM157.29 49.18C155.766 49.18 154.572 48.76 153.708 47.92C152.844 47.08 152.412 45.928 152.412 44.464C152.412 43.516 152.598 42.688 152.97 41.98C153.342 41.272 153.858 40.72 154.518 40.324C155.19 39.928 155.97 39.73 156.858 39.73C157.734 39.73 158.466 39.916 159.054 40.288C159.642 40.66 160.086 41.182 160.386 41.854C160.698 42.526 160.854 43.312 160.854 44.212V44.806H154.23V43.618H159.252L158.946 43.87C158.946 43.03 158.766 42.388 158.406 41.944C158.058 41.5 157.548 41.278 156.876 41.278C156.132 41.278 155.556 41.542 155.148 42.07C154.752 42.598 154.554 43.336 154.554 44.284V44.518C154.554 45.502 154.794 46.24 155.274 46.732C155.766 47.212 156.456 47.452 157.344 47.452C157.86 47.452 158.34 47.386 158.784 47.254C159.24 47.11 159.672 46.882 160.08 46.57L160.746 48.082C160.314 48.43 159.798 48.7 159.198 48.892C158.598 49.084 157.962 49.18 157.29 49.18ZM23.044 75.086L22.522 73.304C23.086 73.184 23.56 73.046 23.944 72.89C24.328 72.734 24.646 72.53 24.898 72.278C25.15 72.026 25.36 71.702 25.528 71.306L25.978 70.244L25.924 71.126L21.964 61.91H24.358L27.202 69.002H26.68L29.542 61.91H31.81L27.67 71.504C27.394 72.152 27.094 72.686 26.77 73.106C26.446 73.538 26.098 73.88 25.726 74.132C25.354 74.396 24.946 74.6 24.502 74.744C24.058 74.888 23.572 75.002 23.044 75.086ZM36.9257 71.18C35.9897 71.18 35.1797 70.988 34.4957 70.604C33.8117 70.22 33.2777 69.674 32.8937 68.966C32.5217 68.258 32.3357 67.418 32.3357 66.446C32.3357 65.474 32.5217 64.64 32.8937 63.944C33.2777 63.236 33.8117 62.69 34.4957 62.306C35.1797 61.922 35.9897 61.73 36.9257 61.73C37.8617 61.73 38.6717 61.922 39.3557 62.306C40.0517 62.69 40.5857 63.236 40.9577 63.944C41.3417 64.64 41.5337 65.474 41.5337 66.446C41.5337 67.418 41.3417 68.258 40.9577 68.966C40.5857 69.674 40.0517 70.22 39.3557 70.604C38.6717 70.988 37.8617 71.18 36.9257 71.18ZM36.9257 69.452C37.6337 69.452 38.1977 69.206 38.6177 68.714C39.0377 68.21 39.2477 67.454 39.2477 66.446C39.2477 65.438 39.0377 64.688 38.6177 64.196C38.1977 63.704 37.6337 63.458 36.9257 63.458C36.2177 63.458 35.6537 63.704 35.2337 64.196C34.8137 64.688 34.6037 65.438 34.6037 66.446C34.6037 67.454 34.8137 68.21 35.2337 68.714C35.6537 69.206 36.2177 69.452 36.9257 69.452ZM46.75 71.18C45.634 71.18 44.8 70.874 44.248 70.262C43.696 69.65 43.42 68.714 43.42 67.454V61.91H45.67V67.436C45.67 68.108 45.808 68.606 46.084 68.93C46.36 69.242 46.78 69.398 47.344 69.398C47.98 69.398 48.496 69.182 48.892 68.75C49.3 68.318 49.504 67.748 49.504 67.04V61.91H51.754V71H49.558V69.146H49.81C49.546 69.794 49.144 70.298 48.604 70.658C48.076 71.006 47.458 71.18 46.75 71.18ZM54.1787 71V64.232C54.1787 63.848 54.1667 63.458 54.1427 63.062C54.1307 62.666 54.1007 62.282 54.0527 61.91H56.2307L56.4827 64.394H56.1227C56.2427 63.794 56.4407 63.296 56.7167 62.9C57.0047 62.504 57.3527 62.21 57.7607 62.018C58.1687 61.826 58.6127 61.73 59.0927 61.73C59.3087 61.73 59.4827 61.742 59.6147 61.766C59.7467 61.778 59.8787 61.808 60.0107 61.856L59.9927 63.836C59.7647 63.74 59.5667 63.68 59.3987 63.656C59.2427 63.632 59.0447 63.62 58.8047 63.62C58.2887 63.62 57.8507 63.728 57.4907 63.944C57.1427 64.16 56.8787 64.46 56.6987 64.844C56.5307 65.228 56.4467 65.666 56.4467 66.158V71H54.1787ZM66.3825 71V58.31H68.7045V63.926H68.7405L74.2665 58.31H77.0745L70.4505 64.916L70.4685 63.908L77.5065 71H74.6085L68.7405 65.132H68.7045V71H66.3825ZM81.0449 71V65.006L81.5309 66.392L76.0769 58.31H78.7589L82.5029 64.07H81.9989L85.7429 58.31H88.3349L82.8989 66.392L83.3669 65.006V71H81.0449ZM94.3998 71.18C93.0798 71.18 91.9458 70.916 90.9978 70.388C90.0618 69.848 89.3418 69.092 88.8378 68.12C88.3338 67.136 88.0818 65.978 88.0818 64.646C88.0818 63.314 88.3338 62.162 88.8378 61.19C89.3418 60.218 90.0618 59.468 90.9978 58.94C91.9458 58.4 93.0798 58.13 94.3998 58.13C95.2878 58.13 96.0858 58.256 96.7938 58.508C97.5138 58.76 98.1318 59.132 98.6478 59.624L97.8918 61.46C97.3278 61.004 96.7818 60.68 96.2538 60.488C95.7378 60.284 95.1438 60.182 94.4718 60.182C93.1878 60.182 92.2038 60.572 91.5198 61.352C90.8478 62.12 90.5118 63.218 90.5118 64.646C90.5118 66.074 90.8478 67.178 91.5198 67.958C92.2038 68.738 93.1878 69.128 94.4718 69.128C95.1438 69.128 95.7378 69.032 96.2538 68.84C96.7818 68.636 97.3278 68.3 97.8918 67.832L98.6478 69.668C98.1318 70.148 97.5138 70.52 96.7938 70.784C96.0858 71.048 95.2878 71.18 94.3998 71.18Z" fill="#FAFAFA"/>
<path d="M306 35C294.98 35 286 43.98 286 55C286 66.02 294.98 75 306 75C317.02 75 326 66.02 326 55C326 43.98 317.02 35 306 35ZM304.5 47C304.5 46.18 305.18 45.5 306 45.5C306.82 45.5 307.5 46.18 307.5 47V57C307.5 57.82 306.82 58.5 306 58.5C305.18 58.5 304.5 57.82 304.5 57V47ZM307.84 63.76C307.74 64.02 307.6 64.22 307.42 64.42C307.22 64.6 307 64.74 306.76 64.84C306.52 64.94 306.26 65 306 65C305.74 65 305.48 64.94 305.24 64.84C305 64.74 304.78 64.6 304.58 64.42C304.4 64.22 304.26 64.02 304.16 63.76C304.06 63.52 304 63.26 304 63C304 62.74 304.06 62.48 304.16 62.24C304.26 62 304.4 61.78 304.58 61.58C304.78 61.4 305 61.26 305.24 61.16C305.72 60.96 306.28 60.96 306.76 61.16C307 61.26 307.22 61.4 307.42 61.58C307.6 61.78 307.74 62 307.84 62.24C307.94 62.48 308 62.74 308 63C308 63.26 307.94 63.52 307.84 63.76Z" fill="#FAFAFA"/>
</g>
</g>
<defs>
<filter id="filter0_dd_355_8168" x="0" y="0" width="371" height="108" filterUnits="userSpaceOnUse" color-interpolation-filters="sRGB">
<feFlood flood-opacity="0" result="BackgroundImageFix"/>
<feColorMatrix in="SourceAlpha" type="matrix" values="0 0 0 0 0 0 0 0 0 0 0 0 0 0 0 0 0 0 127 0" result="hardAlpha"/>
<feMorphology radius="1" operator="dilate" in="SourceAlpha" result="effect1_dropShadow_355_8168"/>
<feOffset dy="1"/>
<feGaussianBlur stdDeviation="1.5"/>
<feColorMatrix type="matrix" values="0 0 0 0 0 0 0 0 0 0 0 0 0 0 0 0 0 0 0.15 0"/>
<feBlend mode="normal" in2="BackgroundImageFix" result="effect1_dropShadow_355_8168"/>
<feColorMatrix in="SourceAlpha" type="matrix" values="0 0 0 0 0 0 0 0 0 0 0 0 0 0 0 0 0 0 127 0" result="hardAlpha"/>
<feOffset dy="1"/>
<feGaussianBlur stdDeviation="1"/>
<feColorMatrix type="matrix" values="0 0 0 0 0 0 0 0 0 0 0 0 0 0 0 0 0 0 0.3 0"/>
<feBlend mode="normal" in2="effect1_dropShadow_355_8168" result="effect2_dropShadow_355_8168"/>
<feBlend mode="normal" in="SourceGraphic" in2="effect2_dropShadow_355_8168" result="shape"/>
</filter>
<linearGradient id="paint0_linear_355_8168" x1="16839" y1="-118" x2="16839" y2="63541.2" gradientUnits="userSpaceOnUse">
<stop offset="0.45" stop-color="#FEBE58"/>
<stop offset="1" stop-color="#DE2BAE"/>
</linearGradient>
<linearGradient id="paint1_linear_355_8168" x1="16083" y1="-103.531" x2="16083" y2="60662" gradientUnits="userSpaceOnUse">
<stop offset="0.45" stop-color="#FEBE58"/>
<stop offset="1" stop-color="#DE2BAE"/>
</linearGradient>
<linearGradient id="paint2_linear_355_8168" x1="15327" y1="-89.0645" x2="15327" y2="57782.9" gradientUnits="userSpaceOnUse">
<stop offset="0.45" stop-color="#FEBE58"/>
<stop offset="1" stop-color="#DE2BAE"/>
</linearGradient>
<linearGradient id="paint3_linear_355_8168" x1="14571" y1="-74.5957" x2="14571" y2="54903.8" gradientUnits="userSpaceOnUse">
<stop offset="0.45" stop-color="#FEBE58"/>
<stop offset="1" stop-color="#DE2BAE"/>
</linearGradient>
<linearGradient id="paint4_linear_355_8168" x1="13815" y1="-60.1289" x2="13815" y2="52024.6" gradientUnits="userSpaceOnUse">
<stop offset="0.45" stop-color="#FEBE58"/>
<stop offset="1" stop-color="#DE2BAE"/>
</linearGradient>
<linearGradient id="paint5_linear_355_8168" x1="13059" y1="-45.6602" x2="13059" y2="49145.5" gradientUnits="userSpaceOnUse">
<stop offset="0.45" stop-color="#FEBE58"/>
<stop offset="1" stop-color="#DE2BAE"/>
</linearGradient>
<linearGradient id="paint6_linear_355_8168" x1="12303" y1="-31.1914" x2="12303" y2="46266.4" gradientUnits="userSpaceOnUse">
<stop offset="0.45" stop-color="#FEBE58"/>
<stop offset="1" stop-color="#DE2BAE"/>
</linearGradient>
<linearGradient id="paint7_linear_355_8168" x1="11547" y1="-16.7246" x2="11547" y2="43387.2" gradientUnits="userSpaceOnUse">
<stop offset="0.45" stop-color="#FEBE58"/>
<stop offset="1" stop-color="#DE2BAE"/>
</linearGradient>
<linearGradient id="paint8_linear_355_8168" x1="10791" y1="-2.25586" x2="10791" y2="40508.1" gradientUnits="userSpaceOnUse">
<stop offset="0.45" stop-color="#FEBE58"/>
<stop offset="1" stop-color="#DE2BAE"/>
</linearGradient>
<linearGradient id="paint9_linear_355_8168" x1="10035" y1="12.2109" x2="10035" y2="37629" gradientUnits="userSpaceOnUse">
<stop offset="0.45" stop-color="#FEBE58"/>
<stop offset="1" stop-color="#DE2BAE"/>
</linearGradient>
<linearGradient id="paint10_linear_355_8168" x1="9279" y1="26.6797" x2="9279" y2="34749.9" gradientUnits="userSpaceOnUse">
<stop offset="0.45" stop-color="#FEBE58"/>
<stop offset="1" stop-color="#DE2BAE"/>
</linearGradient>
<linearGradient id="paint11_linear_355_8168" x1="8523" y1="41.1484" x2="8523" y2="31870.7" gradientUnits="userSpaceOnUse">
<stop offset="0.45" stop-color="#FEBE58"/>
<stop offset="1" stop-color="#DE2BAE"/>
</linearGradient>
<linearGradient id="paint12_linear_355_8168" x1="7767" y1="55.6152" x2="7767" y2="28991.6" gradientUnits="userSpaceOnUse">
<stop offset="0.45" stop-color="#FEBE58"/>
<stop offset="1" stop-color="#DE2BAE"/>
</linearGradient>
<linearGradient id="paint13_linear_355_8168" x1="7011" y1="70.084" x2="7011" y2="26112.5" gradientUnits="userSpaceOnUse">
<stop offset="0.45" stop-color="#FEBE58"/>
<stop offset="1" stop-color="#DE2BAE"/>
</linearGradient>
<linearGradient id="paint14_linear_355_8168" x1="6255" y1="84.5508" x2="6255" y2="23233.3" gradientUnits="userSpaceOnUse">
<stop offset="0.45" stop-color="#FEBE58"/>
<stop offset="1" stop-color="#DE2BAE"/>
</linearGradient>
<linearGradient id="paint15_linear_355_8168" x1="5499" y1="99.0195" x2="5499" y2="20354.2" gradientUnits="userSpaceOnUse">
<stop offset="0.45" stop-color="#FEBE58"/>
<stop offset="1" stop-color="#DE2BAE"/>
</linearGradient>
<clipPath id="clip0_355_8168">
<path d="M4 13C4 7.47716 8.47715 3 14 3H357C362.523 3 367 7.47715 367 13V93C367 98.5228 362.523 103 357 103H14C8.47715 103 4 98.5229 4 93V13Z" fill="white"/>
</clipPath>
</defs>
</svg>
