<svg width="92" height="96" viewBox="0 0 92 96" fill="none" xmlns="http://www.w3.org/2000/svg">
<path d="M29.2444 20.6412C30.5682 19.7747 31.922 18.9923 33.4475 18.5076C42.2282 15.7131 51.1843 23.055 50.1628 32.2225C49.9935 33.7214 49.7946 33.3066 51.1173 33.8971C51.5381 34.0839 51.9739 34.2377 52.3678 34.4695C52.8759 34.7676 53.1401 34.7019 53.4068 34.1344C54.1198 32.6092 55.1244 31.2556 56.3066 30.0735C57.7527 28.6274 59.4095 27.4278 61.3131 26.6252C66.5706 24.4059 71.7052 24.728 76.6118 27.6485C82.8504 31.3608 85.8495 39.0164 83.9029 45.9986C81.8217 53.4584 75.1136 58.3675 67.3805 58.0931C66.1367 58.0494 66.1216 58.0464 65.997 59.2479C65.4836 64.1231 63.7138 68.5039 60.5853 72.2521C55.8281 77.9539 49.6734 80.9862 42.2293 81.2288C36.2001 81.4223 30.8081 79.5707 26.0716 75.8123C25.9634 75.728 25.8371 75.6738 25.7199 75.6045C24.6159 74.5005 23.5119 73.3966 22.4079 72.2926C22.2965 72.1212 22.1912 71.9438 22.0708 71.7814C18.1316 66.6121 16.3305 60.7906 16.9319 54.3293C17.5512 47.6758 20.4069 42.1127 25.5325 37.7753C25.9496 37.4244 26.0243 37.127 25.7683 36.607C24.1778 33.3604 23.9812 30.0194 25.1124 26.5901C25.5672 25.2028 26.3287 23.984 27.1142 22.7774C27.8193 22.0663 28.5334 21.3522 29.2444 20.6412ZM25.6838 40.975C21.5374 45.1454 19.348 50.2047 19.2745 56.0718C19.1762 63.6964 22.2936 69.8741 28.3621 74.4664C37.7023 81.5324 51.2281 79.8226 58.6637 70.7265C62.383 66.1769 64.1546 60.9519 63.6603 55.0931C62.9128 46.2688 58.3863 39.9901 50.3902 36.2004C49.3562 35.7124 49.3382 35.7424 48.8198 36.7662C46.3566 41.6177 41.0308 44.4047 35.6343 43.6587C32.6686 43.2492 30.1224 41.9812 28.0347 39.8334C27.6075 39.3943 27.2709 39.3277 26.8419 39.7989C26.479 40.216 26.0709 40.588 25.6838 40.975ZM58.0422 31.7852C56.965 32.7781 56.1405 34.0899 55.4063 35.4739C55.1845 35.8942 55.242 36.1677 55.6569 36.4446C56.3034 36.881 56.9379 37.3415 57.5184 37.856C62.6013 42.3749 65.5437 47.9816 66.0273 54.8017C66.0671 55.3576 66.2476 55.6162 66.8365 55.653C71.89 55.942 76.0606 54.2019 79.1857 50.2044C83.8375 44.2471 82.9038 35.4346 76.5765 30.5175C70.9981 26.1871 63.1097 26.7176 58.0422 31.7852ZM29.9313 38.2497C33.8301 42.4066 40.8088 42.3406 44.7421 38.299C48.8103 34.1224 48.931 27.6125 44.7918 23.4553C40.6496 19.2951 34.1093 19.1634 29.8909 23.3758C25.4234 27.8373 26.03 34.5645 29.9313 38.2497Z" fill="#C17B31"/>
<path d="M49.8382 91.468C49.3058 90.9596 49.341 90.2807 49.9319 89.5695C50.8857 88.4171 51.0851 86.9483 50.4286 85.7277C50.266 85.4271 50.0343 85.1654 49.8416 84.8828C49.351 84.1822 49.3472 83.5362 49.8273 83.0802C50.2924 82.6392 50.9744 82.6912 51.627 83.2118C52.6164 84.0031 53.7164 84.335 54.9687 83.9792C55.5092 83.8237 55.9504 83.5148 56.3766 83.1549C56.9617 82.6599 57.6587 82.6608 58.1189 83.1151C58.6093 83.5994 58.6072 84.2994 58.1183 84.9146C56.8166 86.5532 56.8096 88.0823 58.1215 89.7063C58.4886 90.1634 58.6184 90.6353 58.3728 91.1697C58.1571 91.6441 57.7337 91.8087 57.247 91.8081C56.8024 91.8075 56.4806 91.5157 56.1648 91.2539C55.5934 90.7845 54.9651 90.5103 54.2231 90.4763C53.2617 90.433 52.4238 90.6993 51.6946 91.3382C51.0104 91.9262 50.3496 91.9553 49.8382 91.468ZM53.2627 86.6237C53.2122 87.0292 53.1497 87.4827 53.3094 87.9125C53.3698 88.0808 54.6105 88.1215 54.6674 87.9564C54.817 87.5239 54.8014 87.0643 54.6717 86.6285C54.6204 86.4752 53.4277 86.4586 53.2627 86.6237Z" fill="#C17B31"/>
<path opacity="0.5" d="M56.3647 20.0394C55.8517 20.5644 55.329 20.5698 54.6643 20.0311C53.5005 19.0893 52.2353 18.7542 50.8271 19.3983C50.4158 19.587 50.0587 19.884 49.6745 20.1358C49.0742 20.5316 48.5063 20.4978 48.0671 20.0346C47.655 19.6044 47.6331 18.9285 48.071 18.4063C48.4429 17.9622 48.7758 17.503 48.9253 16.9384C49.2602 15.7011 49.0093 14.5802 48.2029 13.5817C47.6763 12.9291 47.6154 12.2561 48.0534 11.794C48.4914 11.332 49.1974 11.3659 49.844 11.8805C51.4018 13.1202 53.0511 13.1074 54.6026 11.8506C55.1818 11.3797 55.8337 11.3355 56.2908 11.7387C56.8052 12.193 56.8269 12.7608 56.3532 13.4511C54.9888 15.4472 55.0053 16.5377 56.4348 18.4893C56.8411 19.0516 56.8178 19.5743 56.3647 20.0394ZM51.4424 16.6052C51.6439 16.7887 52.8605 16.7452 52.9625 16.6132C53.0555 16.4901 53.0448 15.2193 52.9427 15.2132C52.456 15.1825 51.7768 15.0014 51.5247 15.2474C51.2757 15.4844 51.4508 16.1696 51.4424 16.6052Z" fill="#C17B31"/>
<path d="M68.8924 62.4073C70.7676 60.5381 73.6607 60.5569 75.5408 62.449C77.4028 64.3231 77.3796 67.2341 75.4894 69.1063C73.6231 70.9544 70.727 70.9086 68.8319 69.0015C66.9909 67.1425 67.0142 64.2795 68.8924 62.4073ZM70.577 64.0858C69.6829 64.9679 69.6788 66.47 70.5692 67.3664C71.4416 68.2448 73.0068 68.2438 73.8648 67.3617C74.7109 66.4916 74.7089 64.9895 73.8606 64.1172C72.9792 63.2238 71.4681 63.2068 70.577 64.0858Z" fill="#C17B31"/>
<path d="M49.691 6.86636C48.8006 5.97596 48.8006 5.97595 49.6226 5.15386C50.5347 4.24177 50.5347 4.24177 51.383 5.09006C52.2734 5.98046 52.2734 5.98047 51.4033 6.85056C50.5393 7.71465 50.5393 7.71464 49.691 6.86636Z" fill="#C17B31"/>
<path d="M63.0971 74.8303C63.2261 74.7012 63.3551 74.5722 63.4841 74.4432C63.5471 74.3802 63.6131 74.2902 63.6912 74.2662C64.52 74.051 64.6864 74.8894 65.1705 75.2235C65.4622 75.4252 65.5737 75.7227 65.2587 76.0317C65.1596 76.1248 65.0696 76.2268 64.9706 76.3258C63.8665 77.4479 63.4128 77.3903 62.5098 76.0312C62.3623 75.8117 62.332 75.6134 62.521 75.4183C62.71 75.2233 62.9081 75.0313 63.1001 74.8393C63.1001 74.8333 63.0971 74.8303 63.0971 74.8303Z" fill="#C17B31"/>
<path d="M53.1037 25.0225C53.2328 24.8935 53.3618 24.7644 53.4908 24.6354C53.5538 24.5724 53.6168 24.4794 53.6948 24.4615C54.5177 24.2582 54.693 25.0816 55.1712 25.4217C55.4749 25.6354 55.5293 25.9419 55.2173 26.2299C55.1333 26.3079 55.0583 26.3949 54.9803 26.4729C53.7561 27.673 54.0385 27.7034 52.7993 26.5242C52.321 26.0699 52.2905 25.7094 52.8067 25.3075C52.9177 25.2265 53.0077 25.1185 53.1037 25.0225Z" fill="#C17B31"/>
<path d="M12.505 50.7121C13.8587 52.0717 13.8497 54.385 12.4875 55.7351C11.0864 57.1242 8.78212 57.1182 7.40738 55.7195C6.08077 54.3749 6.08669 51.9925 7.42184 50.6694C8.81401 49.2953 11.1093 49.3103 12.505 50.7121ZM10.6647 54.0203C11.1418 53.5853 11.1861 52.9635 10.7739 52.5093C10.3287 52.0161 9.66169 51.9792 9.20261 52.4142C8.75853 52.8342 8.73535 53.4951 9.15051 53.9402C9.56869 54.4004 10.2116 54.4373 10.6647 54.0203Z" fill="#C17B31"/>
<path d="M13.2391 43.3236C12.3366 42.4212 12.3366 42.4212 13.1767 41.5811C14.0918 40.666 14.0918 40.666 15.0303 41.6046C15.8516 42.4258 15.8516 42.4258 14.9305 43.3469C14.0964 44.181 14.0964 44.181 13.2391 43.3236Z" fill="#C17B31"/>
<path d="M28.9982 47.3769C29.8653 46.5098 29.8653 46.5098 30.8008 47.4453C31.625 48.2695 31.625 48.2695 30.6979 49.1966C29.8698 50.0247 29.8698 50.0247 28.8832 49.032C28.1131 48.2619 28.1131 48.2619 28.9982 47.3769Z" fill="#C17B31"/>
<path d="M75.9363 32.937C77.8859 35.1386 79.7401 37.8628 79.9278 41.3389C80.1002 44.5056 79.0583 47.2741 76.7661 49.5303C76.442 49.8483 76.1567 49.905 75.8408 49.5471C75.8257 49.5321 75.8077 49.514 75.7927 49.499C74.6617 48.458 74.6617 48.458 75.6246 47.3027C77.9912 44.4608 78.2027 40.7538 76.1944 37.2994C75.4507 36.0216 74.5029 34.9059 73.4921 33.841C73.1672 33.4981 73.1008 33.2577 73.4549 32.9397C73.5569 32.8497 73.6469 32.7417 73.7399 32.6427C74.6579 31.6525 74.6579 31.6525 75.9363 32.937Z" fill="#C17B31"/>
<path d="M65.543 37.5199C65.672 37.3909 65.81 37.2709 65.93 37.1329C66.254 36.7547 66.5514 36.7702 66.9034 37.1221C68.2811 38.5178 68.1635 38.1722 66.9665 39.4534C66.5225 39.9275 66.159 39.9781 65.7498 39.4549C65.6956 39.3827 65.6204 39.3255 65.5573 39.2624C64.6729 38.384 64.6729 38.384 65.543 37.5199Z" fill="#C17B31"/>
<path d="M53.3099 51.0059L38.6432 65.6725L31.9766 59.0059" stroke="#C17B31" stroke-width="3.55556" stroke-linecap="round" stroke-linejoin="round"/>
</svg>
