<svg width="25" height="24" viewBox="0 0 25 24" fill="none" xmlns="http://www.w3.org/2000/svg">
<path d="M22.9154 7.21202L15.188 0.924021C13.6779 -0.299978 11.3183 -0.311978 9.82002 0.912021L2.09255 7.21202C0.983568 8.11201 0.311101 9.91201 0.547055 11.328L2.03356 20.376C2.37569 22.404 4.22793 24 6.24533 24H18.7508C20.7447 24 22.6323 22.368 22.9744 20.364L24.4609 11.316C24.6733 9.91201 24.0008 8.11201 22.9154 7.21202ZM13.3829 19.2C13.3829 19.692 12.9818 20.1 12.4981 20.1C12.0144 20.1 11.6133 19.692 11.6133 19.2V15.6C11.6133 15.108 12.0144 14.7 12.4981 14.7C12.9818 14.7 13.3829 15.108 13.3829 15.6V19.2Z" fill="#B0B0B0"/>
</svg>
